<svg id="Camada_2" data-name="Camada 2" xmlns="http://www.w3.org/2000/svg" xmlns:xlink="http://www.w3.org/1999/xlink" viewBox="0 0 342 192"><defs><style>.cls-1,.cls-8{fill:none;}.cls-2{fill:#48c0c8;}.cls-3{fill:#189098;}.cls-4{fill:#88d8d8;stroke:#98f0f0;stroke-width:3px;}.cls-4,.cls-8{stroke-miterlimit:10;}.cls-5{fill:#38b0b8;}.cls-6{clip-path:url(#clip-path);}.cls-7{clip-path:url(#clip-path-2);}.cls-8{stroke:#002b59;}.cls-9{clip-path:url(#clip-path-3);}.cls-10{clip-path:url(#clip-path-4);}.cls-11{clip-path:url(#clip-path-5);}.cls-12{clip-path:url(#clip-path-6);}.cls-13{clip-path:url(#clip-path-7);}.cls-14{clip-path:url(#clip-path-8);}.cls-15{clip-path:url(#clip-path-9);}.cls-16{clip-path:url(#clip-path-10);}.cls-17{clip-path:url(#clip-path-11);}.cls-18{clip-path:url(#clip-path-12);}</style><clipPath id="clip-path"><rect id="SVGID" class="cls-1" x="43.15" y="48.33" width="127.74" height="25.94"/></clipPath><clipPath id="clip-path-2"><rect id="SVGID-2" data-name="SVGID" class="cls-1" x="43.15" y="77.97" width="128" height="19.36"/></clipPath><clipPath id="clip-path-3"><rect id="SVGID-3" data-name="SVGID" class="cls-1" x="43.15" y="96.33" width="127.74" height="25.94"/></clipPath><clipPath id="clip-path-4"><rect id="SVGID-4" data-name="SVGID" class="cls-1" x="43.15" y="125.97" width="128" height="19.36"/></clipPath><clipPath id="clip-path-5"><rect id="SVGID-5" data-name="SVGID" class="cls-1" x="171.6" y="104.16" width="127.74" height="25.94"/></clipPath><clipPath id="clip-path-6"><rect id="SVGID-6" data-name="SVGID" class="cls-1" x="171.6" y="133.8" width="128" height="19.36"/></clipPath><clipPath id="clip-path-7"><rect id="SVGID-7" data-name="SVGID" class="cls-1" x="171.6" y="56.02" width="127.74" height="25.94"/></clipPath><clipPath id="clip-path-8"><rect id="SVGID-8" data-name="SVGID" class="cls-1" x="171.6" y="85.66" width="128" height="19.36"/></clipPath><clipPath id="clip-path-9"><rect id="SVGID-9" data-name="SVGID" class="cls-1" x="171.6" y="7.88" width="127.74" height="25.94"/></clipPath><clipPath id="clip-path-10"><rect id="SVGID-10" data-name="SVGID" class="cls-1" x="171.6" y="37.52" width="128" height="19.36"/></clipPath><clipPath id="clip-path-11"><rect class="cls-1" x="43.15" y="28.32" width="128" height="20.68"/></clipPath><clipPath id="clip-path-12"><rect class="cls-1" x="43.15" width="128" height="25.77"/></clipPath></defs><rect class="cls-2" width="342" height="192"/><rect class="cls-3" x="52.6" y="-25.86" width="237.1" height="207.55" rx="7"/><rect class="cls-4" x="60.74" y="-18.38" width="220.81" height="192.6" rx="7"/><path class="cls-5" d="M169.74,52.44H54.49l-10,10V96.1H169.74Z"/><g class="cls-6"><path class="cls-3" d="M169.74,52.44H54.49l-10,10V96.1H169.74Z"/></g><g class="cls-7"><path class="cls-5" d="M169.74,52.44H54.49l-10,10V96.1H169.74Z"/></g><path class="cls-8" d="M169.74,52.44H54.49l-10,10V96.1H169.74Z"/><path class="cls-5" d="M169.74,100.44H54.49l-10,10V144.1H169.74Z"/><g class="cls-9"><path class="cls-3" d="M169.74,100.44H54.49l-10,10V144.1H169.74Z"/></g><g class="cls-10"><path class="cls-5" d="M169.74,100.44H54.49l-10,10V144.1H169.74Z"/></g><path class="cls-8" d="M169.74,100.44H54.49l-10,10V144.1H169.74Z"/><path class="cls-5" d="M298.19,108.27H182.94l-10,10v33.66H298.19Z"/><g class="cls-11"><path class="cls-3" d="M298.19,108.27H182.94l-10,10v33.66H298.19Z"/></g><g class="cls-12"><path class="cls-5" d="M298.19,108.27H182.94l-10,10v33.66H298.19Z"/></g><path class="cls-8" d="M298.19,108.27H182.94l-10,10v33.66H298.19Z"/><path class="cls-5" d="M298.19,60.13H182.94l-10,10v33.66H298.19Z"/><g class="cls-13"><path class="cls-3" d="M298.19,60.13H182.94l-10,10v33.66H298.19Z"/></g><g class="cls-14"><path class="cls-5" d="M298.19,60.13H182.94l-10,10v33.66H298.19Z"/></g><path class="cls-8" d="M298.19,60.13H182.94l-10,10v33.66H298.19Z"/><path class="cls-5" d="M298.19,12H182.94l-10,10V55.65H298.19Z"/><g class="cls-15"><path class="cls-3" d="M298.19,12H182.94l-10,10V55.65H298.19Z"/></g><g class="cls-16"><path class="cls-5" d="M298.19,12H182.94l-10,10V55.65H298.19Z"/></g><path class="cls-8" d="M298.19,12H182.94l-10,10V55.65H298.19Z"/><path class="cls-5" d="M66.51,3.89H169.79a0,0,0,0,1,0,0V47.64a0,0,0,0,1,0,0H66.25A21.74,21.74,0,0,1,44.51,25.89v0A22,22,0,0,1,66.51,3.89Z"/><g class="cls-17"><path class="cls-5" d="M66.51,3.89H169.79a0,0,0,0,1,0,0V47.64a0,0,0,0,1,0,0H66.25A21.74,21.74,0,0,1,44.51,25.89v0A22,22,0,0,1,66.51,3.89Z"/></g><g class="cls-18"><path class="cls-3" d="M66.51,3.89H169.79a0,0,0,0,1,0,0V47.64a0,0,0,0,1,0,0H66.25A21.74,21.74,0,0,1,44.51,25.89v0A22,22,0,0,1,66.51,3.89Z"/></g><path class="cls-8" d="M66.51,3.89H169.79a0,0,0,0,1,0,0V47.64a0,0,0,0,1,0,0H66.25A21.74,21.74,0,0,1,44.51,25.89v0A22,22,0,0,1,66.51,3.89Z"/></svg>