<svg id="Camada_2" data-name="Camada 2" xmlns="http://www.w3.org/2000/svg" viewBox="0 0 342 192"><defs><style>.cls-1{fill:#f0b028;}.cls-1,.cls-2,.cls-3{stroke:#606060;}.cls-1,.cls-2,.cls-3,.cls-7,.cls-8,.cls-9{stroke-miterlimit:10;}.cls-2,.cls-4,.cls-7{fill:#e0e8e8;}.cls-3{fill:#8898a8;}.cls-5{fill:#606060;}.cls-6,.cls-8{fill:#f8d068;}.cls-7,.cls-8{stroke:#404040;}.cls-9{fill:none;stroke:#e0e8e8;stroke-width:0.75px;}</style></defs><rect class="cls-1" x="-2.51" y="-3.96" width="358.48" height="135.64" rx="9.89"/><rect class="cls-2" x="-3.17" y="22.66" width="354.04" height="172.06"/><path class="cls-1" d="M361.27,37.43v157.7c0,4.79-4.43,8.68-9.89,8.68H134.62c-5.46,0-9.89-3.89-9.89-8.68V37.43c0-4.79,4.43-8.68,9.89-8.68H351.38C356.84,28.75,361.27,32.64,361.27,37.43Z"/><rect class="cls-2" x="-2.51" y="-8.81" width="350.05" height="15.53"/><rect class="cls-3" x="-17.85" y="27.48" width="116.7" height="32.14" rx="1.68"/><rect class="cls-3" x="-5.46" y="155.35" width="116.7" height="44.23" rx="1.68"/><rect class="cls-3" x="134.7" y="4.45" width="25.02" height="22.55" rx="3.53"/><rect class="cls-3" x="162.69" y="4.45" width="25.02" height="22.55" rx="3.53"/><rect class="cls-3" x="190.68" y="4.45" width="25.02" height="22.55" rx="3.53"/><rect class="cls-3" x="218.66" y="4.45" width="25.02" height="22.55" rx="3.53"/><rect class="cls-3" x="274.64" y="4.45" width="25.02" height="22.55" rx="3.53"/><path class="cls-1" d="M268.14,26h-4.06L259,30.75,254.25,26h-4.07a3.53,3.53,0,0,1-3.53-3.53v-17A3.53,3.53,0,0,1,250.18,2h18a3.53,3.53,0,0,1,3.53,3.53v17A3.53,3.53,0,0,1,268.14,26Z"/><path class="cls-4" d="M-17.57,45.22H98.35a0,0,0,0,1,0,0V57.91a1.22,1.22,0,0,1-1.22,1.22H-17.57a0,0,0,0,1,0,0V45.22A0,0,0,0,1-17.57,45.22Z"/><rect class="cls-4" x="-5.46" y="174.29" width="116.15" height="25.3"/><path class="cls-5" d="M289.33,22.46,287,18h0l-2.35,4.46h-4.3l4.27-6.83-4.18-6.87h4.65L287.22,13h0l2.21-4.23h4.23l-4.18,6.46L294,22.46Z"/><rect class="cls-6" x="139.72" y="41.87" width="124.21" height="104.51" rx="14.28"/><rect class="cls-2" x="124.73" y="170.04" width="235.21" height="17.87"/><rect class="cls-7" x="131.3" y="151.85" width="39.95" height="39.43" rx="4"/><polygon class="cls-8" points="302.48 64.59 269.04 88.88 281.82 128.19 323.15 128.19 335.92 88.88 302.48 64.59"/><path class="cls-9" d="M302.48,65.28v34.4l9.37-3c13.64-4.41,23.35-7.6,23.35-7.6s-9.71,3.19-23.35,7.6l-9.37,3,5.79,8c8.41,11.59,14.43,19.84,14.43,19.84s-6-8.25-14.43-19.84l-5.79-8-5.78,8c-8.42,11.59-14.44,19.84-14.44,19.84s6-8.25,14.44-19.84l5.78-8-9.36-3c-13.64-4.41-23.35-7.6-23.35-7.6s9.71,3.18,23.35,7.6l9.36,3Z"/></svg>