<svg id="Camada_2" data-name="Camada 2" xmlns="http://www.w3.org/2000/svg" xmlns:xlink="http://www.w3.org/1999/xlink" viewBox="0 0 342 192"><defs><style>.cls-1{fill:none;}.cls-2{fill:#ce59ce;}.cls-2,.cls-3,.cls-4{stroke:#606060;stroke-miterlimit:10;}.cls-3,.cls-5{fill:#e0e8e8;}.cls-4{fill:#8898a8;}.cls-6{fill:#606060;}.cls-7{clip-path:url(#clip-path);}.cls-8,.cls-9{fill:#b2c0c7;}.cls-9{fill-rule:evenodd;}</style><clipPath id="clip-path"><rect class="cls-1" x="145.89" y="41.48" width="173.11" height="141.54" rx="2"/></clipPath></defs><rect class="cls-2" x="-1.65" y="-3.46" width="358.48" height="135.64" rx="9.89"/><rect class="cls-3" x="-2.31" y="23.16" width="354.04" height="167.7"/><path class="cls-2" d="M362.13,37.93v157.7c0,4.79-4.43,8.68-9.89,8.68H135.48c-5.46,0-9.89-3.89-9.89-8.68V37.93c0-4.79,4.43-8.68,9.89-8.68H352.24C357.7,29.25,362.13,33.14,362.13,37.93Z"/><rect class="cls-3" x="-1.65" y="-8.31" width="350.05" height="15.53"/><rect class="cls-4" x="-16.99" y="27.98" width="116.7" height="32.14" rx="1.68"/><rect class="cls-4" x="-4.6" y="155.85" width="116.7" height="44.23" rx="1.68"/><rect class="cls-4" x="134.72" y="4.95" width="25.02" height="22.55" rx="3.53"/><rect class="cls-4" x="190.63" y="4.95" width="25.02" height="22.55" rx="3.53"/><rect class="cls-4" x="218.59" y="4.95" width="25.02" height="22.55" rx="3.53"/><rect class="cls-4" x="246.54" y="4.95" width="25.02" height="22.55" rx="3.53"/><rect class="cls-4" x="274.5" y="4.95" width="25.02" height="22.55" rx="3.53"/><path class="cls-2" d="M184.17,26.49h-4.06L175,31.25l-4.72-4.76h-4.07A3.53,3.53,0,0,1,162.68,23V6a3.53,3.53,0,0,1,3.53-3.53h18A3.53,3.53,0,0,1,187.7,6V23A3.53,3.53,0,0,1,184.17,26.49Z"/><path class="cls-5" d="M-16.71,45.72H99.21a0,0,0,0,1,0,0V58.41A1.22,1.22,0,0,1,98,59.63H-16.71a0,0,0,0,1,0,0V45.72A0,0,0,0,1-16.71,45.72Z"/><rect class="cls-5" x="-4.6" y="174.79" width="116.15" height="25.3"/><path class="cls-6" d="M289.19,23l-2.31-4.46h0L284.49,23h-4.3l4.28-6.83-4.19-6.87h4.65l2.15,4.23h.05l2.21-4.23h4.23l-4.17,6.46L293.83,23Z"/><rect class="cls-3" x="142.83" y="38.98" width="179.23" height="146.55" rx="2"/><g class="cls-7"><rect class="cls-8" x="121.04" y="165.62" width="0.76" height="2.06"/><rect class="cls-1" x="121.16" y="164.85" width="4.34" height="3.6"/><rect class="cls-1" x="122.19" y="165.51" width="2.27" height="2.27"/><path class="cls-9" d="M124.47,166.65a1.14,1.14,0,1,1-1.14-1.14A1.14,1.14,0,0,1,124.47,166.65Z"/><rect class="cls-1" x="126.53" y="165.51" width="2.27" height="2.27"/><path class="cls-9" d="M128.8,166.65a1.14,1.14,0,1,1-1.13-1.14A1.14,1.14,0,0,1,128.8,166.65Z"/><rect class="cls-1" x="130.86" y="165.51" width="2.27" height="2.27"/><path class="cls-9" d="M133.14,166.65a1.14,1.14,0,1,1-1.14-1.14A1.14,1.14,0,0,1,133.14,166.65Z"/><rect class="cls-1" x="135.2" y="165.51" width="2.27" height="2.27"/><path class="cls-9" d="M137.47,166.65a1.14,1.14,0,1,1-1.13-1.14A1.14,1.14,0,0,1,137.47,166.65Z"/><rect class="cls-1" x="139.53" y="165.51" width="2.27" height="2.27"/><path class="cls-9" d="M141.81,166.65a1.14,1.14,0,1,1-1.14-1.14A1.14,1.14,0,0,1,141.81,166.65Z"/><rect class="cls-1" x="143.87" y="165.51" width="2.27" height="2.27"/><path class="cls-9" d="M146.14,166.65a1.14,1.14,0,1,1-1.13-1.14A1.14,1.14,0,0,1,146.14,166.65Z"/><rect class="cls-1" x="148.2" y="165.51" width="2.27" height="2.27"/><path class="cls-9" d="M150.48,166.65a1.14,1.14,0,1,1-1.14-1.14A1.14,1.14,0,0,1,150.48,166.65Z"/><rect class="cls-1" x="152.54" y="165.51" width="2.27" height="2.27"/><path class="cls-9" d="M154.81,166.65a1.14,1.14,0,1,1-1.13-1.14A1.14,1.14,0,0,1,154.81,166.65Z"/><rect class="cls-1" x="156.87" y="165.51" width="2.27" height="2.27"/><path class="cls-9" d="M159.15,166.65a1.14,1.14,0,1,1-1.14-1.14A1.14,1.14,0,0,1,159.15,166.65Z"/><rect class="cls-1" x="161.21" y="165.51" width="2.27" height="2.27"/><path class="cls-9" d="M163.48,166.65a1.14,1.14,0,1,1-1.13-1.14A1.14,1.14,0,0,1,163.48,166.65Z"/><rect class="cls-1" x="165.54" y="165.51" width="2.27" height="2.27"/><path class="cls-9" d="M167.82,166.65a1.14,1.14,0,1,1-1.14-1.14A1.14,1.14,0,0,1,167.82,166.65Z"/><rect class="cls-1" x="169.88" y="165.51" width="2.27" height="2.27"/><path class="cls-9" d="M172.15,166.65a1.14,1.14,0,1,1-1.13-1.14A1.14,1.14,0,0,1,172.15,166.65Z"/><rect class="cls-1" x="174.21" y="165.51" width="2.27" height="2.27"/><path class="cls-9" d="M176.49,166.65a1.14,1.14,0,1,1-1.14-1.14A1.14,1.14,0,0,1,176.49,166.65Z"/><rect class="cls-1" x="178.55" y="165.51" width="2.27" height="2.27"/><path class="cls-9" d="M180.82,166.65a1.14,1.14,0,1,1-1.14-1.14A1.14,1.14,0,0,1,180.82,166.65Z"/><rect class="cls-1" x="182.88" y="165.51" width="2.27" height="2.27"/><path class="cls-9" d="M185.16,166.65a1.14,1.14,0,1,1-1.14-1.14A1.14,1.14,0,0,1,185.16,166.65Z"/><rect class="cls-1" x="187.22" y="165.51" width="2.27" height="2.27"/><path class="cls-9" d="M189.49,166.65a1.14,1.14,0,1,1-1.14-1.14A1.14,1.14,0,0,1,189.49,166.65Z"/><rect class="cls-1" x="191.55" y="165.51" width="2.27" height="2.27"/><path class="cls-9" d="M193.83,166.65a1.14,1.14,0,1,1-1.14-1.14A1.14,1.14,0,0,1,193.83,166.65Z"/><rect class="cls-1" x="195.89" y="165.51" width="2.27" height="2.27"/><path class="cls-9" d="M198.16,166.65a1.14,1.14,0,1,1-1.14-1.14A1.14,1.14,0,0,1,198.16,166.65Z"/><rect class="cls-1" x="200.22" y="165.51" width="2.27" height="2.27"/><path class="cls-9" d="M202.5,166.65a1.14,1.14,0,1,1-1.14-1.14A1.14,1.14,0,0,1,202.5,166.65Z"/><rect class="cls-1" x="204.56" y="165.51" width="2.27" height="2.27"/><path class="cls-9" d="M206.83,166.65a1.14,1.14,0,1,1-1.14-1.14A1.14,1.14,0,0,1,206.83,166.65Z"/><rect class="cls-1" x="208.89" y="165.51" width="2.27" height="2.27"/><path class="cls-9" d="M211.17,166.65a1.14,1.14,0,1,1-1.14-1.14A1.14,1.14,0,0,1,211.17,166.65Z"/><rect class="cls-1" x="213.23" y="165.51" width="2.27" height="2.27"/><path class="cls-9" d="M215.5,166.65a1.14,1.14,0,1,1-1.14-1.14A1.14,1.14,0,0,1,215.5,166.65Z"/><rect class="cls-1" x="217.56" y="165.51" width="2.27" height="2.27"/><path class="cls-9" d="M219.84,166.65a1.14,1.14,0,1,1-1.14-1.14A1.14,1.14,0,0,1,219.84,166.65Z"/><rect class="cls-1" x="221.9" y="165.51" width="2.27" height="2.27"/><path class="cls-9" d="M224.17,166.65a1.14,1.14,0,1,1-1.14-1.14A1.14,1.14,0,0,1,224.17,166.65Z"/><rect class="cls-1" x="226.23" y="165.51" width="2.27" height="2.27"/><path class="cls-9" d="M228.51,166.65a1.14,1.14,0,1,1-1.14-1.14A1.14,1.14,0,0,1,228.51,166.65Z"/><rect class="cls-1" x="230.57" y="165.51" width="2.27" height="2.27"/><path class="cls-9" d="M232.84,166.65a1.14,1.14,0,1,1-1.14-1.14A1.14,1.14,0,0,1,232.84,166.65Z"/><rect class="cls-1" x="234.9" y="165.51" width="2.27" height="2.27"/><path class="cls-9" d="M237.18,166.65a1.14,1.14,0,1,1-1.14-1.14A1.14,1.14,0,0,1,237.18,166.65Z"/><rect class="cls-1" x="239.24" y="165.51" width="2.27" height="2.27"/><path class="cls-9" d="M241.51,166.65a1.14,1.14,0,1,1-1.14-1.14A1.14,1.14,0,0,1,241.51,166.65Z"/><rect class="cls-1" x="243.57" y="165.51" width="2.27" height="2.27"/><path class="cls-9" d="M245.84,166.65a1.14,1.14,0,1,1-1.13-1.14A1.13,1.13,0,0,1,245.84,166.65Z"/><rect class="cls-1" x="247.9" y="165.51" width="2.27" height="2.27"/><path class="cls-9" d="M250.18,166.65a1.14,1.14,0,1,1-1.14-1.14A1.14,1.14,0,0,1,250.18,166.65Z"/><rect class="cls-1" x="252.24" y="165.51" width="2.27" height="2.27"/><path class="cls-9" d="M254.51,166.65a1.14,1.14,0,1,1-1.13-1.14A1.14,1.14,0,0,1,254.51,166.65Z"/><rect class="cls-1" x="256.57" y="165.51" width="2.27" height="2.27"/><path class="cls-9" d="M258.85,166.65a1.14,1.14,0,1,1-1.14-1.14A1.14,1.14,0,0,1,258.85,166.65Z"/><rect class="cls-1" x="260.91" y="165.51" width="2.27" height="2.27"/><path class="cls-9" d="M263.18,166.65a1.14,1.14,0,1,1-1.13-1.14A1.14,1.14,0,0,1,263.18,166.65Z"/><rect class="cls-1" x="265.24" y="165.51" width="2.27" height="2.27"/><path class="cls-9" d="M267.52,166.65a1.14,1.14,0,1,1-1.14-1.14A1.14,1.14,0,0,1,267.52,166.65Z"/><rect class="cls-1" x="269.58" y="165.51" width="2.27" height="2.27"/><path class="cls-9" d="M271.85,166.65a1.14,1.14,0,1,1-1.13-1.14A1.14,1.14,0,0,1,271.85,166.65Z"/><rect class="cls-1" x="273.91" y="165.51" width="2.27" height="2.27"/><path class="cls-9" d="M276.19,166.65a1.14,1.14,0,1,1-1.14-1.14A1.14,1.14,0,0,1,276.19,166.65Z"/><rect class="cls-1" x="278.25" y="165.51" width="2.27" height="2.27"/><path class="cls-9" d="M280.52,166.65a1.14,1.14,0,1,1-1.13-1.14A1.14,1.14,0,0,1,280.52,166.65Z"/><rect class="cls-1" x="282.58" y="165.51" width="2.27" height="2.27"/><path class="cls-9" d="M284.86,166.65a1.14,1.14,0,1,1-1.14-1.14A1.14,1.14,0,0,1,284.86,166.65Z"/><rect class="cls-1" x="286.92" y="165.51" width="2.27" height="2.27"/><path class="cls-9" d="M289.19,166.65a1.14,1.14,0,1,1-1.13-1.14A1.14,1.14,0,0,1,289.19,166.65Z"/><rect class="cls-1" x="291.25" y="165.51" width="2.27" height="2.27"/><path class="cls-9" d="M293.53,166.65a1.14,1.14,0,1,1-1.14-1.14A1.14,1.14,0,0,1,293.53,166.65Z"/><rect class="cls-1" x="295.59" y="165.51" width="2.27" height="2.27"/><path class="cls-9" d="M297.86,166.65a1.14,1.14,0,1,1-1.13-1.14A1.14,1.14,0,0,1,297.86,166.65Z"/><rect class="cls-1" x="299.92" y="165.51" width="2.27" height="2.27"/><path class="cls-9" d="M302.2,166.65a1.14,1.14,0,1,1-1.14-1.14A1.14,1.14,0,0,1,302.2,166.65Z"/><rect class="cls-1" x="304.26" y="165.51" width="2.27" height="2.27"/><path class="cls-9" d="M306.53,166.65a1.14,1.14,0,1,1-1.14-1.14A1.14,1.14,0,0,1,306.53,166.65Z"/><rect class="cls-1" x="308.59" y="165.51" width="2.27" height="2.27"/><path class="cls-9" d="M310.87,166.65a1.14,1.14,0,1,1-1.14-1.14A1.14,1.14,0,0,1,310.87,166.65Z"/><rect class="cls-1" x="312.93" y="165.51" width="2.27" height="2.27"/><path class="cls-9" d="M315.2,166.65a1.14,1.14,0,1,1-1.14-1.14A1.14,1.14,0,0,1,315.2,166.65Z"/><rect class="cls-1" x="317.26" y="165.51" width="2.27" height="2.27"/><path class="cls-9" d="M319.54,166.65a1.14,1.14,0,1,1-1.14-1.14A1.14,1.14,0,0,1,319.54,166.65Z"/><rect class="cls-1" x="321.6" y="165.51" width="2.27" height="2.27"/><path class="cls-9" d="M323.87,166.65a1.14,1.14,0,1,1-1.14-1.14A1.14,1.14,0,0,1,323.87,166.65Z"/><rect class="cls-1" x="325.93" y="165.51" width="2.27" height="2.27"/><path class="cls-9" d="M328.21,166.65a1.14,1.14,0,1,1-1.14-1.14A1.14,1.14,0,0,1,328.21,166.65Z"/><rect class="cls-1" x="330.27" y="165.51" width="2.27" height="2.27"/><path class="cls-9" d="M332.54,166.65a1.14,1.14,0,1,1-1.14-1.14A1.14,1.14,0,0,1,332.54,166.65Z"/><rect class="cls-1" x="334.6" y="165.51" width="2.27" height="2.27"/><path class="cls-9" d="M336.88,166.65a1.14,1.14,0,1,1-1.14-1.14A1.14,1.14,0,0,1,336.88,166.65Z"/><rect class="cls-1" x="338.94" y="165.51" width="2.27" height="2.27"/><path class="cls-9" d="M341.21,166.65a1.14,1.14,0,1,1-1.14-1.14A1.14,1.14,0,0,1,341.21,166.65Z"/><rect class="cls-8" x="121.04" y="149.99" width="0.76" height="2.06"/><rect class="cls-1" x="121.16" y="149.22" width="4.34" height="3.6"/><rect class="cls-1" x="122.19" y="149.88" width="2.27" height="2.27"/><path class="cls-9" d="M124.47,151a1.14,1.14,0,1,1-1.14-1.14A1.14,1.14,0,0,1,124.47,151Z"/><rect class="cls-1" x="126.53" y="149.88" width="2.27" height="2.27"/><path class="cls-9" d="M128.8,151a1.14,1.14,0,1,1-1.13-1.14A1.14,1.14,0,0,1,128.8,151Z"/><rect class="cls-1" x="130.86" y="149.88" width="2.27" height="2.27"/><path class="cls-9" d="M133.14,151a1.14,1.14,0,1,1-1.14-1.14A1.14,1.14,0,0,1,133.14,151Z"/><rect class="cls-1" x="135.2" y="149.88" width="2.27" height="2.27"/><path class="cls-9" d="M137.47,151a1.14,1.14,0,1,1-1.13-1.14A1.14,1.14,0,0,1,137.47,151Z"/><rect class="cls-1" x="139.53" y="149.88" width="2.27" height="2.27"/><path class="cls-9" d="M141.81,151a1.14,1.14,0,1,1-1.14-1.14A1.14,1.14,0,0,1,141.81,151Z"/><rect class="cls-1" x="143.87" y="149.88" width="2.27" height="2.27"/><path class="cls-9" d="M146.14,151a1.14,1.14,0,1,1-1.13-1.14A1.14,1.14,0,0,1,146.14,151Z"/><rect class="cls-1" x="148.2" y="149.88" width="2.27" height="2.27"/><path class="cls-9" d="M150.48,151a1.14,1.14,0,1,1-1.14-1.14A1.14,1.14,0,0,1,150.48,151Z"/><rect class="cls-1" x="152.54" y="149.88" width="2.27" height="2.27"/><path class="cls-9" d="M154.81,151a1.14,1.14,0,1,1-1.13-1.14A1.14,1.14,0,0,1,154.81,151Z"/><rect class="cls-1" x="156.87" y="149.88" width="2.27" height="2.27"/><path class="cls-9" d="M159.15,151a1.14,1.14,0,1,1-1.14-1.14A1.14,1.14,0,0,1,159.15,151Z"/><rect class="cls-1" x="161.21" y="149.88" width="2.27" height="2.27"/><path class="cls-9" d="M163.48,151a1.14,1.14,0,1,1-1.13-1.14A1.14,1.14,0,0,1,163.48,151Z"/><rect class="cls-1" x="165.54" y="149.88" width="2.27" height="2.27"/><path class="cls-9" d="M167.82,151a1.14,1.14,0,1,1-1.14-1.14A1.14,1.14,0,0,1,167.82,151Z"/><rect class="cls-1" x="169.88" y="149.88" width="2.27" height="2.27"/><path class="cls-9" d="M172.15,151a1.14,1.14,0,1,1-1.13-1.14A1.14,1.14,0,0,1,172.15,151Z"/><rect class="cls-1" x="174.21" y="149.88" width="2.27" height="2.27"/><path class="cls-9" d="M176.49,151a1.14,1.14,0,1,1-1.14-1.14A1.14,1.14,0,0,1,176.49,151Z"/><rect class="cls-1" x="178.55" y="149.88" width="2.27" height="2.27"/><path class="cls-9" d="M180.82,151a1.14,1.14,0,1,1-1.14-1.14A1.14,1.14,0,0,1,180.82,151Z"/><rect class="cls-1" x="182.88" y="149.88" width="2.27" height="2.27"/><path class="cls-9" d="M185.16,151a1.14,1.14,0,1,1-1.14-1.14A1.14,1.14,0,0,1,185.16,151Z"/><rect class="cls-1" x="187.22" y="149.88" width="2.27" height="2.27"/><path class="cls-9" d="M189.49,151a1.14,1.14,0,1,1-1.14-1.14A1.14,1.14,0,0,1,189.49,151Z"/><rect class="cls-1" x="191.55" y="149.88" width="2.27" height="2.27"/><path class="cls-9" d="M193.83,151a1.14,1.14,0,1,1-1.14-1.14A1.14,1.14,0,0,1,193.83,151Z"/><rect class="cls-1" x="195.89" y="149.88" width="2.27" height="2.27"/><path class="cls-9" d="M198.16,151a1.14,1.14,0,1,1-1.14-1.14A1.14,1.14,0,0,1,198.16,151Z"/><rect class="cls-1" x="200.22" y="149.88" width="2.27" height="2.27"/><path class="cls-9" d="M202.5,151a1.14,1.14,0,1,1-1.14-1.14A1.14,1.14,0,0,1,202.5,151Z"/><rect class="cls-1" x="204.56" y="149.88" width="2.27" height="2.27"/><path class="cls-9" d="M206.83,151a1.14,1.14,0,1,1-1.14-1.14A1.14,1.14,0,0,1,206.83,151Z"/><rect class="cls-1" x="208.89" y="149.88" width="2.27" height="2.27"/><path class="cls-9" d="M211.17,151a1.14,1.14,0,1,1-1.14-1.14A1.14,1.14,0,0,1,211.17,151Z"/><rect class="cls-1" x="213.23" y="149.88" width="2.27" height="2.27"/><path class="cls-9" d="M215.5,151a1.14,1.14,0,1,1-1.14-1.14A1.14,1.14,0,0,1,215.5,151Z"/><rect class="cls-1" x="217.56" y="149.88" width="2.27" height="2.27"/><path class="cls-9" d="M219.84,151a1.14,1.14,0,1,1-1.14-1.14A1.14,1.14,0,0,1,219.84,151Z"/><rect class="cls-1" x="221.9" y="149.88" width="2.27" height="2.27"/><path class="cls-9" d="M224.17,151a1.14,1.14,0,1,1-1.14-1.14A1.14,1.14,0,0,1,224.17,151Z"/><rect class="cls-1" x="226.23" y="149.88" width="2.27" height="2.27"/><path class="cls-9" d="M228.51,151a1.14,1.14,0,1,1-1.14-1.14A1.14,1.14,0,0,1,228.51,151Z"/><rect class="cls-1" x="230.57" y="149.88" width="2.27" height="2.27"/><path class="cls-9" d="M232.84,151a1.14,1.14,0,1,1-1.14-1.14A1.14,1.14,0,0,1,232.84,151Z"/><rect class="cls-1" x="234.9" y="149.88" width="2.27" height="2.27"/><path class="cls-9" d="M237.18,151a1.14,1.14,0,1,1-1.14-1.14A1.14,1.14,0,0,1,237.18,151Z"/><rect class="cls-1" x="239.24" y="149.88" width="2.27" height="2.27"/><path class="cls-9" d="M241.51,151a1.14,1.14,0,1,1-1.14-1.14A1.14,1.14,0,0,1,241.51,151Z"/><rect class="cls-1" x="243.57" y="149.88" width="2.27" height="2.27"/><path class="cls-9" d="M245.84,151a1.14,1.14,0,1,1-1.13-1.14A1.13,1.13,0,0,1,245.84,151Z"/><rect class="cls-1" x="247.9" y="149.88" width="2.27" height="2.27"/><path class="cls-9" d="M250.18,151a1.14,1.14,0,1,1-1.14-1.14A1.14,1.14,0,0,1,250.18,151Z"/><rect class="cls-1" x="252.24" y="149.88" width="2.27" height="2.27"/><path class="cls-9" d="M254.51,151a1.14,1.14,0,1,1-1.13-1.14A1.14,1.14,0,0,1,254.51,151Z"/><rect class="cls-1" x="256.57" y="149.88" width="2.27" height="2.27"/><path class="cls-9" d="M258.85,151a1.14,1.14,0,1,1-1.14-1.14A1.14,1.14,0,0,1,258.85,151Z"/><rect class="cls-1" x="260.91" y="149.88" width="2.27" height="2.27"/><path class="cls-9" d="M263.18,151a1.14,1.14,0,1,1-1.13-1.14A1.14,1.14,0,0,1,263.18,151Z"/><rect class="cls-1" x="265.24" y="149.88" width="2.27" height="2.27"/><path class="cls-9" d="M267.52,151a1.14,1.14,0,1,1-1.14-1.14A1.14,1.14,0,0,1,267.52,151Z"/><rect class="cls-1" x="269.58" y="149.88" width="2.27" height="2.27"/><path class="cls-9" d="M271.85,151a1.14,1.14,0,1,1-1.13-1.14A1.14,1.14,0,0,1,271.85,151Z"/><rect class="cls-1" x="273.91" y="149.88" width="2.27" height="2.27"/><path class="cls-9" d="M276.19,151a1.14,1.14,0,1,1-1.14-1.14A1.14,1.14,0,0,1,276.19,151Z"/><rect class="cls-1" x="278.25" y="149.88" width="2.27" height="2.27"/><path class="cls-9" d="M280.52,151a1.14,1.14,0,1,1-1.13-1.14A1.14,1.14,0,0,1,280.52,151Z"/><rect class="cls-1" x="282.58" y="149.88" width="2.27" height="2.27"/><path class="cls-9" d="M284.86,151a1.14,1.14,0,1,1-1.14-1.14A1.14,1.14,0,0,1,284.86,151Z"/><rect class="cls-1" x="286.92" y="149.88" width="2.27" height="2.27"/><path class="cls-9" d="M289.19,151a1.14,1.14,0,1,1-1.13-1.14A1.14,1.14,0,0,1,289.19,151Z"/><rect class="cls-1" x="291.25" y="149.88" width="2.27" height="2.27"/><path class="cls-9" d="M293.53,151a1.14,1.14,0,1,1-1.14-1.14A1.14,1.14,0,0,1,293.53,151Z"/><rect class="cls-1" x="295.59" y="149.88" width="2.27" height="2.27"/><path class="cls-9" d="M297.86,151a1.14,1.14,0,1,1-1.13-1.14A1.14,1.14,0,0,1,297.86,151Z"/><rect class="cls-1" x="299.92" y="149.88" width="2.27" height="2.27"/><path class="cls-9" d="M302.2,151a1.14,1.14,0,1,1-1.14-1.14A1.14,1.14,0,0,1,302.2,151Z"/><rect class="cls-1" x="304.26" y="149.88" width="2.27" height="2.27"/><path class="cls-9" d="M306.53,151a1.14,1.14,0,1,1-1.14-1.14A1.14,1.14,0,0,1,306.53,151Z"/><rect class="cls-1" x="308.59" y="149.88" width="2.27" height="2.27"/><path class="cls-9" d="M310.87,151a1.14,1.14,0,1,1-1.14-1.14A1.14,1.14,0,0,1,310.87,151Z"/><rect class="cls-1" x="312.93" y="149.88" width="2.27" height="2.27"/><path class="cls-9" d="M315.2,151a1.14,1.14,0,1,1-1.14-1.14A1.14,1.14,0,0,1,315.2,151Z"/><rect class="cls-1" x="317.26" y="149.88" width="2.27" height="2.27"/><path class="cls-9" d="M319.54,151a1.14,1.14,0,1,1-1.14-1.14A1.14,1.14,0,0,1,319.54,151Z"/><rect class="cls-1" x="321.6" y="149.88" width="2.27" height="2.27"/><path class="cls-9" d="M323.87,151a1.14,1.14,0,1,1-1.14-1.14A1.14,1.14,0,0,1,323.87,151Z"/><rect class="cls-1" x="325.93" y="149.88" width="2.27" height="2.27"/><path class="cls-9" d="M328.21,151a1.14,1.14,0,1,1-1.14-1.14A1.14,1.14,0,0,1,328.21,151Z"/><rect class="cls-1" x="330.27" y="149.88" width="2.27" height="2.27"/><path class="cls-9" d="M332.54,151a1.14,1.14,0,1,1-1.14-1.14A1.14,1.14,0,0,1,332.54,151Z"/><rect class="cls-1" x="334.6" y="149.88" width="2.27" height="2.27"/><path class="cls-9" d="M336.88,151a1.14,1.14,0,1,1-1.14-1.14A1.14,1.14,0,0,1,336.88,151Z"/><rect class="cls-1" x="338.94" y="149.88" width="2.27" height="2.27"/><path class="cls-9" d="M341.21,151a1.14,1.14,0,1,1-1.14-1.14A1.14,1.14,0,0,1,341.21,151Z"/><rect class="cls-8" x="121.04" y="133.8" width="0.76" height="2.06"/><rect class="cls-1" x="121.16" y="133.03" width="4.34" height="3.6"/><rect class="cls-1" x="122.19" y="133.7" width="2.27" height="2.27"/><path class="cls-9" d="M124.47,134.83a1.14,1.14,0,1,1-1.14-1.13A1.14,1.14,0,0,1,124.47,134.83Z"/><rect class="cls-1" x="126.53" y="133.7" width="2.27" height="2.27"/><path class="cls-9" d="M128.8,134.83a1.14,1.14,0,1,1-1.13-1.13A1.14,1.14,0,0,1,128.8,134.83Z"/><rect class="cls-1" x="130.86" y="133.7" width="2.27" height="2.27"/><path class="cls-9" d="M133.14,134.83A1.14,1.14,0,1,1,132,133.7,1.14,1.14,0,0,1,133.14,134.83Z"/><rect class="cls-1" x="135.2" y="133.7" width="2.27" height="2.27"/><path class="cls-9" d="M137.47,134.83a1.14,1.14,0,1,1-1.13-1.13A1.14,1.14,0,0,1,137.47,134.83Z"/><rect class="cls-1" x="139.53" y="133.7" width="2.27" height="2.27"/><path class="cls-9" d="M141.81,134.83a1.14,1.14,0,1,1-1.14-1.13A1.14,1.14,0,0,1,141.81,134.83Z"/><rect class="cls-1" x="143.87" y="133.7" width="2.27" height="2.27"/><path class="cls-9" d="M146.14,134.83A1.14,1.14,0,1,1,145,133.7,1.14,1.14,0,0,1,146.14,134.83Z"/><rect class="cls-1" x="148.2" y="133.7" width="2.27" height="2.27"/><path class="cls-9" d="M150.48,134.83a1.14,1.14,0,1,1-1.14-1.13A1.14,1.14,0,0,1,150.48,134.83Z"/><rect class="cls-1" x="152.54" y="133.7" width="2.27" height="2.27"/><path class="cls-9" d="M154.81,134.83a1.14,1.14,0,1,1-1.13-1.13A1.14,1.14,0,0,1,154.81,134.83Z"/><rect class="cls-1" x="156.87" y="133.7" width="2.27" height="2.27"/><path class="cls-9" d="M159.15,134.83A1.14,1.14,0,1,1,158,133.7,1.14,1.14,0,0,1,159.15,134.83Z"/><rect class="cls-1" x="161.21" y="133.7" width="2.27" height="2.27"/><path class="cls-9" d="M163.48,134.83a1.14,1.14,0,1,1-1.13-1.13A1.14,1.14,0,0,1,163.48,134.83Z"/><rect class="cls-1" x="165.54" y="133.7" width="2.27" height="2.27"/><path class="cls-9" d="M167.82,134.83a1.14,1.14,0,1,1-1.14-1.13A1.14,1.14,0,0,1,167.82,134.83Z"/><rect class="cls-1" x="169.88" y="133.7" width="2.27" height="2.27"/><path class="cls-9" d="M172.15,134.83A1.14,1.14,0,1,1,171,133.7,1.14,1.14,0,0,1,172.15,134.83Z"/><rect class="cls-1" x="174.21" y="133.7" width="2.27" height="2.27"/><path class="cls-9" d="M176.49,134.83a1.14,1.14,0,1,1-1.14-1.13A1.14,1.14,0,0,1,176.49,134.83Z"/><rect class="cls-1" x="178.55" y="133.7" width="2.27" height="2.27"/><path class="cls-9" d="M180.82,134.83a1.14,1.14,0,1,1-1.14-1.13A1.14,1.14,0,0,1,180.82,134.83Z"/><rect class="cls-1" x="182.88" y="133.7" width="2.27" height="2.27"/><path class="cls-9" d="M185.16,134.83A1.14,1.14,0,1,1,184,133.7,1.14,1.14,0,0,1,185.16,134.83Z"/><rect class="cls-1" x="187.22" y="133.7" width="2.27" height="2.27"/><path class="cls-9" d="M189.49,134.83a1.14,1.14,0,1,1-1.14-1.13A1.14,1.14,0,0,1,189.49,134.83Z"/><rect class="cls-1" x="191.55" y="133.7" width="2.27" height="2.27"/><path class="cls-9" d="M193.83,134.83a1.14,1.14,0,1,1-1.14-1.13A1.14,1.14,0,0,1,193.83,134.83Z"/><rect class="cls-1" x="195.89" y="133.7" width="2.27" height="2.27"/><path class="cls-9" d="M198.16,134.83A1.14,1.14,0,1,1,197,133.7,1.14,1.14,0,0,1,198.16,134.83Z"/><rect class="cls-1" x="200.22" y="133.7" width="2.27" height="2.27"/><path class="cls-9" d="M202.5,134.83a1.14,1.14,0,1,1-1.14-1.13A1.14,1.14,0,0,1,202.5,134.83Z"/><rect class="cls-1" x="204.56" y="133.7" width="2.27" height="2.27"/><path class="cls-9" d="M206.83,134.83a1.14,1.14,0,1,1-1.14-1.13A1.14,1.14,0,0,1,206.83,134.83Z"/><rect class="cls-1" x="208.89" y="133.7" width="2.27" height="2.27"/><path class="cls-9" d="M211.17,134.83A1.14,1.14,0,1,1,210,133.7,1.14,1.14,0,0,1,211.17,134.83Z"/><rect class="cls-1" x="213.23" y="133.7" width="2.27" height="2.27"/><path class="cls-9" d="M215.5,134.83a1.14,1.14,0,1,1-1.14-1.13A1.14,1.14,0,0,1,215.5,134.83Z"/><rect class="cls-1" x="217.56" y="133.7" width="2.27" height="2.27"/><path class="cls-9" d="M219.84,134.83a1.14,1.14,0,1,1-1.14-1.13A1.14,1.14,0,0,1,219.84,134.83Z"/><rect class="cls-1" x="221.9" y="133.7" width="2.27" height="2.27"/><path class="cls-9" d="M224.17,134.83A1.14,1.14,0,1,1,223,133.7,1.14,1.14,0,0,1,224.17,134.83Z"/><rect class="cls-1" x="226.23" y="133.7" width="2.27" height="2.27"/><path class="cls-9" d="M228.51,134.83a1.14,1.14,0,1,1-1.14-1.13A1.14,1.14,0,0,1,228.51,134.83Z"/><rect class="cls-1" x="230.57" y="133.7" width="2.27" height="2.27"/><path class="cls-9" d="M232.84,134.83a1.14,1.14,0,1,1-1.14-1.13A1.14,1.14,0,0,1,232.84,134.83Z"/><rect class="cls-1" x="234.9" y="133.7" width="2.27" height="2.27"/><path class="cls-9" d="M237.18,134.83A1.14,1.14,0,1,1,236,133.7,1.14,1.14,0,0,1,237.18,134.83Z"/><rect class="cls-1" x="239.24" y="133.7" width="2.27" height="2.27"/><path class="cls-9" d="M241.51,134.83a1.14,1.14,0,1,1-1.14-1.13A1.14,1.14,0,0,1,241.51,134.83Z"/><rect class="cls-1" x="243.57" y="133.7" width="2.27" height="2.27"/><path class="cls-9" d="M245.84,134.83a1.14,1.14,0,1,1-1.13-1.13A1.13,1.13,0,0,1,245.84,134.83Z"/><rect class="cls-1" x="247.9" y="133.7" width="2.27" height="2.27"/><path class="cls-9" d="M250.18,134.83A1.14,1.14,0,1,1,249,133.7,1.14,1.14,0,0,1,250.18,134.83Z"/><rect class="cls-1" x="252.24" y="133.7" width="2.27" height="2.27"/><path class="cls-9" d="M254.51,134.83a1.14,1.14,0,1,1-1.13-1.13A1.14,1.14,0,0,1,254.51,134.83Z"/><rect class="cls-1" x="256.57" y="133.7" width="2.27" height="2.27"/><path class="cls-9" d="M258.85,134.83a1.14,1.14,0,1,1-1.14-1.13A1.14,1.14,0,0,1,258.85,134.83Z"/><rect class="cls-1" x="260.91" y="133.7" width="2.27" height="2.27"/><path class="cls-9" d="M263.18,134.83a1.14,1.14,0,1,1-1.13-1.13A1.14,1.14,0,0,1,263.18,134.83Z"/><rect class="cls-1" x="265.24" y="133.7" width="2.27" height="2.27"/><path class="cls-9" d="M267.52,134.83a1.14,1.14,0,1,1-1.14-1.13A1.14,1.14,0,0,1,267.52,134.83Z"/><rect class="cls-1" x="269.58" y="133.7" width="2.27" height="2.27"/><path class="cls-9" d="M271.85,134.83a1.14,1.14,0,1,1-1.13-1.13A1.14,1.14,0,0,1,271.85,134.83Z"/><rect class="cls-1" x="273.91" y="133.7" width="2.27" height="2.27"/><path class="cls-9" d="M276.19,134.83a1.14,1.14,0,1,1-1.14-1.13A1.14,1.14,0,0,1,276.19,134.83Z"/><rect class="cls-1" x="278.25" y="133.7" width="2.27" height="2.27"/><path class="cls-9" d="M280.52,134.83a1.14,1.14,0,1,1-1.13-1.13A1.14,1.14,0,0,1,280.52,134.83Z"/><rect class="cls-1" x="282.58" y="133.7" width="2.27" height="2.27"/><path class="cls-9" d="M284.86,134.83a1.14,1.14,0,1,1-1.14-1.13A1.14,1.14,0,0,1,284.86,134.83Z"/><rect class="cls-1" x="286.92" y="133.7" width="2.27" height="2.27"/><path class="cls-9" d="M289.19,134.83a1.14,1.14,0,1,1-1.13-1.13A1.14,1.14,0,0,1,289.19,134.83Z"/><rect class="cls-1" x="291.25" y="133.7" width="2.27" height="2.27"/><path class="cls-9" d="M293.53,134.83a1.14,1.14,0,1,1-1.14-1.13A1.14,1.14,0,0,1,293.53,134.83Z"/><rect class="cls-1" x="295.59" y="133.7" width="2.27" height="2.27"/><path class="cls-9" d="M297.86,134.83a1.14,1.14,0,1,1-1.13-1.13A1.14,1.14,0,0,1,297.86,134.83Z"/><rect class="cls-1" x="299.92" y="133.7" width="2.27" height="2.27"/><path class="cls-9" d="M302.2,134.83a1.14,1.14,0,1,1-1.14-1.13A1.14,1.14,0,0,1,302.2,134.83Z"/><rect class="cls-1" x="304.26" y="133.7" width="2.27" height="2.27"/><path class="cls-9" d="M306.53,134.83a1.14,1.14,0,1,1-1.14-1.13A1.14,1.14,0,0,1,306.53,134.83Z"/><rect class="cls-1" x="308.59" y="133.7" width="2.27" height="2.27"/><path class="cls-9" d="M310.87,134.83a1.14,1.14,0,1,1-1.14-1.13A1.14,1.14,0,0,1,310.87,134.83Z"/><rect class="cls-1" x="312.93" y="133.7" width="2.27" height="2.27"/><path class="cls-9" d="M315.2,134.83a1.14,1.14,0,1,1-1.14-1.13A1.14,1.14,0,0,1,315.2,134.83Z"/><rect class="cls-1" x="317.26" y="133.7" width="2.27" height="2.27"/><path class="cls-9" d="M319.54,134.83a1.14,1.14,0,1,1-1.14-1.13A1.14,1.14,0,0,1,319.54,134.83Z"/><rect class="cls-1" x="321.6" y="133.7" width="2.27" height="2.27"/><path class="cls-9" d="M323.87,134.83a1.14,1.14,0,1,1-1.14-1.13A1.14,1.14,0,0,1,323.87,134.83Z"/><rect class="cls-1" x="325.93" y="133.7" width="2.27" height="2.27"/><path class="cls-9" d="M328.21,134.83a1.14,1.14,0,1,1-1.14-1.13A1.14,1.14,0,0,1,328.21,134.83Z"/><rect class="cls-1" x="330.27" y="133.7" width="2.27" height="2.27"/><path class="cls-9" d="M332.54,134.83a1.14,1.14,0,1,1-1.14-1.13A1.14,1.14,0,0,1,332.54,134.83Z"/><rect class="cls-1" x="334.6" y="133.7" width="2.27" height="2.27"/><path class="cls-9" d="M336.88,134.83a1.14,1.14,0,1,1-1.14-1.13A1.14,1.14,0,0,1,336.88,134.83Z"/><rect class="cls-1" x="338.94" y="133.7" width="2.27" height="2.27"/><path class="cls-9" d="M341.21,134.83a1.14,1.14,0,1,1-1.14-1.13A1.14,1.14,0,0,1,341.21,134.83Z"/><rect class="cls-8" x="121.04" y="118.17" width="0.76" height="2.06"/><rect class="cls-1" x="121.16" y="117.4" width="4.34" height="3.6"/><rect class="cls-1" x="122.19" y="118.06" width="2.27" height="2.27"/><path class="cls-9" d="M124.47,119.2a1.14,1.14,0,1,1-1.14-1.14A1.14,1.14,0,0,1,124.47,119.2Z"/><rect class="cls-1" x="126.53" y="118.06" width="2.27" height="2.27"/><path class="cls-9" d="M128.8,119.2a1.14,1.14,0,1,1-1.13-1.14A1.14,1.14,0,0,1,128.8,119.2Z"/><rect class="cls-1" x="130.86" y="118.06" width="2.27" height="2.27"/><path class="cls-9" d="M133.14,119.2a1.14,1.14,0,1,1-1.14-1.14A1.14,1.14,0,0,1,133.14,119.2Z"/><rect class="cls-1" x="135.2" y="118.06" width="2.27" height="2.27"/><path class="cls-9" d="M137.47,119.2a1.14,1.14,0,1,1-1.13-1.14A1.14,1.14,0,0,1,137.47,119.2Z"/><rect class="cls-1" x="139.53" y="118.06" width="2.27" height="2.27"/><path class="cls-9" d="M141.81,119.2a1.14,1.14,0,1,1-1.14-1.14A1.14,1.14,0,0,1,141.81,119.2Z"/><rect class="cls-1" x="143.87" y="118.06" width="2.27" height="2.27"/><path class="cls-9" d="M146.14,119.2a1.14,1.14,0,1,1-1.13-1.14A1.14,1.14,0,0,1,146.14,119.2Z"/><rect class="cls-1" x="148.2" y="118.06" width="2.27" height="2.27"/><path class="cls-9" d="M150.48,119.2a1.14,1.14,0,1,1-1.14-1.14A1.14,1.14,0,0,1,150.48,119.2Z"/><rect class="cls-1" x="152.54" y="118.06" width="2.27" height="2.27"/><path class="cls-9" d="M154.81,119.2a1.14,1.14,0,1,1-1.13-1.14A1.14,1.14,0,0,1,154.81,119.2Z"/><rect class="cls-1" x="156.87" y="118.06" width="2.27" height="2.27"/><path class="cls-9" d="M159.15,119.2a1.14,1.14,0,1,1-1.14-1.14A1.14,1.14,0,0,1,159.15,119.2Z"/><rect class="cls-1" x="161.21" y="118.06" width="2.27" height="2.27"/><path class="cls-9" d="M163.48,119.2a1.14,1.14,0,1,1-1.13-1.14A1.14,1.14,0,0,1,163.48,119.2Z"/><rect class="cls-1" x="165.54" y="118.06" width="2.27" height="2.27"/><path class="cls-9" d="M167.82,119.2a1.14,1.14,0,1,1-1.14-1.14A1.14,1.14,0,0,1,167.82,119.2Z"/><rect class="cls-1" x="169.88" y="118.06" width="2.27" height="2.27"/><path class="cls-9" d="M172.15,119.2a1.14,1.14,0,1,1-1.13-1.14A1.14,1.14,0,0,1,172.15,119.2Z"/><rect class="cls-1" x="174.21" y="118.06" width="2.27" height="2.27"/><path class="cls-9" d="M176.49,119.2a1.14,1.14,0,1,1-1.14-1.14A1.14,1.14,0,0,1,176.49,119.2Z"/><rect class="cls-1" x="178.55" y="118.06" width="2.27" height="2.27"/><path class="cls-9" d="M180.82,119.2a1.14,1.14,0,1,1-1.14-1.14A1.14,1.14,0,0,1,180.82,119.2Z"/><rect class="cls-1" x="182.88" y="118.06" width="2.27" height="2.27"/><path class="cls-9" d="M185.16,119.2a1.14,1.14,0,1,1-1.14-1.14A1.14,1.14,0,0,1,185.16,119.2Z"/><rect class="cls-1" x="187.22" y="118.06" width="2.27" height="2.27"/><path class="cls-9" d="M189.49,119.2a1.14,1.14,0,1,1-1.14-1.14A1.14,1.14,0,0,1,189.49,119.2Z"/><rect class="cls-1" x="191.55" y="118.06" width="2.27" height="2.27"/><path class="cls-9" d="M193.83,119.2a1.14,1.14,0,1,1-1.14-1.14A1.14,1.14,0,0,1,193.83,119.2Z"/><rect class="cls-1" x="195.89" y="118.06" width="2.27" height="2.27"/><path class="cls-9" d="M198.16,119.2a1.14,1.14,0,1,1-1.14-1.14A1.14,1.14,0,0,1,198.16,119.2Z"/><rect class="cls-1" x="200.22" y="118.06" width="2.27" height="2.27"/><path class="cls-9" d="M202.5,119.2a1.14,1.14,0,1,1-1.14-1.14A1.14,1.14,0,0,1,202.5,119.2Z"/><rect class="cls-1" x="204.56" y="118.06" width="2.27" height="2.27"/><path class="cls-9" d="M206.83,119.2a1.14,1.14,0,1,1-1.14-1.14A1.14,1.14,0,0,1,206.83,119.2Z"/><rect class="cls-1" x="208.89" y="118.06" width="2.27" height="2.27"/><path class="cls-9" d="M211.17,119.2a1.14,1.14,0,1,1-1.14-1.14A1.14,1.14,0,0,1,211.17,119.2Z"/><rect class="cls-1" x="213.23" y="118.06" width="2.27" height="2.27"/><path class="cls-9" d="M215.5,119.2a1.14,1.14,0,1,1-1.14-1.14A1.14,1.14,0,0,1,215.5,119.2Z"/><rect class="cls-1" x="217.56" y="118.06" width="2.27" height="2.27"/><path class="cls-9" d="M219.84,119.2a1.14,1.14,0,1,1-1.14-1.14A1.14,1.14,0,0,1,219.84,119.2Z"/><rect class="cls-1" x="221.9" y="118.06" width="2.27" height="2.27"/><path class="cls-9" d="M224.17,119.2a1.14,1.14,0,1,1-1.14-1.14A1.14,1.14,0,0,1,224.17,119.2Z"/><rect class="cls-1" x="226.23" y="118.06" width="2.27" height="2.27"/><path class="cls-9" d="M228.51,119.2a1.14,1.14,0,1,1-1.14-1.14A1.14,1.14,0,0,1,228.51,119.2Z"/><rect class="cls-1" x="230.57" y="118.06" width="2.27" height="2.27"/><path class="cls-9" d="M232.84,119.2a1.14,1.14,0,1,1-1.14-1.14A1.14,1.14,0,0,1,232.84,119.2Z"/><rect class="cls-1" x="234.9" y="118.06" width="2.27" height="2.27"/><path class="cls-9" d="M237.18,119.2a1.14,1.14,0,1,1-1.14-1.14A1.14,1.14,0,0,1,237.18,119.2Z"/><rect class="cls-1" x="239.24" y="118.06" width="2.27" height="2.27"/><path class="cls-9" d="M241.51,119.2a1.14,1.14,0,1,1-1.14-1.14A1.14,1.14,0,0,1,241.51,119.2Z"/><rect class="cls-1" x="243.57" y="118.06" width="2.27" height="2.27"/><path class="cls-9" d="M245.84,119.2a1.14,1.14,0,1,1-1.13-1.14A1.13,1.13,0,0,1,245.84,119.2Z"/><rect class="cls-1" x="247.9" y="118.06" width="2.27" height="2.27"/><path class="cls-9" d="M250.18,119.2a1.14,1.14,0,1,1-1.14-1.14A1.14,1.14,0,0,1,250.18,119.2Z"/><rect class="cls-1" x="252.24" y="118.06" width="2.27" height="2.27"/><path class="cls-9" d="M254.51,119.2a1.14,1.14,0,1,1-1.13-1.14A1.14,1.14,0,0,1,254.51,119.2Z"/><rect class="cls-1" x="256.57" y="118.06" width="2.27" height="2.27"/><path class="cls-9" d="M258.85,119.2a1.14,1.14,0,1,1-1.14-1.14A1.14,1.14,0,0,1,258.85,119.2Z"/><rect class="cls-1" x="260.91" y="118.06" width="2.27" height="2.27"/><path class="cls-9" d="M263.18,119.2a1.14,1.14,0,1,1-1.13-1.14A1.14,1.14,0,0,1,263.18,119.2Z"/><rect class="cls-1" x="265.24" y="118.06" width="2.27" height="2.27"/><path class="cls-9" d="M267.52,119.2a1.14,1.14,0,1,1-1.14-1.14A1.14,1.14,0,0,1,267.52,119.2Z"/><rect class="cls-1" x="269.58" y="118.06" width="2.27" height="2.27"/><path class="cls-9" d="M271.85,119.2a1.14,1.14,0,1,1-1.13-1.14A1.14,1.14,0,0,1,271.85,119.2Z"/><rect class="cls-1" x="273.91" y="118.06" width="2.27" height="2.27"/><path class="cls-9" d="M276.19,119.2a1.14,1.14,0,1,1-1.14-1.14A1.14,1.14,0,0,1,276.19,119.2Z"/><rect class="cls-1" x="278.25" y="118.06" width="2.27" height="2.27"/><path class="cls-9" d="M280.52,119.2a1.14,1.14,0,1,1-1.13-1.14A1.14,1.14,0,0,1,280.52,119.2Z"/><rect class="cls-1" x="282.58" y="118.06" width="2.27" height="2.27"/><path class="cls-9" d="M284.86,119.2a1.14,1.14,0,1,1-1.14-1.14A1.14,1.14,0,0,1,284.86,119.2Z"/><rect class="cls-1" x="286.92" y="118.06" width="2.27" height="2.27"/><path class="cls-9" d="M289.19,119.2a1.14,1.14,0,1,1-1.13-1.14A1.14,1.14,0,0,1,289.19,119.2Z"/><rect class="cls-1" x="291.25" y="118.06" width="2.27" height="2.27"/><path class="cls-9" d="M293.53,119.2a1.14,1.14,0,1,1-1.14-1.14A1.14,1.14,0,0,1,293.53,119.2Z"/><rect class="cls-1" x="295.59" y="118.06" width="2.27" height="2.27"/><path class="cls-9" d="M297.86,119.2a1.14,1.14,0,1,1-1.13-1.14A1.14,1.14,0,0,1,297.86,119.2Z"/><rect class="cls-1" x="299.92" y="118.06" width="2.27" height="2.27"/><path class="cls-9" d="M302.2,119.2a1.14,1.14,0,1,1-1.14-1.14A1.14,1.14,0,0,1,302.2,119.2Z"/><rect class="cls-1" x="304.26" y="118.06" width="2.27" height="2.27"/><path class="cls-9" d="M306.53,119.2a1.14,1.14,0,1,1-1.14-1.14A1.14,1.14,0,0,1,306.53,119.2Z"/><rect class="cls-1" x="308.59" y="118.06" width="2.27" height="2.27"/><path class="cls-9" d="M310.87,119.2a1.14,1.14,0,1,1-1.14-1.14A1.14,1.14,0,0,1,310.87,119.2Z"/><rect class="cls-1" x="312.93" y="118.06" width="2.27" height="2.27"/><path class="cls-9" d="M315.2,119.2a1.14,1.14,0,1,1-1.14-1.14A1.14,1.14,0,0,1,315.2,119.2Z"/><rect class="cls-1" x="317.26" y="118.06" width="2.27" height="2.27"/><path class="cls-9" d="M319.54,119.2a1.14,1.14,0,1,1-1.14-1.14A1.14,1.14,0,0,1,319.54,119.2Z"/><rect class="cls-1" x="321.6" y="118.06" width="2.27" height="2.27"/><path class="cls-9" d="M323.87,119.2a1.14,1.14,0,1,1-1.14-1.14A1.14,1.14,0,0,1,323.87,119.2Z"/><rect class="cls-1" x="325.93" y="118.06" width="2.27" height="2.27"/><path class="cls-9" d="M328.21,119.2a1.14,1.14,0,1,1-1.14-1.14A1.14,1.14,0,0,1,328.21,119.2Z"/><rect class="cls-1" x="330.27" y="118.06" width="2.27" height="2.27"/><path class="cls-9" d="M332.54,119.2a1.14,1.14,0,1,1-1.14-1.14A1.14,1.14,0,0,1,332.54,119.2Z"/><rect class="cls-1" x="334.6" y="118.06" width="2.27" height="2.27"/><path class="cls-9" d="M336.88,119.2a1.14,1.14,0,1,1-1.14-1.14A1.14,1.14,0,0,1,336.88,119.2Z"/><rect class="cls-1" x="338.94" y="118.06" width="2.27" height="2.27"/><path class="cls-9" d="M341.21,119.2a1.14,1.14,0,1,1-1.14-1.14A1.14,1.14,0,0,1,341.21,119.2Z"/><rect class="cls-8" x="121.04" y="86.12" width="0.76" height="2.06"/><rect class="cls-1" x="121.16" y="85.35" width="4.34" height="3.6"/><rect class="cls-1" x="122.19" y="86.01" width="2.27" height="2.27"/><path class="cls-9" d="M124.47,87.15A1.14,1.14,0,1,1,123.33,86,1.13,1.13,0,0,1,124.47,87.15Z"/><rect class="cls-1" x="126.53" y="86.01" width="2.27" height="2.27"/><path class="cls-9" d="M128.8,87.15A1.14,1.14,0,1,1,127.67,86,1.14,1.14,0,0,1,128.8,87.15Z"/><rect class="cls-1" x="130.86" y="86.01" width="2.27" height="2.27"/><path class="cls-9" d="M133.14,87.15A1.14,1.14,0,1,1,132,86,1.14,1.14,0,0,1,133.14,87.15Z"/><rect class="cls-1" x="135.2" y="86.01" width="2.27" height="2.27"/><path class="cls-9" d="M137.47,87.15A1.14,1.14,0,1,1,136.34,86,1.14,1.14,0,0,1,137.47,87.15Z"/><rect class="cls-1" x="139.53" y="86.01" width="2.27" height="2.27"/><path class="cls-9" d="M141.81,87.15A1.14,1.14,0,1,1,140.67,86,1.14,1.14,0,0,1,141.81,87.15Z"/><rect class="cls-1" x="143.87" y="86.01" width="2.27" height="2.27"/><path class="cls-9" d="M146.14,87.15A1.14,1.14,0,1,1,145,86,1.14,1.14,0,0,1,146.14,87.15Z"/><rect class="cls-1" x="148.2" y="86.01" width="2.27" height="2.27"/><path class="cls-9" d="M150.48,87.15A1.14,1.14,0,1,1,149.34,86,1.14,1.14,0,0,1,150.48,87.15Z"/><rect class="cls-1" x="152.54" y="86.01" width="2.27" height="2.27"/><path class="cls-9" d="M154.81,87.15A1.14,1.14,0,1,1,153.68,86,1.14,1.14,0,0,1,154.81,87.15Z"/><rect class="cls-1" x="156.87" y="86.01" width="2.27" height="2.27"/><path class="cls-9" d="M159.15,87.15A1.14,1.14,0,1,1,158,86,1.14,1.14,0,0,1,159.15,87.15Z"/><rect class="cls-1" x="161.21" y="86.01" width="2.27" height="2.27"/><path class="cls-9" d="M163.48,87.15A1.14,1.14,0,1,1,162.35,86,1.14,1.14,0,0,1,163.48,87.15Z"/><rect class="cls-1" x="165.54" y="86.01" width="2.27" height="2.27"/><path class="cls-9" d="M167.82,87.15A1.14,1.14,0,1,1,166.68,86,1.14,1.14,0,0,1,167.82,87.15Z"/><rect class="cls-1" x="169.88" y="86.01" width="2.27" height="2.27"/><path class="cls-9" d="M172.15,87.15A1.14,1.14,0,1,1,171,86,1.14,1.14,0,0,1,172.15,87.15Z"/><rect class="cls-1" x="174.21" y="86.01" width="2.27" height="2.27"/><path class="cls-9" d="M176.49,87.15A1.14,1.14,0,1,1,175.35,86,1.14,1.14,0,0,1,176.49,87.15Z"/><rect class="cls-1" x="178.55" y="86.01" width="2.27" height="2.27"/><path class="cls-9" d="M180.82,87.15A1.14,1.14,0,1,1,179.68,86,1.14,1.14,0,0,1,180.82,87.15Z"/><rect class="cls-1" x="182.88" y="86.01" width="2.27" height="2.27"/><path class="cls-9" d="M185.16,87.15A1.14,1.14,0,1,1,184,86,1.14,1.14,0,0,1,185.16,87.15Z"/><rect class="cls-1" x="187.22" y="86.01" width="2.27" height="2.27"/><path class="cls-9" d="M189.49,87.15A1.14,1.14,0,1,1,188.35,86,1.14,1.14,0,0,1,189.49,87.15Z"/><rect class="cls-1" x="191.55" y="86.01" width="2.27" height="2.27"/><path class="cls-9" d="M193.83,87.15A1.14,1.14,0,1,1,192.69,86,1.14,1.14,0,0,1,193.83,87.15Z"/><rect class="cls-1" x="195.89" y="86.01" width="2.27" height="2.27"/><path class="cls-9" d="M198.16,87.15A1.14,1.14,0,1,1,197,86,1.14,1.14,0,0,1,198.16,87.15Z"/><rect class="cls-1" x="200.22" y="86.01" width="2.27" height="2.27"/><path class="cls-9" d="M202.5,87.15A1.14,1.14,0,1,1,201.36,86,1.14,1.14,0,0,1,202.5,87.15Z"/><rect class="cls-1" x="204.56" y="86.01" width="2.27" height="2.27"/><path class="cls-9" d="M206.83,87.15A1.14,1.14,0,1,1,205.69,86,1.14,1.14,0,0,1,206.83,87.15Z"/><rect class="cls-1" x="208.89" y="86.01" width="2.27" height="2.27"/><path class="cls-9" d="M211.17,87.15A1.14,1.14,0,1,1,210,86,1.14,1.14,0,0,1,211.17,87.15Z"/><rect class="cls-1" x="213.23" y="86.01" width="2.27" height="2.27"/><path class="cls-9" d="M215.5,87.15A1.14,1.14,0,1,1,214.36,86,1.14,1.14,0,0,1,215.5,87.15Z"/><rect class="cls-1" x="217.56" y="86.01" width="2.27" height="2.27"/><path class="cls-9" d="M219.84,87.15A1.14,1.14,0,1,1,218.7,86,1.14,1.14,0,0,1,219.84,87.15Z"/><rect class="cls-1" x="221.9" y="86.01" width="2.27" height="2.27"/><path class="cls-9" d="M224.17,87.15A1.14,1.14,0,1,1,223,86,1.14,1.14,0,0,1,224.17,87.15Z"/><rect class="cls-1" x="226.23" y="86.01" width="2.27" height="2.27"/><path class="cls-9" d="M228.51,87.15A1.14,1.14,0,1,1,227.37,86,1.14,1.14,0,0,1,228.51,87.15Z"/><rect class="cls-1" x="230.57" y="86.01" width="2.27" height="2.27"/><path class="cls-9" d="M232.84,87.15A1.14,1.14,0,1,1,231.7,86,1.14,1.14,0,0,1,232.84,87.15Z"/><rect class="cls-1" x="234.9" y="86.01" width="2.27" height="2.27"/><path class="cls-9" d="M237.18,87.15A1.14,1.14,0,1,1,236,86,1.14,1.14,0,0,1,237.18,87.15Z"/><rect class="cls-1" x="239.24" y="86.01" width="2.27" height="2.27"/><path class="cls-9" d="M241.51,87.15A1.14,1.14,0,1,1,240.37,86,1.14,1.14,0,0,1,241.51,87.15Z"/><rect class="cls-1" x="243.57" y="86.01" width="2.27" height="2.27"/><path class="cls-9" d="M245.84,87.15A1.14,1.14,0,1,1,244.71,86,1.13,1.13,0,0,1,245.84,87.15Z"/><rect class="cls-1" x="247.9" y="86.01" width="2.27" height="2.27"/><path class="cls-9" d="M250.18,87.15A1.14,1.14,0,1,1,249,86,1.14,1.14,0,0,1,250.18,87.15Z"/><rect class="cls-1" x="252.24" y="86.01" width="2.27" height="2.27"/><path class="cls-9" d="M254.51,87.15A1.14,1.14,0,1,1,253.38,86,1.14,1.14,0,0,1,254.51,87.15Z"/><rect class="cls-1" x="256.57" y="86.01" width="2.27" height="2.27"/><path class="cls-9" d="M258.85,87.15A1.14,1.14,0,1,1,257.71,86,1.14,1.14,0,0,1,258.85,87.15Z"/><rect class="cls-1" x="260.91" y="86.01" width="2.27" height="2.27"/><path class="cls-9" d="M263.18,87.15A1.14,1.14,0,1,1,262.05,86,1.14,1.14,0,0,1,263.18,87.15Z"/><rect class="cls-1" x="265.24" y="86.01" width="2.27" height="2.27"/><path class="cls-9" d="M267.52,87.15A1.14,1.14,0,1,1,266.38,86,1.14,1.14,0,0,1,267.52,87.15Z"/><rect class="cls-1" x="269.58" y="86.01" width="2.27" height="2.27"/><path class="cls-9" d="M271.85,87.15A1.14,1.14,0,1,1,270.72,86,1.14,1.14,0,0,1,271.85,87.15Z"/><rect class="cls-1" x="273.91" y="86.01" width="2.27" height="2.27"/><path class="cls-9" d="M276.19,87.15A1.14,1.14,0,1,1,275.05,86,1.14,1.14,0,0,1,276.19,87.15Z"/><rect class="cls-1" x="278.25" y="86.01" width="2.27" height="2.27"/><path class="cls-9" d="M280.52,87.15A1.14,1.14,0,1,1,279.39,86,1.14,1.14,0,0,1,280.52,87.15Z"/><rect class="cls-1" x="282.58" y="86.01" width="2.27" height="2.27"/><path class="cls-9" d="M284.86,87.15A1.14,1.14,0,1,1,283.72,86,1.14,1.14,0,0,1,284.86,87.15Z"/><rect class="cls-1" x="286.92" y="86.01" width="2.27" height="2.27"/><path class="cls-9" d="M289.19,87.15A1.14,1.14,0,1,1,288.06,86,1.14,1.14,0,0,1,289.19,87.15Z"/><rect class="cls-1" x="291.25" y="86.01" width="2.27" height="2.27"/><path class="cls-9" d="M293.53,87.15A1.14,1.14,0,1,1,292.39,86,1.14,1.14,0,0,1,293.53,87.15Z"/><rect class="cls-1" x="295.59" y="86.01" width="2.27" height="2.27"/><path class="cls-9" d="M297.86,87.15A1.14,1.14,0,1,1,296.73,86,1.14,1.14,0,0,1,297.86,87.15Z"/><rect class="cls-1" x="299.92" y="86.01" width="2.27" height="2.27"/><path class="cls-9" d="M302.2,87.15A1.14,1.14,0,1,1,301.06,86,1.14,1.14,0,0,1,302.2,87.15Z"/><rect class="cls-1" x="304.26" y="86.01" width="2.27" height="2.27"/><path class="cls-9" d="M306.53,87.15A1.14,1.14,0,1,1,305.39,86,1.14,1.14,0,0,1,306.53,87.15Z"/><rect class="cls-1" x="308.59" y="86.01" width="2.27" height="2.27"/><path class="cls-9" d="M310.87,87.15A1.14,1.14,0,1,1,309.73,86,1.14,1.14,0,0,1,310.87,87.15Z"/><rect class="cls-1" x="312.93" y="86.01" width="2.27" height="2.27"/><path class="cls-9" d="M315.2,87.15A1.14,1.14,0,1,1,314.06,86,1.14,1.14,0,0,1,315.2,87.15Z"/><rect class="cls-1" x="317.26" y="86.01" width="2.27" height="2.27"/><path class="cls-9" d="M319.54,87.15A1.14,1.14,0,1,1,318.4,86,1.14,1.14,0,0,1,319.54,87.15Z"/><rect class="cls-1" x="321.6" y="86.01" width="2.27" height="2.27"/><path class="cls-9" d="M323.87,87.15A1.14,1.14,0,1,1,322.73,86,1.14,1.14,0,0,1,323.87,87.15Z"/><rect class="cls-1" x="325.93" y="86.01" width="2.27" height="2.27"/><path class="cls-9" d="M328.21,87.15A1.14,1.14,0,1,1,327.07,86,1.14,1.14,0,0,1,328.21,87.15Z"/><rect class="cls-1" x="330.27" y="86.01" width="2.27" height="2.27"/><path class="cls-9" d="M332.54,87.15A1.14,1.14,0,1,1,331.4,86,1.14,1.14,0,0,1,332.54,87.15Z"/><rect class="cls-1" x="334.6" y="86.01" width="2.27" height="2.27"/><path class="cls-9" d="M336.88,87.15A1.14,1.14,0,1,1,335.74,86,1.14,1.14,0,0,1,336.88,87.15Z"/><rect class="cls-1" x="338.94" y="86.01" width="2.27" height="2.27"/><path class="cls-9" d="M341.21,87.15A1.14,1.14,0,1,1,340.07,86,1.14,1.14,0,0,1,341.21,87.15Z"/><rect class="cls-8" x="121.04" y="102.04" width="0.76" height="2.06"/><rect class="cls-1" x="121.16" y="101.27" width="4.34" height="3.6"/><rect class="cls-1" x="122.19" y="101.93" width="2.27" height="2.27"/><path class="cls-9" d="M124.47,103.07a1.14,1.14,0,1,1-1.14-1.14A1.14,1.14,0,0,1,124.47,103.07Z"/><rect class="cls-1" x="126.53" y="101.93" width="2.27" height="2.27"/><path class="cls-9" d="M128.8,103.07a1.14,1.14,0,1,1-1.13-1.14A1.14,1.14,0,0,1,128.8,103.07Z"/><rect class="cls-1" x="130.86" y="101.93" width="2.27" height="2.27"/><path class="cls-9" d="M133.14,103.07a1.14,1.14,0,1,1-1.14-1.14A1.15,1.15,0,0,1,133.14,103.07Z"/><rect class="cls-1" x="135.2" y="101.93" width="2.27" height="2.27"/><path class="cls-9" d="M137.47,103.07a1.14,1.14,0,1,1-1.13-1.14A1.14,1.14,0,0,1,137.47,103.07Z"/><rect class="cls-1" x="139.53" y="101.93" width="2.27" height="2.27"/><path class="cls-9" d="M141.81,103.07a1.14,1.14,0,1,1-1.14-1.14A1.15,1.15,0,0,1,141.81,103.07Z"/><rect class="cls-1" x="143.87" y="101.93" width="2.27" height="2.27"/><path class="cls-9" d="M146.14,103.07a1.14,1.14,0,1,1-1.13-1.14A1.14,1.14,0,0,1,146.14,103.07Z"/><rect class="cls-1" x="148.2" y="101.93" width="2.27" height="2.27"/><path class="cls-9" d="M150.48,103.07a1.14,1.14,0,1,1-1.14-1.14A1.15,1.15,0,0,1,150.48,103.07Z"/><rect class="cls-1" x="152.54" y="101.93" width="2.27" height="2.27"/><path class="cls-9" d="M154.81,103.07a1.14,1.14,0,1,1-1.13-1.14A1.14,1.14,0,0,1,154.81,103.07Z"/><rect class="cls-1" x="156.87" y="101.93" width="2.27" height="2.27"/><path class="cls-9" d="M159.15,103.07a1.14,1.14,0,1,1-1.14-1.14A1.15,1.15,0,0,1,159.15,103.07Z"/><rect class="cls-1" x="161.21" y="101.93" width="2.27" height="2.27"/><path class="cls-9" d="M163.48,103.07a1.14,1.14,0,1,1-1.13-1.14A1.14,1.14,0,0,1,163.48,103.07Z"/><rect class="cls-1" x="165.54" y="101.93" width="2.27" height="2.27"/><path class="cls-9" d="M167.82,103.07a1.14,1.14,0,1,1-1.14-1.14A1.15,1.15,0,0,1,167.82,103.07Z"/><rect class="cls-1" x="169.88" y="101.93" width="2.27" height="2.27"/><path class="cls-9" d="M172.15,103.07a1.14,1.14,0,1,1-1.13-1.14A1.14,1.14,0,0,1,172.15,103.07Z"/><rect class="cls-1" x="174.21" y="101.93" width="2.27" height="2.27"/><path class="cls-9" d="M176.49,103.07a1.14,1.14,0,1,1-1.14-1.14A1.15,1.15,0,0,1,176.49,103.07Z"/><rect class="cls-1" x="178.55" y="101.93" width="2.27" height="2.27"/><path class="cls-9" d="M180.82,103.07a1.14,1.14,0,1,1-1.14-1.14A1.15,1.15,0,0,1,180.82,103.07Z"/><rect class="cls-1" x="182.88" y="101.93" width="2.27" height="2.27"/><path class="cls-9" d="M185.16,103.07a1.14,1.14,0,1,1-1.14-1.14A1.15,1.15,0,0,1,185.16,103.07Z"/><rect class="cls-1" x="187.22" y="101.93" width="2.27" height="2.27"/><path class="cls-9" d="M189.49,103.07a1.14,1.14,0,1,1-1.14-1.14A1.15,1.15,0,0,1,189.49,103.07Z"/><rect class="cls-1" x="191.55" y="101.93" width="2.27" height="2.27"/><path class="cls-9" d="M193.83,103.07a1.14,1.14,0,1,1-1.14-1.14A1.15,1.15,0,0,1,193.83,103.07Z"/><rect class="cls-1" x="195.89" y="101.93" width="2.27" height="2.27"/><path class="cls-9" d="M198.16,103.07a1.14,1.14,0,1,1-1.14-1.14A1.15,1.15,0,0,1,198.16,103.07Z"/><rect class="cls-1" x="200.22" y="101.93" width="2.27" height="2.27"/><path class="cls-9" d="M202.5,103.07a1.14,1.14,0,1,1-1.14-1.14A1.15,1.15,0,0,1,202.5,103.07Z"/><rect class="cls-1" x="204.56" y="101.93" width="2.27" height="2.27"/><path class="cls-9" d="M206.83,103.07a1.14,1.14,0,1,1-1.14-1.14A1.15,1.15,0,0,1,206.83,103.07Z"/><rect class="cls-1" x="208.89" y="101.93" width="2.27" height="2.27"/><path class="cls-9" d="M211.17,103.07a1.14,1.14,0,1,1-1.14-1.14A1.15,1.15,0,0,1,211.17,103.07Z"/><rect class="cls-1" x="213.23" y="101.93" width="2.27" height="2.27"/><path class="cls-9" d="M215.5,103.07a1.14,1.14,0,1,1-1.14-1.14A1.15,1.15,0,0,1,215.5,103.07Z"/><rect class="cls-1" x="217.56" y="101.93" width="2.27" height="2.27"/><path class="cls-9" d="M219.84,103.07a1.14,1.14,0,1,1-1.14-1.14A1.15,1.15,0,0,1,219.84,103.07Z"/><rect class="cls-1" x="221.9" y="101.93" width="2.27" height="2.27"/><path class="cls-9" d="M224.17,103.07a1.14,1.14,0,1,1-2.27,0,1.14,1.14,0,1,1,2.27,0Z"/><rect class="cls-1" x="226.23" y="101.93" width="2.27" height="2.27"/><path class="cls-9" d="M228.51,103.07a1.14,1.14,0,1,1-1.14-1.14A1.15,1.15,0,0,1,228.51,103.07Z"/><rect class="cls-1" x="230.57" y="101.93" width="2.27" height="2.27"/><path class="cls-9" d="M232.84,103.07a1.14,1.14,0,1,1-2.27,0,1.14,1.14,0,1,1,2.27,0Z"/><rect class="cls-1" x="234.9" y="101.93" width="2.27" height="2.27"/><path class="cls-9" d="M237.18,103.07a1.14,1.14,0,1,1-1.14-1.14A1.15,1.15,0,0,1,237.18,103.07Z"/><rect class="cls-1" x="239.24" y="101.93" width="2.27" height="2.27"/><path class="cls-9" d="M241.51,103.07a1.14,1.14,0,1,1-2.27,0,1.14,1.14,0,1,1,2.27,0Z"/><rect class="cls-1" x="243.57" y="101.93" width="2.27" height="2.27"/><path class="cls-9" d="M245.84,103.07a1.14,1.14,0,1,1-1.13-1.14A1.14,1.14,0,0,1,245.84,103.07Z"/><rect class="cls-1" x="247.9" y="101.93" width="2.27" height="2.27"/><path class="cls-9" d="M250.18,103.07a1.14,1.14,0,1,1-1.14-1.14A1.15,1.15,0,0,1,250.18,103.07Z"/><rect class="cls-1" x="252.24" y="101.93" width="2.27" height="2.27"/><path class="cls-9" d="M254.51,103.07a1.14,1.14,0,1,1-1.13-1.14A1.14,1.14,0,0,1,254.51,103.07Z"/><rect class="cls-1" x="256.57" y="101.93" width="2.27" height="2.27"/><path class="cls-9" d="M258.85,103.07a1.14,1.14,0,1,1-1.14-1.14A1.15,1.15,0,0,1,258.85,103.07Z"/><rect class="cls-1" x="260.91" y="101.93" width="2.27" height="2.27"/><path class="cls-9" d="M263.18,103.07a1.14,1.14,0,1,1-1.13-1.14A1.14,1.14,0,0,1,263.18,103.07Z"/><rect class="cls-1" x="265.24" y="101.93" width="2.27" height="2.27"/><path class="cls-9" d="M267.52,103.07a1.14,1.14,0,1,1-1.14-1.14A1.15,1.15,0,0,1,267.52,103.07Z"/><rect class="cls-1" x="269.58" y="101.93" width="2.27" height="2.27"/><path class="cls-9" d="M271.85,103.07a1.14,1.14,0,1,1-1.13-1.14A1.14,1.14,0,0,1,271.85,103.07Z"/><rect class="cls-1" x="273.91" y="101.93" width="2.27" height="2.27"/><path class="cls-9" d="M276.19,103.07a1.14,1.14,0,1,1-1.14-1.14A1.15,1.15,0,0,1,276.19,103.07Z"/><rect class="cls-1" x="278.25" y="101.93" width="2.27" height="2.27"/><path class="cls-9" d="M280.52,103.07a1.14,1.14,0,1,1-1.13-1.14A1.14,1.14,0,0,1,280.52,103.07Z"/><rect class="cls-1" x="282.58" y="101.93" width="2.27" height="2.27"/><path class="cls-9" d="M284.86,103.07a1.14,1.14,0,1,1-1.14-1.14A1.15,1.15,0,0,1,284.86,103.07Z"/><rect class="cls-1" x="286.92" y="101.93" width="2.27" height="2.27"/><path class="cls-9" d="M289.19,103.07a1.14,1.14,0,1,1-1.13-1.14A1.14,1.14,0,0,1,289.19,103.07Z"/><rect class="cls-1" x="291.25" y="101.93" width="2.27" height="2.27"/><path class="cls-9" d="M293.53,103.07a1.14,1.14,0,1,1-1.14-1.14A1.15,1.15,0,0,1,293.53,103.07Z"/><rect class="cls-1" x="295.59" y="101.93" width="2.27" height="2.27"/><path class="cls-9" d="M297.86,103.07a1.14,1.14,0,1,1-1.13-1.14A1.14,1.14,0,0,1,297.86,103.07Z"/><rect class="cls-1" x="299.92" y="101.93" width="2.27" height="2.27"/><path class="cls-9" d="M302.2,103.07a1.14,1.14,0,1,1-1.14-1.14A1.15,1.15,0,0,1,302.2,103.07Z"/><rect class="cls-1" x="304.26" y="101.93" width="2.27" height="2.27"/><path class="cls-9" d="M306.53,103.07a1.14,1.14,0,1,1-1.14-1.14A1.15,1.15,0,0,1,306.53,103.07Z"/><rect class="cls-1" x="308.59" y="101.93" width="2.27" height="2.27"/><path class="cls-9" d="M310.87,103.07a1.14,1.14,0,1,1-1.14-1.14A1.15,1.15,0,0,1,310.87,103.07Z"/><rect class="cls-1" x="312.93" y="101.93" width="2.27" height="2.27"/><path class="cls-9" d="M315.2,103.07a1.14,1.14,0,1,1-1.14-1.14A1.15,1.15,0,0,1,315.2,103.07Z"/><rect class="cls-1" x="317.26" y="101.93" width="2.27" height="2.27"/><path class="cls-9" d="M319.54,103.07a1.14,1.14,0,1,1-1.14-1.14A1.15,1.15,0,0,1,319.54,103.07Z"/><rect class="cls-1" x="321.6" y="101.93" width="2.27" height="2.27"/><path class="cls-9" d="M323.87,103.07a1.14,1.14,0,1,1-1.14-1.14A1.15,1.15,0,0,1,323.87,103.07Z"/><rect class="cls-1" x="325.93" y="101.93" width="2.27" height="2.27"/><path class="cls-9" d="M328.21,103.07a1.14,1.14,0,1,1-1.14-1.14A1.15,1.15,0,0,1,328.21,103.07Z"/><rect class="cls-1" x="330.27" y="101.93" width="2.27" height="2.27"/><path class="cls-9" d="M332.54,103.07a1.14,1.14,0,1,1-1.14-1.14A1.15,1.15,0,0,1,332.54,103.07Z"/><rect class="cls-1" x="334.6" y="101.93" width="2.27" height="2.27"/><path class="cls-9" d="M336.88,103.07a1.14,1.14,0,1,1-1.14-1.14A1.15,1.15,0,0,1,336.88,103.07Z"/><rect class="cls-1" x="338.94" y="101.93" width="2.27" height="2.27"/><path class="cls-9" d="M341.21,103.07a1.14,1.14,0,1,1-1.14-1.14A1.15,1.15,0,0,1,341.21,103.07Z"/><rect class="cls-8" x="121.04" y="54.24" width="0.76" height="2.06"/><rect class="cls-1" x="121.16" y="53.47" width="4.34" height="3.6"/><rect class="cls-1" x="122.19" y="54.13" width="2.27" height="2.27"/><path class="cls-9" d="M124.47,55.27a1.14,1.14,0,1,1-1.14-1.14A1.14,1.14,0,0,1,124.47,55.27Z"/><rect class="cls-1" x="126.53" y="54.13" width="2.27" height="2.27"/><path class="cls-9" d="M128.8,55.27a1.14,1.14,0,1,1-1.13-1.14A1.14,1.14,0,0,1,128.8,55.27Z"/><rect class="cls-1" x="130.86" y="54.13" width="2.27" height="2.27"/><path class="cls-9" d="M133.14,55.27A1.14,1.14,0,1,1,132,54.13,1.14,1.14,0,0,1,133.14,55.27Z"/><rect class="cls-1" x="135.2" y="54.13" width="2.27" height="2.27"/><path class="cls-9" d="M137.47,55.27a1.14,1.14,0,1,1-1.13-1.14A1.14,1.14,0,0,1,137.47,55.27Z"/><rect class="cls-1" x="139.53" y="54.13" width="2.27" height="2.27"/><path class="cls-9" d="M141.81,55.27a1.14,1.14,0,1,1-1.14-1.14A1.14,1.14,0,0,1,141.81,55.27Z"/><rect class="cls-1" x="143.87" y="54.13" width="2.27" height="2.27"/><path class="cls-9" d="M146.14,55.27A1.14,1.14,0,1,1,145,54.13,1.14,1.14,0,0,1,146.14,55.27Z"/><rect class="cls-1" x="148.2" y="54.13" width="2.27" height="2.27"/><path class="cls-9" d="M150.48,55.27a1.14,1.14,0,1,1-1.14-1.14A1.14,1.14,0,0,1,150.48,55.27Z"/><rect class="cls-1" x="152.54" y="54.13" width="2.27" height="2.27"/><path class="cls-9" d="M154.81,55.27a1.14,1.14,0,1,1-1.13-1.14A1.14,1.14,0,0,1,154.81,55.27Z"/><rect class="cls-1" x="156.87" y="54.13" width="2.27" height="2.27"/><path class="cls-9" d="M159.15,55.27A1.14,1.14,0,1,1,158,54.13,1.14,1.14,0,0,1,159.15,55.27Z"/><rect class="cls-1" x="161.21" y="54.13" width="2.27" height="2.27"/><path class="cls-9" d="M163.48,55.27a1.14,1.14,0,1,1-1.13-1.14A1.14,1.14,0,0,1,163.48,55.27Z"/><rect class="cls-1" x="165.54" y="54.13" width="2.27" height="2.27"/><path class="cls-9" d="M167.82,55.27a1.14,1.14,0,1,1-1.14-1.14A1.14,1.14,0,0,1,167.82,55.27Z"/><rect class="cls-1" x="169.88" y="54.13" width="2.27" height="2.27"/><path class="cls-9" d="M172.15,55.27A1.14,1.14,0,1,1,171,54.13,1.14,1.14,0,0,1,172.15,55.27Z"/><rect class="cls-1" x="174.21" y="54.13" width="2.27" height="2.27"/><path class="cls-9" d="M176.49,55.27a1.14,1.14,0,1,1-1.14-1.14A1.14,1.14,0,0,1,176.49,55.27Z"/><rect class="cls-1" x="178.55" y="54.13" width="2.27" height="2.27"/><path class="cls-9" d="M180.82,55.27a1.14,1.14,0,1,1-1.14-1.14A1.14,1.14,0,0,1,180.82,55.27Z"/><rect class="cls-1" x="182.88" y="54.13" width="2.27" height="2.27"/><path class="cls-9" d="M185.16,55.27A1.14,1.14,0,1,1,184,54.13,1.14,1.14,0,0,1,185.16,55.27Z"/><rect class="cls-1" x="187.22" y="54.13" width="2.27" height="2.27"/><path class="cls-9" d="M189.49,55.27a1.14,1.14,0,1,1-1.14-1.14A1.14,1.14,0,0,1,189.49,55.27Z"/><rect class="cls-1" x="191.55" y="54.13" width="2.27" height="2.27"/><path class="cls-9" d="M193.83,55.27a1.14,1.14,0,1,1-1.14-1.14A1.14,1.14,0,0,1,193.83,55.27Z"/><rect class="cls-1" x="195.89" y="54.13" width="2.27" height="2.27"/><path class="cls-9" d="M198.16,55.27A1.14,1.14,0,1,1,197,54.13,1.14,1.14,0,0,1,198.16,55.27Z"/><rect class="cls-1" x="200.22" y="54.13" width="2.27" height="2.27"/><path class="cls-9" d="M202.5,55.27a1.14,1.14,0,1,1-1.14-1.14A1.14,1.14,0,0,1,202.5,55.27Z"/><rect class="cls-1" x="204.56" y="54.13" width="2.27" height="2.27"/><path class="cls-9" d="M206.83,55.27a1.14,1.14,0,1,1-1.14-1.14A1.14,1.14,0,0,1,206.83,55.27Z"/><rect class="cls-1" x="208.89" y="54.13" width="2.27" height="2.27"/><path class="cls-9" d="M211.17,55.27A1.14,1.14,0,1,1,210,54.13,1.14,1.14,0,0,1,211.17,55.27Z"/><rect class="cls-1" x="213.23" y="54.13" width="2.27" height="2.27"/><path class="cls-9" d="M215.5,55.27a1.14,1.14,0,1,1-1.14-1.14A1.14,1.14,0,0,1,215.5,55.27Z"/><rect class="cls-1" x="217.56" y="54.13" width="2.27" height="2.27"/><path class="cls-9" d="M219.84,55.27a1.14,1.14,0,1,1-1.14-1.14A1.14,1.14,0,0,1,219.84,55.27Z"/><rect class="cls-1" x="221.9" y="54.13" width="2.27" height="2.27"/><path class="cls-9" d="M224.17,55.27A1.14,1.14,0,1,1,223,54.13,1.14,1.14,0,0,1,224.17,55.27Z"/><rect class="cls-1" x="226.23" y="54.13" width="2.27" height="2.27"/><path class="cls-9" d="M228.51,55.27a1.14,1.14,0,1,1-1.14-1.14A1.14,1.14,0,0,1,228.51,55.27Z"/><rect class="cls-1" x="230.57" y="54.13" width="2.27" height="2.27"/><path class="cls-9" d="M232.84,55.27a1.14,1.14,0,1,1-1.14-1.14A1.14,1.14,0,0,1,232.84,55.27Z"/><rect class="cls-1" x="234.9" y="54.13" width="2.27" height="2.27"/><path class="cls-9" d="M237.18,55.27A1.14,1.14,0,1,1,236,54.13,1.14,1.14,0,0,1,237.18,55.27Z"/><rect class="cls-1" x="239.24" y="54.13" width="2.27" height="2.27"/><path class="cls-9" d="M241.51,55.27a1.14,1.14,0,1,1-1.14-1.14A1.14,1.14,0,0,1,241.51,55.27Z"/><rect class="cls-1" x="243.57" y="54.13" width="2.27" height="2.27"/><path class="cls-9" d="M245.84,55.27a1.14,1.14,0,1,1-1.13-1.14A1.13,1.13,0,0,1,245.84,55.27Z"/><rect class="cls-1" x="247.9" y="54.13" width="2.27" height="2.27"/><path class="cls-9" d="M250.18,55.27A1.14,1.14,0,1,1,249,54.13,1.14,1.14,0,0,1,250.18,55.27Z"/><rect class="cls-1" x="252.24" y="54.13" width="2.27" height="2.27"/><path class="cls-9" d="M254.51,55.27a1.14,1.14,0,1,1-1.13-1.14A1.14,1.14,0,0,1,254.51,55.27Z"/><rect class="cls-1" x="256.57" y="54.13" width="2.27" height="2.27"/><path class="cls-9" d="M258.85,55.27a1.14,1.14,0,1,1-1.14-1.14A1.14,1.14,0,0,1,258.85,55.27Z"/><rect class="cls-1" x="260.91" y="54.13" width="2.27" height="2.27"/><path class="cls-9" d="M263.18,55.27a1.14,1.14,0,1,1-1.13-1.14A1.14,1.14,0,0,1,263.18,55.27Z"/><rect class="cls-1" x="265.24" y="54.13" width="2.27" height="2.27"/><path class="cls-9" d="M267.52,55.27a1.14,1.14,0,1,1-1.14-1.14A1.14,1.14,0,0,1,267.52,55.27Z"/><rect class="cls-1" x="269.58" y="54.13" width="2.27" height="2.27"/><path class="cls-9" d="M271.85,55.27a1.14,1.14,0,1,1-1.13-1.14A1.14,1.14,0,0,1,271.85,55.27Z"/><rect class="cls-1" x="273.91" y="54.13" width="2.27" height="2.27"/><path class="cls-9" d="M276.19,55.27a1.14,1.14,0,1,1-1.14-1.14A1.14,1.14,0,0,1,276.19,55.27Z"/><rect class="cls-1" x="278.25" y="54.13" width="2.27" height="2.27"/><path class="cls-9" d="M280.52,55.27a1.14,1.14,0,1,1-1.13-1.14A1.14,1.14,0,0,1,280.52,55.27Z"/><rect class="cls-1" x="282.58" y="54.13" width="2.27" height="2.27"/><path class="cls-9" d="M284.86,55.27a1.14,1.14,0,1,1-1.14-1.14A1.14,1.14,0,0,1,284.86,55.27Z"/><rect class="cls-1" x="286.92" y="54.13" width="2.27" height="2.27"/><path class="cls-9" d="M289.19,55.27a1.14,1.14,0,1,1-1.13-1.14A1.14,1.14,0,0,1,289.19,55.27Z"/><rect class="cls-1" x="291.25" y="54.13" width="2.27" height="2.27"/><path class="cls-9" d="M293.53,55.27a1.14,1.14,0,1,1-1.14-1.14A1.14,1.14,0,0,1,293.53,55.27Z"/><rect class="cls-1" x="295.59" y="54.13" width="2.27" height="2.27"/><path class="cls-9" d="M297.86,55.27a1.14,1.14,0,1,1-1.13-1.14A1.14,1.14,0,0,1,297.86,55.27Z"/><rect class="cls-1" x="299.92" y="54.13" width="2.27" height="2.27"/><path class="cls-9" d="M302.2,55.27a1.14,1.14,0,1,1-1.14-1.14A1.14,1.14,0,0,1,302.2,55.27Z"/><rect class="cls-1" x="304.26" y="54.13" width="2.27" height="2.27"/><path class="cls-9" d="M306.53,55.27a1.14,1.14,0,1,1-1.14-1.14A1.14,1.14,0,0,1,306.53,55.27Z"/><rect class="cls-1" x="308.59" y="54.13" width="2.27" height="2.27"/><path class="cls-9" d="M310.87,55.27a1.14,1.14,0,1,1-1.14-1.14A1.14,1.14,0,0,1,310.87,55.27Z"/><rect class="cls-1" x="312.93" y="54.13" width="2.27" height="2.27"/><path class="cls-9" d="M315.2,55.27a1.14,1.14,0,1,1-1.14-1.14A1.14,1.14,0,0,1,315.2,55.27Z"/><rect class="cls-1" x="317.26" y="54.13" width="2.27" height="2.27"/><path class="cls-9" d="M319.54,55.27a1.14,1.14,0,1,1-1.14-1.14A1.14,1.14,0,0,1,319.54,55.27Z"/><rect class="cls-1" x="321.6" y="54.13" width="2.27" height="2.27"/><path class="cls-9" d="M323.87,55.27a1.14,1.14,0,1,1-1.14-1.14A1.14,1.14,0,0,1,323.87,55.27Z"/><rect class="cls-1" x="325.93" y="54.13" width="2.27" height="2.27"/><path class="cls-9" d="M328.21,55.27a1.14,1.14,0,1,1-1.14-1.14A1.14,1.14,0,0,1,328.21,55.27Z"/><rect class="cls-1" x="330.27" y="54.13" width="2.27" height="2.27"/><path class="cls-9" d="M332.54,55.27a1.14,1.14,0,1,1-1.14-1.14A1.14,1.14,0,0,1,332.54,55.27Z"/><rect class="cls-1" x="334.6" y="54.13" width="2.27" height="2.27"/><path class="cls-9" d="M336.88,55.27a1.14,1.14,0,1,1-1.14-1.14A1.14,1.14,0,0,1,336.88,55.27Z"/><rect class="cls-1" x="338.94" y="54.13" width="2.27" height="2.27"/><path class="cls-9" d="M341.21,55.27a1.14,1.14,0,1,1-1.14-1.14A1.14,1.14,0,0,1,341.21,55.27Z"/><rect class="cls-8" x="121.04" y="70.16" width="0.76" height="2.06"/><rect class="cls-1" x="121.16" y="69.39" width="4.34" height="3.6"/><rect class="cls-1" x="122.19" y="70.05" width="2.27" height="2.27"/><path class="cls-9" d="M124.47,71.19a1.14,1.14,0,1,1-1.14-1.14A1.14,1.14,0,0,1,124.47,71.19Z"/><rect class="cls-1" x="126.53" y="70.05" width="2.27" height="2.27"/><path class="cls-9" d="M128.8,71.19a1.14,1.14,0,1,1-1.13-1.14A1.14,1.14,0,0,1,128.8,71.19Z"/><rect class="cls-1" x="130.86" y="70.05" width="2.27" height="2.27"/><path class="cls-9" d="M133.14,71.19A1.14,1.14,0,1,1,132,70.05,1.14,1.14,0,0,1,133.14,71.19Z"/><rect class="cls-1" x="135.2" y="70.05" width="2.27" height="2.27"/><path class="cls-9" d="M137.47,71.19a1.14,1.14,0,1,1-1.13-1.14A1.14,1.14,0,0,1,137.47,71.19Z"/><rect class="cls-1" x="139.53" y="70.05" width="2.27" height="2.27"/><path class="cls-9" d="M141.81,71.19a1.14,1.14,0,1,1-1.14-1.14A1.14,1.14,0,0,1,141.81,71.19Z"/><rect class="cls-1" x="143.87" y="70.05" width="2.27" height="2.27"/><path class="cls-9" d="M146.14,71.19A1.14,1.14,0,1,1,145,70.05,1.14,1.14,0,0,1,146.14,71.19Z"/><rect class="cls-1" x="148.2" y="70.05" width="2.27" height="2.27"/><path class="cls-9" d="M150.48,71.19a1.14,1.14,0,1,1-1.14-1.14A1.14,1.14,0,0,1,150.48,71.19Z"/><rect class="cls-1" x="152.54" y="70.05" width="2.27" height="2.27"/><path class="cls-9" d="M154.81,71.19a1.14,1.14,0,1,1-1.13-1.14A1.14,1.14,0,0,1,154.81,71.19Z"/><rect class="cls-1" x="156.87" y="70.05" width="2.27" height="2.27"/><path class="cls-9" d="M159.15,71.19A1.14,1.14,0,1,1,158,70.05,1.14,1.14,0,0,1,159.15,71.19Z"/><rect class="cls-1" x="161.21" y="70.05" width="2.27" height="2.27"/><path class="cls-9" d="M163.48,71.19a1.14,1.14,0,1,1-1.13-1.14A1.14,1.14,0,0,1,163.48,71.19Z"/><rect class="cls-1" x="165.54" y="70.05" width="2.27" height="2.27"/><path class="cls-9" d="M167.82,71.19a1.14,1.14,0,1,1-1.14-1.14A1.14,1.14,0,0,1,167.82,71.19Z"/><rect class="cls-1" x="169.88" y="70.05" width="2.27" height="2.27"/><path class="cls-9" d="M172.15,71.19A1.14,1.14,0,1,1,171,70.05,1.14,1.14,0,0,1,172.15,71.19Z"/><rect class="cls-1" x="174.21" y="70.05" width="2.27" height="2.27"/><path class="cls-9" d="M176.49,71.19a1.14,1.14,0,1,1-1.14-1.14A1.14,1.14,0,0,1,176.49,71.19Z"/><rect class="cls-1" x="178.55" y="70.05" width="2.27" height="2.27"/><path class="cls-9" d="M180.82,71.19a1.14,1.14,0,1,1-1.14-1.14A1.14,1.14,0,0,1,180.82,71.19Z"/><rect class="cls-1" x="182.88" y="70.05" width="2.27" height="2.27"/><path class="cls-9" d="M185.16,71.19A1.14,1.14,0,1,1,184,70.05,1.14,1.14,0,0,1,185.16,71.19Z"/><rect class="cls-1" x="187.22" y="70.05" width="2.27" height="2.27"/><path class="cls-9" d="M189.49,71.19a1.14,1.14,0,1,1-1.14-1.14A1.14,1.14,0,0,1,189.49,71.19Z"/><rect class="cls-1" x="191.55" y="70.05" width="2.27" height="2.27"/><path class="cls-9" d="M193.83,71.19a1.14,1.14,0,1,1-1.14-1.14A1.14,1.14,0,0,1,193.83,71.19Z"/><rect class="cls-1" x="195.89" y="70.05" width="2.27" height="2.27"/><path class="cls-9" d="M198.16,71.19A1.14,1.14,0,1,1,197,70.05,1.14,1.14,0,0,1,198.16,71.19Z"/><rect class="cls-1" x="200.22" y="70.05" width="2.27" height="2.27"/><path class="cls-9" d="M202.5,71.19a1.14,1.14,0,1,1-1.14-1.14A1.14,1.14,0,0,1,202.5,71.19Z"/><rect class="cls-1" x="204.56" y="70.05" width="2.27" height="2.27"/><path class="cls-9" d="M206.83,71.19a1.14,1.14,0,1,1-1.14-1.14A1.14,1.14,0,0,1,206.83,71.19Z"/><rect class="cls-1" x="208.89" y="70.05" width="2.27" height="2.27"/><path class="cls-9" d="M211.17,71.19A1.14,1.14,0,1,1,210,70.05,1.14,1.14,0,0,1,211.17,71.19Z"/><rect class="cls-1" x="213.23" y="70.05" width="2.27" height="2.27"/><path class="cls-9" d="M215.5,71.19a1.14,1.14,0,1,1-1.14-1.14A1.14,1.14,0,0,1,215.5,71.19Z"/><rect class="cls-1" x="217.56" y="70.05" width="2.27" height="2.27"/><path class="cls-9" d="M219.84,71.19a1.14,1.14,0,1,1-1.14-1.14A1.14,1.14,0,0,1,219.84,71.19Z"/><rect class="cls-1" x="221.9" y="70.05" width="2.27" height="2.27"/><path class="cls-9" d="M224.17,71.19A1.14,1.14,0,1,1,223,70.05,1.14,1.14,0,0,1,224.17,71.19Z"/><rect class="cls-1" x="226.23" y="70.05" width="2.27" height="2.27"/><path class="cls-9" d="M228.51,71.19a1.14,1.14,0,1,1-1.14-1.14A1.14,1.14,0,0,1,228.51,71.19Z"/><rect class="cls-1" x="230.57" y="70.05" width="2.27" height="2.27"/><path class="cls-9" d="M232.84,71.19a1.14,1.14,0,1,1-1.14-1.14A1.14,1.14,0,0,1,232.84,71.19Z"/><rect class="cls-1" x="234.9" y="70.05" width="2.27" height="2.27"/><path class="cls-9" d="M237.18,71.19A1.14,1.14,0,1,1,236,70.05,1.14,1.14,0,0,1,237.18,71.19Z"/><rect class="cls-1" x="239.24" y="70.05" width="2.27" height="2.27"/><path class="cls-9" d="M241.51,71.19a1.14,1.14,0,1,1-1.14-1.14A1.14,1.14,0,0,1,241.51,71.19Z"/><rect class="cls-1" x="243.57" y="70.05" width="2.27" height="2.27"/><path class="cls-9" d="M245.84,71.19a1.14,1.14,0,1,1-1.13-1.14A1.13,1.13,0,0,1,245.84,71.19Z"/><rect class="cls-1" x="247.9" y="70.05" width="2.27" height="2.27"/><path class="cls-9" d="M250.18,71.19A1.14,1.14,0,1,1,249,70.05,1.14,1.14,0,0,1,250.18,71.19Z"/><rect class="cls-1" x="252.24" y="70.05" width="2.27" height="2.27"/><path class="cls-9" d="M254.51,71.19a1.14,1.14,0,1,1-1.13-1.14A1.14,1.14,0,0,1,254.51,71.19Z"/><rect class="cls-1" x="256.57" y="70.05" width="2.27" height="2.27"/><path class="cls-9" d="M258.85,71.19a1.14,1.14,0,1,1-1.14-1.14A1.14,1.14,0,0,1,258.85,71.19Z"/><rect class="cls-1" x="260.91" y="70.05" width="2.27" height="2.27"/><path class="cls-9" d="M263.18,71.19a1.14,1.14,0,1,1-1.13-1.14A1.14,1.14,0,0,1,263.18,71.19Z"/><rect class="cls-1" x="265.24" y="70.05" width="2.27" height="2.27"/><path class="cls-9" d="M267.52,71.19a1.14,1.14,0,1,1-1.14-1.14A1.14,1.14,0,0,1,267.52,71.19Z"/><rect class="cls-1" x="269.58" y="70.05" width="2.27" height="2.27"/><path class="cls-9" d="M271.85,71.19a1.14,1.14,0,1,1-1.13-1.14A1.14,1.14,0,0,1,271.85,71.19Z"/><rect class="cls-1" x="273.91" y="70.05" width="2.27" height="2.27"/><path class="cls-9" d="M276.19,71.19a1.14,1.14,0,1,1-1.14-1.14A1.14,1.14,0,0,1,276.19,71.19Z"/><rect class="cls-1" x="278.25" y="70.05" width="2.27" height="2.27"/><path class="cls-9" d="M280.52,71.19a1.14,1.14,0,1,1-1.13-1.14A1.14,1.14,0,0,1,280.52,71.19Z"/><rect class="cls-1" x="282.58" y="70.05" width="2.27" height="2.27"/><path class="cls-9" d="M284.86,71.19a1.14,1.14,0,1,1-1.14-1.14A1.14,1.14,0,0,1,284.86,71.19Z"/><rect class="cls-1" x="286.92" y="70.05" width="2.27" height="2.27"/><path class="cls-9" d="M289.19,71.19a1.14,1.14,0,1,1-1.13-1.14A1.14,1.14,0,0,1,289.19,71.19Z"/><rect class="cls-1" x="291.25" y="70.05" width="2.27" height="2.27"/><path class="cls-9" d="M293.53,71.19a1.14,1.14,0,1,1-1.14-1.14A1.14,1.14,0,0,1,293.53,71.19Z"/><rect class="cls-1" x="295.59" y="70.05" width="2.27" height="2.27"/><path class="cls-9" d="M297.86,71.19a1.14,1.14,0,1,1-1.13-1.14A1.14,1.14,0,0,1,297.86,71.19Z"/><rect class="cls-1" x="299.92" y="70.05" width="2.27" height="2.27"/><path class="cls-9" d="M302.2,71.19a1.14,1.14,0,1,1-1.14-1.14A1.14,1.14,0,0,1,302.2,71.19Z"/><rect class="cls-1" x="304.26" y="70.05" width="2.27" height="2.27"/><path class="cls-9" d="M306.53,71.19a1.14,1.14,0,1,1-1.14-1.14A1.14,1.14,0,0,1,306.53,71.19Z"/><rect class="cls-1" x="308.59" y="70.05" width="2.27" height="2.27"/><path class="cls-9" d="M310.87,71.19a1.14,1.14,0,1,1-1.14-1.14A1.14,1.14,0,0,1,310.87,71.19Z"/><rect class="cls-1" x="312.93" y="70.05" width="2.27" height="2.27"/><path class="cls-9" d="M315.2,71.19a1.14,1.14,0,1,1-1.14-1.14A1.14,1.14,0,0,1,315.2,71.19Z"/><rect class="cls-1" x="317.26" y="70.05" width="2.27" height="2.27"/><path class="cls-9" d="M319.54,71.19a1.14,1.14,0,1,1-1.14-1.14A1.14,1.14,0,0,1,319.54,71.19Z"/><rect class="cls-1" x="321.6" y="70.05" width="2.27" height="2.27"/><path class="cls-9" d="M323.87,71.19a1.14,1.14,0,1,1-1.14-1.14A1.14,1.14,0,0,1,323.87,71.19Z"/><rect class="cls-1" x="325.93" y="70.05" width="2.27" height="2.27"/><path class="cls-9" d="M328.21,71.19a1.14,1.14,0,1,1-1.14-1.14A1.14,1.14,0,0,1,328.21,71.19Z"/><rect class="cls-1" x="330.27" y="70.05" width="2.27" height="2.27"/><path class="cls-9" d="M332.54,71.19a1.14,1.14,0,1,1-1.14-1.14A1.14,1.14,0,0,1,332.54,71.19Z"/><rect class="cls-1" x="334.6" y="70.05" width="2.27" height="2.27"/><path class="cls-9" d="M336.88,71.19a1.14,1.14,0,1,1-1.14-1.14A1.14,1.14,0,0,1,336.88,71.19Z"/><rect class="cls-1" x="338.94" y="70.05" width="2.27" height="2.27"/><path class="cls-9" d="M341.21,71.19a1.14,1.14,0,1,1-1.14-1.14A1.14,1.14,0,0,1,341.21,71.19Z"/></g></svg>