<svg id="Camada_2" data-name="Camada 2" xmlns="http://www.w3.org/2000/svg" viewBox="0 0 342 192"><defs><style>.cls-1{fill:#f06058;}.cls-1,.cls-2,.cls-6,.cls-7,.cls-9{stroke:#606060;}.cls-1,.cls-2,.cls-3,.cls-4,.cls-5,.cls-6,.cls-7,.cls-9{stroke-miterlimit:10;}.cls-12,.cls-2,.cls-3{fill:#e0e8e8;}.cls-3{stroke:#000;}.cls-4,.cls-5,.cls-6{fill:none;}.cls-4{stroke:#9d9d9c;}.cls-5{stroke:#f6f6f6;}.cls-7{fill:#8898a8;}.cls-8,.cls-9{fill:#c8d0d8;}.cls-10{fill:#788898;}.cls-11{font-size:12px;fill:#fff;font-family:SquadaOne-Regular, Squada One;}.cls-13{fill:#606060;}</style></defs><rect class="cls-1" x="-2.22" y="-3.92" width="358.48" height="135.64" rx="9.89"/><rect class="cls-2" x="-2.88" y="22.69" width="354.04" height="167.7"/><rect class="cls-3" x="131.31" y="35.94" width="219.85" height="140.55"/><path class="cls-1" d="M361.56,37.47V195.16c0,4.79-4.43,8.68-9.89,8.68H134.91c-5.46,0-9.89-3.89-9.89-8.68V37.47c0-4.79,4.43-8.68,9.89-8.68H351.67C357.13,28.79,361.56,32.68,361.56,37.47Z"/><path class="cls-2" d="M324.17,47.68v61.8a1.67,1.67,0,0,1-1.57,1.67H150.77a1.68,1.68,0,0,1-1.58-1.67V47.68A1.68,1.68,0,0,1,150.88,46H322.49A1.68,1.68,0,0,1,324.17,47.68Z"/><path class="cls-4" d="M236.67,46.08V78.77H149.18v-31a1.69,1.69,0,0,1,1.69-1.68Z"/><path class="cls-5" d="M236.68,46.08V62.42h-87.5V47.76a1.69,1.69,0,0,1,1.69-1.68Z"/><path class="cls-5" d="M236.67,95.12v16H150.76a1.66,1.66,0,0,1-1.58-1.65V95.12Z"/><path class="cls-4" d="M236.67,78.77v32.38H150.76a1.67,1.67,0,0,1-1.58-1.66V78.77Z"/><path class="cls-5" d="M324.16,47.76V62.42H236.67V46.08h85.81A1.68,1.68,0,0,1,324.16,47.76Z"/><path class="cls-4" d="M324.16,47.76v31H236.67V46.08h85.81A1.68,1.68,0,0,1,324.16,47.76Z"/><path class="cls-5" d="M324.16,95.12V109.5a1.66,1.66,0,0,1-1.57,1.65H236.67v-16Z"/><path class="cls-4" d="M324.16,78.77v30.72a1.67,1.67,0,0,1-1.57,1.66H236.67V78.77Z"/><path class="cls-6" d="M324.17,47.75v61.73a1.67,1.67,0,0,1-1.57,1.67H150.71a1.68,1.68,0,0,1-1.58-1.67V47.75a1.68,1.68,0,0,1,1.69-1.67H322.49A1.68,1.68,0,0,1,324.17,47.75Z"/><rect class="cls-2" x="-2.22" y="-8.77" width="350.05" height="15.53"/><rect class="cls-7" x="-17.56" y="27.52" width="116.7" height="32.14" rx="1.68"/><rect class="cls-7" x="-5.17" y="155.39" width="116.7" height="44.23" rx="1.68"/><rect class="cls-2" x="134.14" y="133.98" width="204.47" height="53.25" rx="5.07"/><rect class="cls-8" x="134.78" y="152.5" width="203.23" height="15.83"/><rect class="cls-9" x="136.87" y="114.57" width="198.81" height="16.91" rx="4.46"/><rect class="cls-10" x="245.99" y="115.23" width="52.79" height="15.6" rx="4.46"/><rect class="cls-8" x="208.07" y="115.23" width="43.85" height="15.6" rx="4.46"/><rect class="cls-10" x="173.11" y="115.23" width="43.75" height="15.6" rx="4.46"/><rect class="cls-8" x="137.46" y="115.23" width="42.4" height="15.6" rx="4.46"/><text class="cls-11" transform="translate(182.13 126.79)">POWER</text><text class="cls-11" transform="translate(252.88 126.79)">ACCURACY</text><rect class="cls-7" x="134.57" y="4.48" width="25.02" height="22.55" rx="3.53"/><rect class="cls-7" x="162.6" y="4.48" width="25.02" height="22.55" rx="3.53"/><rect class="cls-7" x="190.63" y="4.48" width="25.02" height="22.55" rx="3.53"/><rect class="cls-7" x="246.68" y="4.48" width="25.02" height="22.55" rx="3.53"/><rect class="cls-7" x="274.7" y="4.48" width="25.02" height="22.55" rx="3.53"/><path class="cls-1" d="M240.14,26h-4.06L231,30.79,226.25,26h-4.07a3.53,3.53,0,0,1-3.53-3.53V5.54A3.53,3.53,0,0,1,222.18,2h18a3.53,3.53,0,0,1,3.53,3.53v17A3.53,3.53,0,0,1,240.14,26Z"/><rect class="cls-12" x="-5.17" y="174.32" width="116.15" height="25.3"/><path class="cls-13" d="M289.4,22.49,287.09,18h0l-2.36,4.46h-4.3l4.28-6.82L280.48,8.8h4.66L287.28,13h.06l2.21-4.23h4.23l-4.18,6.46L294,22.49Z"/></svg>