<svg id="Camada_2" data-name="Camada 2" xmlns="http://www.w3.org/2000/svg" viewBox="0 0 342 192"><defs><style>.cls-1{fill:#4fcc65;}.cls-1,.cls-2,.cls-3,.cls-5{stroke:#606060;}.cls-1,.cls-18,.cls-2,.cls-3,.cls-5,.cls-7,.cls-9{stroke-miterlimit:10;}.cls-2,.cls-4{fill:#e0e8e8;}.cls-3,.cls-8{fill:#8898a8;}.cls-5{fill:#607888;}.cls-6{fill:#606060;}.cls-7{fill:#8be399;stroke:#404040;stroke-width:3px;}.cls-12,.cls-18,.cls-9{fill:none;}.cls-9{stroke:#a8b8c0;}.cls-10{fill:#788898;}.cls-11,.cls-13{fill:#b2c0c7;}.cls-13{fill-rule:evenodd;}.cls-14{fill:#c8d0d8;}.cls-15{fill:#484848;}.cls-16{font-size:8.02px;fill:#f8b800;font-family:SquadaOne-Regular, Squada One;}.cls-17{fill:#f8f0e0;}.cls-18{stroke:#fff;stroke-width:0.75px;}</style></defs><rect class="cls-1" x="-2.22" y="-3.46" width="358.48" height="135.64" rx="9.89"/><rect class="cls-2" x="-2.88" y="23.16" width="354.04" height="167.7"/><path class="cls-1" d="M361.56,37.93v157.7c0,4.79-4.43,8.68-9.89,8.68H134.91c-5.46,0-9.89-3.89-9.89-8.68V37.93c0-4.79,4.43-8.68,9.89-8.68H351.67C357.13,29.25,361.56,33.14,361.56,37.93Z"/><rect class="cls-2" x="-2.22" y="-8.31" width="350.05" height="15.53"/><rect class="cls-3" x="-17.56" y="27.98" width="116.7" height="32.14" rx="1.68"/><rect class="cls-3" x="-5.17" y="155.85" width="116.7" height="44.23" rx="1.68"/><rect class="cls-3" x="134.57" y="4.95" width="25.02" height="22.55" rx="3.53"/><rect class="cls-3" x="162.55" y="4.95" width="25.02" height="22.55" rx="3.53"/><rect class="cls-3" x="218.5" y="4.95" width="25.02" height="22.55" rx="3.53"/><rect class="cls-3" x="246.47" y="4.95" width="25.02" height="22.55" rx="3.53"/><rect class="cls-3" x="274.45" y="4.95" width="25.02" height="22.55" rx="3.53"/><path class="cls-1" d="M212,26.49H208q-2.55,2.39-5.11,4.76l-4.72-4.76h-4.06A3.53,3.53,0,0,1,190.52,23V6a3.53,3.53,0,0,1,3.54-3.53H212A3.53,3.53,0,0,1,215.54,6V23A3.53,3.53,0,0,1,212,26.49Z"/><path class="cls-4" d="M-17.28,45.72H98.64a0,0,0,0,1,0,0V58.41a1.22,1.22,0,0,1-1.22,1.22H-17.28a0,0,0,0,1,0,0V45.72A0,0,0,0,1-17.28,45.72Z"/><rect class="cls-5" x="143.55" y="37.02" width="125.15" height="109.53" rx="2"/><rect class="cls-4" x="-5.17" y="174.79" width="116.15" height="25.3"/><path class="cls-6" d="M289.14,23l-2.31-4.46h0L284.44,23h-4.3l4.27-6.83-4.18-6.87h4.65L287,13.49h.05l2.21-4.23h4.23l-4.18,6.46L293.78,23Z"/><polygon class="cls-7" points="337.64 103.23 337.64 70.38 305.38 53.96 273.13 70.38 273.13 103.23 305.38 119.66 337.64 103.23"/><rect class="cls-8" x="144.87" y="92" width="68.8" height="15.07" rx="3.4"/><rect class="cls-8" x="144.87" y="124" width="70.87" height="14.98" rx="3.4"/><path class="cls-2" d="M125,140.85H346.61a5.07,5.07,0,0,1,5.07,5.07v47.61a0,0,0,0,1,0,0H125a0,0,0,0,1,0,0V140.85A0,0,0,0,1,125,140.85Z"/><rect class="cls-9" x="126.02" y="156.85" width="224.66" height="0.21"/><rect class="cls-10" x="125.53" y="141.34" width="71.86" height="15.01"/><rect class="cls-8" x="144.87" y="60.17" width="68.8" height="14.86" rx="3.4"/><rect class="cls-11" x="126.53" y="172.62" width="0.76" height="2.06"/><rect class="cls-12" x="126.65" y="171.85" width="4.34" height="3.6"/><rect class="cls-12" x="127.68" y="172.51" width="2.27" height="2.27"/><path class="cls-13" d="M130,173.65a1.14,1.14,0,1,1-1.14-1.14A1.14,1.14,0,0,1,130,173.65Z"/><rect class="cls-12" x="132.02" y="172.51" width="2.27" height="2.27"/><path class="cls-13" d="M134.29,173.65a1.14,1.14,0,1,1-1.13-1.14A1.14,1.14,0,0,1,134.29,173.65Z"/><rect class="cls-12" x="136.35" y="172.51" width="2.27" height="2.27"/><path class="cls-13" d="M138.63,173.65a1.14,1.14,0,1,1-1.14-1.14A1.14,1.14,0,0,1,138.63,173.65Z"/><rect class="cls-12" x="140.69" y="172.51" width="2.27" height="2.27"/><path class="cls-13" d="M143,173.65a1.14,1.14,0,1,1-1.13-1.14A1.14,1.14,0,0,1,143,173.65Z"/><rect class="cls-12" x="145.02" y="172.51" width="2.27" height="2.27"/><path class="cls-13" d="M147.3,173.65a1.14,1.14,0,1,1-1.14-1.14A1.14,1.14,0,0,1,147.3,173.65Z"/><rect class="cls-12" x="149.36" y="172.51" width="2.27" height="2.27"/><path class="cls-13" d="M151.63,173.65a1.14,1.14,0,1,1-1.13-1.14A1.14,1.14,0,0,1,151.63,173.65Z"/><rect class="cls-12" x="153.69" y="172.51" width="2.27" height="2.27"/><path class="cls-13" d="M156,173.65a1.14,1.14,0,1,1-1.14-1.14A1.14,1.14,0,0,1,156,173.65Z"/><rect class="cls-12" x="158.03" y="172.51" width="2.27" height="2.27"/><path class="cls-13" d="M160.3,173.65a1.14,1.14,0,1,1-1.13-1.14A1.14,1.14,0,0,1,160.3,173.65Z"/><rect class="cls-12" x="162.36" y="172.51" width="2.27" height="2.27"/><path class="cls-13" d="M164.64,173.65a1.14,1.14,0,1,1-1.14-1.14A1.14,1.14,0,0,1,164.64,173.65Z"/><rect class="cls-12" x="166.7" y="172.51" width="2.27" height="2.27"/><path class="cls-13" d="M169,173.65a1.14,1.14,0,1,1-1.14-1.14A1.14,1.14,0,0,1,169,173.65Z"/><rect class="cls-12" x="171.03" y="172.51" width="2.27" height="2.27"/><path class="cls-13" d="M173.31,173.65a1.14,1.14,0,1,1-1.14-1.14A1.14,1.14,0,0,1,173.31,173.65Z"/><rect class="cls-12" x="175.37" y="172.51" width="2.27" height="2.27"/><path class="cls-13" d="M177.64,173.65a1.14,1.14,0,1,1-1.14-1.14A1.14,1.14,0,0,1,177.64,173.65Z"/><rect class="cls-12" x="179.7" y="172.51" width="2.27" height="2.27"/><path class="cls-13" d="M182,173.65a1.14,1.14,0,1,1-1.14-1.14A1.14,1.14,0,0,1,182,173.65Z"/><rect class="cls-12" x="184.04" y="172.51" width="2.27" height="2.27"/><path class="cls-13" d="M186.31,173.65a1.14,1.14,0,1,1-1.14-1.14A1.14,1.14,0,0,1,186.31,173.65Z"/><rect class="cls-12" x="188.37" y="172.51" width="2.27" height="2.27"/><path class="cls-13" d="M190.65,173.65a1.14,1.14,0,1,1-1.14-1.14A1.14,1.14,0,0,1,190.65,173.65Z"/><rect class="cls-12" x="192.71" y="172.51" width="2.27" height="2.27"/><path class="cls-13" d="M195,173.65a1.14,1.14,0,1,1-1.14-1.14A1.14,1.14,0,0,1,195,173.65Z"/><rect class="cls-12" x="197.04" y="172.51" width="2.27" height="2.27"/><path class="cls-13" d="M199.32,173.65a1.14,1.14,0,1,1-1.14-1.14A1.14,1.14,0,0,1,199.32,173.65Z"/><rect class="cls-12" x="201.38" y="172.51" width="2.27" height="2.27"/><path class="cls-13" d="M203.65,173.65a1.14,1.14,0,1,1-1.14-1.14A1.14,1.14,0,0,1,203.65,173.65Z"/><rect class="cls-12" x="205.71" y="172.51" width="2.27" height="2.27"/><path class="cls-13" d="M208,173.65a1.14,1.14,0,1,1-1.14-1.14A1.14,1.14,0,0,1,208,173.65Z"/><rect class="cls-12" x="210.05" y="172.51" width="2.27" height="2.27"/><path class="cls-13" d="M212.32,173.65a1.14,1.14,0,1,1-1.14-1.14A1.14,1.14,0,0,1,212.32,173.65Z"/><rect class="cls-12" x="214.38" y="172.51" width="2.27" height="2.27"/><path class="cls-13" d="M216.66,173.65a1.14,1.14,0,1,1-1.14-1.14A1.14,1.14,0,0,1,216.66,173.65Z"/><rect class="cls-12" x="218.72" y="172.51" width="2.27" height="2.27"/><path class="cls-13" d="M221,173.65a1.14,1.14,0,1,1-1.14-1.14A1.14,1.14,0,0,1,221,173.65Z"/><rect class="cls-12" x="223.05" y="172.51" width="2.27" height="2.27"/><path class="cls-13" d="M225.33,173.65a1.14,1.14,0,1,1-1.14-1.14A1.14,1.14,0,0,1,225.33,173.65Z"/><rect class="cls-12" x="227.39" y="172.51" width="2.27" height="2.27"/><path class="cls-13" d="M229.66,173.65a1.14,1.14,0,1,1-1.14-1.14A1.14,1.14,0,0,1,229.66,173.65Z"/><rect class="cls-12" x="231.72" y="172.51" width="2.27" height="2.27"/><path class="cls-13" d="M234,173.65a1.14,1.14,0,1,1-1.13-1.14A1.13,1.13,0,0,1,234,173.65Z"/><rect class="cls-12" x="236.06" y="172.51" width="2.27" height="2.27"/><path class="cls-13" d="M238.33,173.65a1.14,1.14,0,1,1-1.14-1.14A1.14,1.14,0,0,1,238.33,173.65Z"/><rect class="cls-12" x="240.39" y="172.51" width="2.27" height="2.27"/><path class="cls-13" d="M242.66,173.65a1.14,1.14,0,1,1-1.13-1.14A1.13,1.13,0,0,1,242.66,173.65Z"/><rect class="cls-12" x="244.72" y="172.51" width="2.27" height="2.27"/><path class="cls-13" d="M247,173.65a1.14,1.14,0,1,1-1.14-1.14A1.14,1.14,0,0,1,247,173.65Z"/><rect class="cls-12" x="249.06" y="172.51" width="2.27" height="2.27"/><path class="cls-13" d="M251.33,173.65a1.14,1.14,0,1,1-1.13-1.14A1.14,1.14,0,0,1,251.33,173.65Z"/><rect class="cls-12" x="253.39" y="172.51" width="2.27" height="2.27"/><path class="cls-13" d="M255.67,173.65a1.14,1.14,0,1,1-1.14-1.14A1.14,1.14,0,0,1,255.67,173.65Z"/><rect class="cls-12" x="257.73" y="172.51" width="2.27" height="2.27"/><path class="cls-13" d="M260,173.65a1.14,1.14,0,1,1-1.13-1.14A1.14,1.14,0,0,1,260,173.65Z"/><rect class="cls-12" x="262.06" y="172.51" width="2.27" height="2.27"/><path class="cls-13" d="M264.34,173.65a1.14,1.14,0,1,1-1.14-1.14A1.14,1.14,0,0,1,264.34,173.65Z"/><rect class="cls-12" x="266.4" y="172.51" width="2.27" height="2.27"/><path class="cls-13" d="M268.67,173.65a1.14,1.14,0,1,1-1.13-1.14A1.14,1.14,0,0,1,268.67,173.65Z"/><rect class="cls-12" x="270.73" y="172.51" width="2.27" height="2.27"/><path class="cls-13" d="M273,173.65a1.14,1.14,0,1,1-1.14-1.14A1.14,1.14,0,0,1,273,173.65Z"/><rect class="cls-12" x="275.07" y="172.51" width="2.27" height="2.27"/><path class="cls-13" d="M277.34,173.65a1.14,1.14,0,1,1-1.13-1.14A1.14,1.14,0,0,1,277.34,173.65Z"/><rect class="cls-12" x="279.4" y="172.51" width="2.27" height="2.27"/><path class="cls-13" d="M281.68,173.65a1.14,1.14,0,1,1-1.14-1.14A1.14,1.14,0,0,1,281.68,173.65Z"/><rect class="cls-12" x="283.74" y="172.51" width="2.27" height="2.27"/><path class="cls-13" d="M286,173.65a1.14,1.14,0,1,1-1.13-1.14A1.14,1.14,0,0,1,286,173.65Z"/><rect class="cls-12" x="288.07" y="172.51" width="2.27" height="2.27"/><path class="cls-13" d="M290.35,173.65a1.14,1.14,0,1,1-1.14-1.14A1.14,1.14,0,0,1,290.35,173.65Z"/><rect class="cls-12" x="292.41" y="172.51" width="2.27" height="2.27"/><path class="cls-13" d="M294.68,173.65a1.14,1.14,0,1,1-1.14-1.14A1.14,1.14,0,0,1,294.68,173.65Z"/><rect class="cls-12" x="296.74" y="172.51" width="2.27" height="2.27"/><path class="cls-13" d="M299,173.65a1.14,1.14,0,1,1-1.14-1.14A1.14,1.14,0,0,1,299,173.65Z"/><rect class="cls-12" x="301.08" y="172.51" width="2.27" height="2.27"/><path class="cls-13" d="M303.35,173.65a1.14,1.14,0,1,1-1.14-1.14A1.14,1.14,0,0,1,303.35,173.65Z"/><rect class="cls-12" x="305.41" y="172.51" width="2.27" height="2.27"/><path class="cls-13" d="M307.69,173.65a1.14,1.14,0,1,1-1.14-1.14A1.14,1.14,0,0,1,307.69,173.65Z"/><rect class="cls-12" x="309.75" y="172.51" width="2.27" height="2.27"/><path class="cls-13" d="M312,173.65a1.14,1.14,0,1,1-1.14-1.14A1.14,1.14,0,0,1,312,173.65Z"/><rect class="cls-12" x="314.08" y="172.51" width="2.27" height="2.27"/><path class="cls-13" d="M316.36,173.65a1.14,1.14,0,1,1-1.14-1.14A1.14,1.14,0,0,1,316.36,173.65Z"/><rect class="cls-12" x="318.42" y="172.51" width="2.27" height="2.27"/><path class="cls-13" d="M320.69,173.65a1.14,1.14,0,1,1-1.14-1.14A1.14,1.14,0,0,1,320.69,173.65Z"/><rect class="cls-12" x="322.75" y="172.51" width="2.27" height="2.27"/><path class="cls-13" d="M325,173.65a1.14,1.14,0,1,1-1.14-1.14A1.14,1.14,0,0,1,325,173.65Z"/><rect class="cls-12" x="327.09" y="172.51" width="2.27" height="2.27"/><path class="cls-13" d="M329.36,173.65a1.14,1.14,0,1,1-1.14-1.14A1.14,1.14,0,0,1,329.36,173.65Z"/><rect class="cls-12" x="331.42" y="172.51" width="2.27" height="2.27"/><path class="cls-13" d="M333.7,173.65a1.14,1.14,0,1,1-1.14-1.14A1.14,1.14,0,0,1,333.7,173.65Z"/><rect class="cls-12" x="335.76" y="172.51" width="2.27" height="2.27"/><path class="cls-13" d="M338,173.65a1.14,1.14,0,1,1-1.14-1.14A1.14,1.14,0,0,1,338,173.65Z"/><rect class="cls-12" x="340.09" y="172.51" width="2.27" height="2.27"/><path class="cls-13" d="M342.37,173.65a1.14,1.14,0,1,1-1.14-1.14A1.14,1.14,0,0,1,342.37,173.65Z"/><rect class="cls-10" x="144.87" y="38.02" width="68.8" height="15" rx="3.4"/><rect class="cls-10" x="144.87" y="76.06" width="68.8" height="14.93" rx="3.4"/><rect class="cls-10" x="144.87" y="108.01" width="68.8" height="14.98" rx="3.4"/><path class="cls-14" d="M200,38h64a3.4,3.4,0,0,1,3.4,3.4v8.2A3.4,3.4,0,0,1,264,53H200a0,0,0,0,1,0,0V38A0,0,0,0,1,200,38Z"/><path class="cls-4" d="M200,60.1h64a3.4,3.4,0,0,1,3.4,3.4v8.2a3.4,3.4,0,0,1-3.4,3.4H200a0,0,0,0,1,0,0v-15A0,0,0,0,1,200,60.1Z"/><path class="cls-14" d="M200,76h64a3.4,3.4,0,0,1,3.4,3.4v8.2A3.4,3.4,0,0,1,264,91H200a0,0,0,0,1,0,0V76A0,0,0,0,1,200,76Z"/><path class="cls-4" d="M200,92h64a3.4,3.4,0,0,1,3.4,3.4v8.2A3.4,3.4,0,0,1,264,107H200a0,0,0,0,1,0,0V92A0,0,0,0,1,200,92Z"/><path class="cls-14" d="M200,108h64a3.4,3.4,0,0,1,3.4,3.4v8.2A3.4,3.4,0,0,1,264,123H200a0,0,0,0,1,0,0V108A0,0,0,0,1,200,108Z"/><path class="cls-4" d="M200,124h64a3.4,3.4,0,0,1,3.4,3.4v8.2A3.4,3.4,0,0,1,264,139H200a0,0,0,0,1,0,0V124A0,0,0,0,1,200,124Z"/><rect class="cls-15" x="188.46" y="53.28" width="66.89" height="6.47" rx="3"/><text class="cls-16" transform="translate(191.03 59.24) scale(1.46 1)">HP</text><rect class="cls-17" x="204.11" y="55.06" width="48" height="2.89"/><path class="cls-18" d="M305.38,55.83V86.77L335.8,102.3,305.38,86.77,335.8,71.32,305.38,86.77v0L275,102.3l30.41-15.53L275,71.32l30.41,15.45Z"/></svg>