<svg id="Camada_2" data-name="Camada 2" xmlns="http://www.w3.org/2000/svg" viewBox="0 0 342 192"><defs><style>.cls-1{fill:#c8d0c0;}.cls-2{fill:#f06058;}.cls-2,.cls-3,.cls-4{stroke:#606060;stroke-miterlimit:10;}.cls-3,.cls-5{fill:#e0e8e8;}.cls-4{fill:#8898a8;}.cls-6{fill:#606060;}.cls-7{fill:#e8817c;}</style></defs><rect class="cls-1" x="-6.3" y="6.73" width="354.6" height="191.51"/><rect class="cls-2" x="-6.3" y="6.73" width="354.6" height="16.67"/><rect class="cls-3" x="-6.3" y="23.4" width="354.45" height="174.84"/><path class="cls-2" d="M348.3,28.76V198.24H126.41a7.61,7.61,0,0,1-.66-3.11V37.44c0-4.79,4.43-8.68,9.89-8.68Z"/><rect class="cls-3" x="-6.3" y="-6.24" width="354.6" height="12.97"/><path class="cls-4" d="M99.88,29.17V58a1.69,1.69,0,0,1-1.69,1.69H-6.3V27.49H98.19A1.69,1.69,0,0,1,99.88,29.17Z"/><path class="cls-4" d="M112.27,157v40.87a1.84,1.84,0,0,1,0,.33H-6.3V155.39a2.07,2.07,0,0,1,.35,0H110.53A1.71,1.71,0,0,1,112.27,157Z"/><path class="cls-5" d="M99.37,45.23V57.92a1.24,1.24,0,0,1-1.24,1.22H-6.3V45.23Z"/><rect class="cls-5" x="-6.3" y="174.29" width="118.01" height="23.95"/><rect class="cls-4" x="162.45" y="4.45" width="25.02" height="22.55" rx="3.53"/><rect class="cls-4" x="190.5" y="4.45" width="25.02" height="22.55" rx="3.53"/><rect class="cls-4" x="218.55" y="4.45" width="25.02" height="22.55" rx="3.53"/><rect class="cls-4" x="134.41" y="4.45" width="25.02" height="22.55" rx="3.53"/><rect class="cls-4" x="246.59" y="4.45" width="25.02" height="22.55" rx="3.53"/><path class="cls-2" d="M296.13,26.77h-4.07L287,31.53l-4.73-4.76h-4.06a3.53,3.53,0,0,1-3.53-3.54V6.29a3.53,3.53,0,0,1,3.53-3.53h18a3.53,3.53,0,0,1,3.53,3.53V23.23A3.53,3.53,0,0,1,296.13,26.77Z"/><path class="cls-6" d="M289.33,22.46,287,18h0l-2.35,4.46h-4.3l4.27-6.83-4.18-6.87h4.65L287.22,13h0l2.21-4.23h4.23l-4.18,6.46L294,22.46Z"/><rect class="cls-7" x="173.85" y="110.82" width="121.91" height="22.12" rx="11.06"/></svg>