<svg id="Camada_3" data-name="Camada 3" xmlns="http://www.w3.org/2000/svg" xmlns:xlink="http://www.w3.org/1999/xlink" viewBox="0 0 342 192"><defs><style>.cls-1,.cls-2,.cls-9{fill:none;}.cls-2{stroke:#000;}.cls-2,.cls-3,.cls-4,.cls-9{stroke-miterlimit:10;}.cls-3,.cls-6{fill:#666;}.cls-3,.cls-4{stroke:#333;}.cls-4{fill:#ccc;}.cls-5{fill:gray;}.cls-7{clip-path:url(#clip-path);}.cls-8{fill:#333;}.cls-9{stroke:#101010;stroke-width:2px;}.cls-10{clip-path:url(#clip-path-2);}.cls-11{clip-path:url(#clip-path-3);}.cls-12{clip-path:url(#clip-path-4);}.cls-13{clip-path:url(#clip-path-5);}.cls-14{clip-path:url(#clip-path-6);}.cls-15{clip-path:url(#clip-path-7);}.cls-16{clip-path:url(#clip-path-8);}</style><clipPath id="clip-path"><rect class="cls-1" x="28.4" y="47.66" width="142.77" height="10.36"/></clipPath><clipPath id="clip-path-2"><rect class="cls-1" x="28.4" y="99.47" width="142.77" height="10.36"/></clipPath><clipPath id="clip-path-3"><rect class="cls-1" x="28.4" y="125.38" width="142.77" height="10.36"/></clipPath><clipPath id="clip-path-4"><rect class="cls-1" x="28.4" y="73.57" width="142.77" height="10.36"/></clipPath><clipPath id="clip-path-5"><rect class="cls-1" x="171" y="47.66" width="142.77" height="10.36"/></clipPath><clipPath id="clip-path-6"><rect class="cls-1" x="171" y="99.47" width="142.77" height="10.36"/></clipPath><clipPath id="clip-path-7"><rect class="cls-1" x="171" y="125.38" width="142.77" height="10.36"/></clipPath><clipPath id="clip-path-8"><rect class="cls-1" x="171" y="73.57" width="142.77" height="10.36"/></clipPath></defs><path class="cls-2" d="M157.09,24.19v1.54H33.36"/><path class="cls-2" d="M312.62,153.17v1.54H99.68"/><path class="cls-2" d="M312.62,168.8v1.54H99.68"/><path class="cls-3" d="M224.93,24.49H214.25a2,2,0,0,1-2-2v-11a3,3,0,0,1,3-3h9.68v16Z"/><path class="cls-3" d="M261.64,8.48h10.68a2,2,0,0,1,2,2v12a2,2,0,0,1-2,2H261.64v-16Z"/><rect class="cls-4" x="223.19" y="8.48" width="40.28" height="16.01" rx="2"/><polygon class="cls-5" points="270.47 16.49 265.49 12.66 265.49 20.31 270.47 16.49"/><polygon class="cls-5" points="216.1 16.49 221.09 20.31 221.09 12.66 216.1 16.49"/><rect class="cls-6" x="28.4" y="32.11" width="142.77" height="25.91"/><g class="cls-7"><rect class="cls-8" x="28.4" y="32.11" width="142.77" height="25.91"/></g><rect class="cls-9" x="28.4" y="32.11" width="142.77" height="25.91"/><rect class="cls-6" x="28.4" y="83.92" width="142.77" height="25.91"/><g class="cls-10"><rect class="cls-8" x="28.4" y="83.92" width="142.77" height="25.91"/></g><rect class="cls-9" x="28.4" y="83.92" width="142.77" height="25.91"/><rect class="cls-6" x="28.4" y="109.83" width="142.77" height="25.91"/><g class="cls-11"><rect class="cls-8" x="28.4" y="109.83" width="142.77" height="25.91"/></g><rect class="cls-9" x="28.4" y="109.83" width="142.77" height="25.91"/><rect class="cls-6" x="28.4" y="58.02" width="142.77" height="25.91"/><g class="cls-12"><rect class="cls-8" x="28.4" y="58.02" width="142.77" height="25.91"/></g><rect class="cls-9" x="28.4" y="58.02" width="142.77" height="25.91"/><rect class="cls-6" x="171" y="32.11" width="142.77" height="25.91"/><g class="cls-13"><rect class="cls-8" x="171" y="32.11" width="142.77" height="25.91"/></g><rect class="cls-9" x="171" y="32.11" width="142.77" height="25.91"/><rect class="cls-6" x="171" y="83.92" width="142.77" height="25.91"/><g class="cls-14"><rect class="cls-8" x="171" y="83.92" width="142.77" height="25.91"/></g><rect class="cls-9" x="171" y="83.92" width="142.77" height="25.91"/><rect class="cls-6" x="171" y="109.83" width="142.77" height="25.91"/><g class="cls-15"><rect class="cls-8" x="171" y="109.83" width="142.77" height="25.91"/></g><rect class="cls-9" x="171" y="109.83" width="142.77" height="25.91"/><rect class="cls-6" x="171" y="58.02" width="142.77" height="25.91"/><g class="cls-16"><rect class="cls-8" x="171" y="58.02" width="142.77" height="25.91"/></g><rect class="cls-9" x="171" y="58.02" width="142.77" height="25.91"/></svg>