<svg id="Camada_2" data-name="Camada 2" xmlns="http://www.w3.org/2000/svg" viewBox="0 0 342 192"><defs><style>.cls-1{fill:#6c3;}.cls-2{fill:#393;}.cls-3{fill:#9f9;}.cls-4{fill:#9c6;}.cls-4,.cls-5,.cls-7{stroke:#666;stroke-width:2px;}.cls-10,.cls-4,.cls-5,.cls-7,.cls-8,.cls-9{stroke-miterlimit:10;}.cls-5,.cls-8{fill:#ccc;}.cls-6{fill:#565656;}.cls-7{fill:#333;}.cls-10,.cls-8,.cls-9{stroke:#669;}.cls-9{fill:#cff;}.cls-10,.cls-9{stroke-width:0.75px;}.cls-10{fill:#699;}.cls-11{font-size:14.8px;fill:#fff;font-family:SquadaOne-Regular, Squada One;}</style></defs><path class="cls-1" d="M112.11,0V193.19H342V0ZM303.43,120.77a2.82,2.82,0,0,1-3,2.6H132.27a2.82,2.82,0,0,1-3-2.6v-76a3,3,0,0,1,3-3H300.43a3,3,0,0,1,3,3Z"/><path class="cls-2" d="M301.62,29.89H131c-5.89,0-10.66,4.09-10.66,9.15V125.3c0,5,4.77,9.15,10.66,9.15H301.62c5.88,0,10.66-4.1,10.66-9.15V39C312.28,34,307.5,29.89,301.62,29.89Zm1.81,91.17a2.81,2.81,0,0,1-3,2.58H132.27a2.81,2.81,0,0,1-3-2.58V43.27a2.82,2.82,0,0,1,3-2.58H300.43a2.82,2.82,0,0,1,3,2.58Z"/><path class="cls-3" d="M301.59,36H131.17c-2.68,0-4.85,1.85-4.85,4.12v84.75c0,2.27,2.17,4.11,4.85,4.11H301.59c2.68,0,4.86-1.84,4.86-4.11V40.16C306.45,37.89,304.27,36,301.59,36Zm1.84,84.85a2.8,2.8,0,0,1-3,2.54H132.27a2.79,2.79,0,0,1-3-2.54V44.1a2.8,2.8,0,0,1,3-2.54H300.43a2.81,2.81,0,0,1,3,2.54Z"/><rect class="cls-3" x="112.11" y="7.02" width="229.89" height="18.06"/><rect class="cls-4" x="204.08" y="4.13" width="25.89" height="22.79"/><rect class="cls-5" x="176.46" y="4.8" width="24" height="21.45"/><rect class="cls-5" x="148.84" y="4.8" width="24" height="21.45"/><rect class="cls-5" x="233.6" y="4.8" width="24" height="21.45"/><rect class="cls-5" x="121.22" y="4.8" width="24" height="21.45"/><rect class="cls-5" x="317.26" y="32.44" width="20.34" height="17.11"/><path class="cls-6" d="M326.76,37l-3.91,6.78a.76.76,0,0,0,.66,1.14h7.83a.76.76,0,0,0,.66-1.14L328.09,37A.77.77,0,0,0,326.76,37Z"/><rect class="cls-5" x="317.26" y="114" width="20.34" height="17.11" transform="translate(654.85 245.11) rotate(180)"/><path class="cls-6" d="M328.09,126.55l3.91-6.77a.77.77,0,0,0-.66-1.15h-7.83a.77.77,0,0,0-.66,1.15l3.91,6.77A.77.77,0,0,0,328.09,126.55Z"/><rect class="cls-7" x="317.26" y="49.55" width="20.34" height="64.45"/><rect class="cls-5" x="211.51" y="138.16" width="127.66" height="51.91" rx="3"/><rect class="cls-8" x="120.32" y="155.49" width="88.59" height="16.22" rx="3"/><rect class="cls-8" x="120.32" y="171.71" width="88.59" height="16.15" rx="3"/><rect class="cls-9" x="125.72" y="139.57" width="77.79" height="15.91" rx="3"/><path class="cls-10" d="M123.32,155.49h54a0,0,0,0,1,0,0v16.22a0,0,0,0,1,0,0h-54a3,3,0,0,1-3-3V158.49A3,3,0,0,1,123.32,155.49Z"/><path class="cls-10" d="M123.32,171.71h54a0,0,0,0,1,0,0v16.15a0,0,0,0,1,0,0h-54a3,3,0,0,1-3-3V174.71A3,3,0,0,1,123.32,171.71Z"/><path class="cls-9" d="M128.72,139.57h35.89a0,0,0,0,1,0,0v15.91a0,0,0,0,1,0,0H128.72a3,3,0,0,1-3-3v-9.91A3,3,0,0,1,128.72,139.57Z"/><text class="cls-11" transform="translate(133.25 168.81) scale(0.84 1)">POWER</text><text class="cls-11" transform="translate(124.83 184.52) scale(0.87 1)">ACCURACY</text></svg>