<svg id="Camada_3" data-name="Camada 3" xmlns="http://www.w3.org/2000/svg" viewBox="0 0 342 192"><defs><style>.cls-1{fill:#6c3;}.cls-2{fill:#393;}.cls-3{fill:#9f9;}.cls-4{fill:#9c6;}.cls-4,.cls-5,.cls-8{stroke:#666;stroke-miterlimit:10;stroke-width:2px;}.cls-5{fill:#ccc;}.cls-6{fill:#565656;}.cls-7{fill:#666;}.cls-8{fill:#333;}</style></defs><path class="cls-1" d="M112.11,0v192.1H342V0ZM303.43,135.16a3,3,0,0,1-3,3H132.27a3,3,0,0,1-3-3V44.48a3,3,0,0,1,3-3H300.43a3,3,0,0,1,3,3Z"/><path class="cls-2" d="M301.62,28.89H131a10.66,10.66,0,0,0-10.66,10.66V140.1A10.66,10.66,0,0,0,131,150.76H301.62a10.66,10.66,0,0,0,10.66-10.66V39.55A10.66,10.66,0,0,0,301.62,28.89Zm1.81,106.27a3,3,0,0,1-3,3H132.27a3,3,0,0,1-3-3V44.48a3,3,0,0,1,3-3H300.43a3,3,0,0,1,3,3Z"/><path class="cls-3" d="M301.59,35H131.17a4.86,4.86,0,0,0-4.85,4.86V139.91a4.85,4.85,0,0,0,4.85,4.85H301.59a4.86,4.86,0,0,0,4.86-4.85V39.83A4.87,4.87,0,0,0,301.59,35Zm1.84,100.19a3,3,0,0,1-3,3H132.27a3,3,0,0,1-3-3V44.48a3,3,0,0,1,3-3H300.43a3,3,0,0,1,3,3Z"/><rect class="cls-3" x="112.11" y="7.02" width="229.89" height="18.06"/><rect class="cls-4" x="232.65" y="4.13" width="25.89" height="22.79"/><rect class="cls-5" x="204.79" y="4.8" width="24" height="21.45"/><rect class="cls-5" x="176.93" y="4.8" width="24" height="21.45"/><rect class="cls-5" x="149.08" y="4.8" width="24" height="21.45"/><rect class="cls-5" x="121.22" y="4.8" width="24" height="21.45"/><rect class="cls-5" x="317.26" y="32.44" width="20.34" height="17.11"/><path class="cls-6" d="M326.76,37l-3.91,6.78a.76.76,0,0,0,.66,1.14h7.83a.76.76,0,0,0,.66-1.14L328.09,37A.77.77,0,0,0,326.76,37Z"/><rect class="cls-5" x="317.26" y="129.61" width="20.34" height="17.11" transform="translate(654.85 276.33) rotate(180)"/><path class="cls-7" d="M328.09,142.17l3.91-6.78a.77.77,0,0,0-.66-1.15h-7.83a.77.77,0,0,0-.66,1.15l3.91,6.78A.78.78,0,0,0,328.09,142.17Z"/><rect class="cls-8" x="317.26" y="49.55" width="20.34" height="80.07"/><rect class="cls-5" x="121.19" y="154.08" width="217.98" height="36" rx="3"/></svg>