<svg id="Camada_2" data-name="Camada 2" xmlns="http://www.w3.org/2000/svg" xmlns:xlink="http://www.w3.org/1999/xlink" viewBox="0 0 112 192"><defs><style>.cls-1,.cls-5{fill:none;}.cls-2{fill:#202020;}.cls-2,.cls-5{stroke:#101010;stroke-miterlimit:10;stroke-width:0.75px;}.cls-3{clip-path:url(#clip-path);}.cls-4{fill:#2a2a2a;}</style><clipPath id="clip-path"><path class="cls-1" d="M0,30.87V33H112V62.9H0V65H112V94.92H0V97H112V127H0V129H112V159H0v2.09H112V191H0v8.15H-4.08Q-4.32,97.53-4.58-4.09H0v5H112V30.87Z"/></clipPath></defs><rect width="112" height="192"/><rect class="cls-2" y="32.96" width="112" height="29.94"/><rect class="cls-2" y="64.99" width="112" height="29.94"/><rect class="cls-2" y="97.01" width="112" height="29.94"/><rect class="cls-2" y="129.04" width="112" height="29.94"/><rect class="cls-2" y="0.94" width="112" height="29.94"/><rect class="cls-2" y="161.06" width="112" height="29.94"/><g class="cls-3"><polygon class="cls-4" points="2.81 191.93 1.81 191.93 193.81 -0.07 194.81 -0.07 2.81 191.93"/><polygon class="cls-4" points="-9.86 191.93 -10.86 191.93 181.14 -0.07 182.14 -0.07 -9.86 191.93"/><polygon class="cls-4" points="-22.53 191.93 -23.53 191.93 168.47 -0.07 169.47 -0.07 -22.53 191.93"/><polygon class="cls-4" points="-35.2 191.93 -36.2 191.93 155.8 -0.07 156.8 -0.07 -35.2 191.93"/><polygon class="cls-4" points="-47.87 191.93 -48.87 191.93 143.13 -0.07 144.13 -0.07 -47.87 191.93"/><polygon class="cls-4" points="-60.53 191.93 -61.53 191.93 130.47 -0.07 131.47 -0.07 -60.53 191.93"/><polygon class="cls-4" points="-73.2 191.93 -74.2 191.93 117.8 -0.07 118.8 -0.07 -73.2 191.93"/><polygon class="cls-4" points="-85.87 191.93 -86.87 191.93 105.13 -0.07 106.13 -0.07 -85.87 191.93"/><polygon class="cls-4" points="15.48 191.93 14.48 191.93 206.48 -0.07 207.48 -0.07 15.48 191.93"/><polygon class="cls-4" points="-0.36 191.93 -1.36 191.93 190.64 -0.07 191.64 -0.07 -0.36 191.93"/><polygon class="cls-4" points="-13.03 191.93 -14.03 191.93 177.97 -0.07 178.97 -0.07 -13.03 191.93"/><polygon class="cls-4" points="-25.7 191.93 -26.7 191.93 165.31 -0.07 166.31 -0.07 -25.7 191.93"/><polygon class="cls-4" points="-38.36 191.93 -39.36 191.93 152.64 -0.07 153.64 -0.07 -38.36 191.93"/><polygon class="cls-4" points="-51.03 191.93 -52.03 191.93 139.97 -0.07 140.97 -0.07 -51.03 191.93"/><polygon class="cls-4" points="-63.7 191.93 -64.7 191.93 127.3 -0.07 128.3 -0.07 -63.7 191.93"/><polygon class="cls-4" points="-76.37 191.93 -77.37 191.93 114.63 -0.07 115.63 -0.07 -76.37 191.93"/><polygon class="cls-4" points="-89.04 191.93 -90.04 191.93 101.96 -0.07 102.96 -0.07 -89.04 191.93"/><polygon class="cls-4" points="12.31 191.93 11.31 191.93 203.31 -0.07 204.31 -0.07 12.31 191.93"/><polygon class="cls-4" points="-3.52 191.93 -4.53 191.93 187.47 -0.07 188.47 -0.07 -3.52 191.93"/><polygon class="cls-4" points="-16.19 191.93 -17.19 191.93 174.81 -0.07 175.81 -0.07 -16.19 191.93"/><polygon class="cls-4" points="-28.86 191.93 -29.86 191.93 162.14 -0.07 163.14 -0.07 -28.86 191.93"/><polygon class="cls-4" points="-41.53 191.93 -42.53 191.93 149.47 -0.07 150.47 -0.07 -41.53 191.93"/><polygon class="cls-4" points="-54.2 191.93 -55.2 191.93 136.8 -0.07 137.8 -0.07 -54.2 191.93"/><polygon class="cls-4" points="-66.87 191.93 -67.87 191.93 124.13 -0.07 125.13 -0.07 -66.87 191.93"/><polygon class="cls-4" points="-79.54 191.93 -80.54 191.93 111.46 -0.07 112.46 -0.07 -79.54 191.93"/><polygon class="cls-4" points="-92.2 191.93 -93.2 191.93 98.8 -0.07 99.8 -0.07 -92.2 191.93"/><polygon class="cls-4" points="5.98 191.93 4.98 191.93 196.98 -0.07 197.98 -0.07 5.98 191.93"/><polygon class="cls-4" points="-6.69 191.93 -7.69 191.93 184.31 -0.07 185.31 -0.07 -6.69 191.93"/><polygon class="cls-4" points="-19.36 191.93 -20.36 191.93 171.64 -0.07 172.64 -0.07 -19.36 191.93"/><polygon class="cls-4" points="-32.03 191.93 -33.03 191.93 158.97 -0.07 159.97 -0.07 -32.03 191.93"/><polygon class="cls-4" points="-44.7 191.93 -45.7 191.93 146.3 -0.07 147.3 -0.07 -44.7 191.93"/><polygon class="cls-4" points="-57.37 191.93 -58.37 191.93 133.63 -0.07 134.63 -0.07 -57.37 191.93"/><polygon class="cls-4" points="-70.03 191.93 -71.03 191.93 120.97 -0.07 121.97 -0.07 -70.03 191.93"/><polygon class="cls-4" points="-82.7 191.93 -83.7 191.93 108.3 -0.07 109.3 -0.07 -82.7 191.93"/><polygon class="cls-4" points="-95.37 191.93 -96.37 191.93 95.63 -0.07 96.63 -0.07 -95.37 191.93"/><polygon class="cls-4" points="9.14 191.93 8.14 191.93 200.14 -0.07 201.14 -0.07 9.14 191.93"/><polygon class="cls-4" points="-111.21 191.93 -112.21 191.93 79.79 -0.07 80.79 -0.07 -111.21 191.93"/><polygon class="cls-4" points="-123.88 191.93 -124.88 191.93 67.12 -0.07 68.12 -0.07 -123.88 191.93"/><polygon class="cls-4" points="-136.54 191.93 -137.54 191.93 54.45 -0.07 55.45 -0.07 -136.54 191.93"/><polygon class="cls-4" points="-149.21 191.93 -150.21 191.93 41.79 -0.07 42.79 -0.07 -149.21 191.93"/><polygon class="cls-4" points="-161.88 191.93 -162.88 191.93 29.12 -0.07 30.12 -0.07 -161.88 191.93"/><polygon class="cls-4" points="-174.55 191.93 -175.55 191.93 16.45 -0.07 17.45 -0.07 -174.55 191.93"/><polygon class="cls-4" points="-187.22 191.93 -188.22 191.93 3.78 -0.07 4.78 -0.07 -187.22 191.93"/><polygon class="cls-4" points="-98.54 191.93 -99.54 191.93 92.46 -0.07 93.46 -0.07 -98.54 191.93"/><polygon class="cls-4" points="-114.38 191.93 -115.38 191.93 76.63 -0.07 77.63 -0.07 -114.38 191.93"/><polygon class="cls-4" points="-127.04 191.93 -128.04 191.93 63.96 -0.07 64.96 -0.07 -127.04 191.93"/><polygon class="cls-4" points="-139.71 191.93 -140.71 191.93 51.29 -0.07 52.29 -0.07 -139.71 191.93"/><polygon class="cls-4" points="-152.38 191.93 -153.38 191.93 38.62 -0.07 39.62 -0.07 -152.38 191.93"/><polygon class="cls-4" points="-165.05 191.93 -166.05 191.93 25.95 -0.07 26.95 -0.07 -165.05 191.93"/><polygon class="cls-4" points="-177.72 191.93 -178.72 191.93 13.28 -0.07 14.28 -0.07 -177.72 191.93"/><polygon class="cls-4" points="-190.39 191.93 -191.39 191.93 0.61 -0.07 1.61 -0.07 -190.39 191.93"/><polygon class="cls-4" points="-101.71 191.93 -102.71 191.93 89.29 -0.07 90.29 -0.07 -101.71 191.93"/><polygon class="cls-4" points="-117.54 191.93 -118.54 191.93 73.46 -0.07 74.46 -0.07 -117.54 191.93"/><polygon class="cls-4" points="-130.21 191.93 -131.21 191.93 60.79 -0.07 61.79 -0.07 -130.21 191.93"/><polygon class="cls-4" points="-142.88 191.93 -143.88 191.93 48.12 -0.07 49.12 -0.07 -142.88 191.93"/><polygon class="cls-4" points="-155.55 191.93 -156.55 191.93 35.45 -0.07 36.45 -0.07 -155.55 191.93"/><polygon class="cls-4" points="-168.22 191.93 -169.22 191.93 22.78 -0.07 23.78 -0.07 -168.22 191.93"/><polygon class="cls-4" points="-180.88 191.93 -181.88 191.93 10.12 -0.07 11.12 -0.07 -180.88 191.93"/><polygon class="cls-4" points="-108.04 191.93 -109.04 191.93 82.96 -0.07 83.96 -0.07 -108.04 191.93"/><polygon class="cls-4" points="-120.71 191.93 -121.71 191.93 70.29 -0.07 71.29 -0.07 -120.71 191.93"/><polygon class="cls-4" points="-133.38 191.93 -134.38 191.93 57.62 -0.07 58.62 -0.07 -133.38 191.93"/><polygon class="cls-4" points="-146.05 191.93 -147.05 191.93 44.95 -0.07 45.95 -0.07 -146.05 191.93"/><polygon class="cls-4" points="-158.72 191.93 -159.72 191.93 32.28 -0.07 33.28 -0.07 -158.72 191.93"/><polygon class="cls-4" points="-171.38 191.93 -172.38 191.93 19.62 -0.07 20.62 -0.07 -171.38 191.93"/><polygon class="cls-4" points="-184.05 191.93 -185.05 191.93 6.95 -0.07 7.95 -0.07 -184.05 191.93"/><polygon class="cls-4" points="-104.87 191.93 -105.87 191.93 86.13 -0.07 87.13 -0.07 -104.87 191.93"/><polygon class="cls-4" points="104.16 191.93 103.16 191.93 295.16 -0.07 296.16 -0.07 104.16 191.93"/><polygon class="cls-4" points="91.49 191.93 90.49 191.93 282.49 -0.07 283.49 -0.07 91.49 191.93"/><polygon class="cls-4" points="78.82 191.93 77.82 191.93 269.82 -0.07 270.82 -0.07 78.82 191.93"/><polygon class="cls-4" points="66.15 191.93 65.15 191.93 257.15 -0.07 258.15 -0.07 66.15 191.93"/><polygon class="cls-4" points="53.48 191.93 52.48 191.93 244.48 -0.07 245.48 -0.07 53.48 191.93"/><polygon class="cls-4" points="40.82 191.93 39.82 191.93 231.82 -0.07 232.82 -0.07 40.82 191.93"/><polygon class="cls-4" points="28.15 191.93 27.15 191.93 219.15 -0.07 220.15 -0.07 28.15 191.93"/><polygon class="cls-4" points="100.99 191.93 99.99 191.93 291.99 -0.07 292.99 -0.07 100.99 191.93"/><polygon class="cls-4" points="88.32 191.93 87.32 191.93 279.32 -0.07 280.32 -0.07 88.32 191.93"/><polygon class="cls-4" points="75.65 191.93 74.65 191.93 266.65 -0.07 267.65 -0.07 75.65 191.93"/><polygon class="cls-4" points="62.99 191.93 61.99 191.93 253.99 -0.07 254.99 -0.07 62.99 191.93"/><polygon class="cls-4" points="50.32 191.93 49.32 191.93 241.32 -0.07 242.32 -0.07 50.32 191.93"/><polygon class="cls-4" points="37.65 191.93 36.65 191.93 228.65 -0.07 229.65 -0.07 37.65 191.93"/><polygon class="cls-4" points="24.98 191.93 23.98 191.93 215.98 -0.07 216.98 -0.07 24.98 191.93"/><polygon class="cls-4" points="110.49 191.93 109.49 191.93 301.49 -0.07 302.49 -0.07 110.49 191.93"/><polygon class="cls-4" points="97.82 191.93 96.82 191.93 288.82 -0.07 289.82 -0.07 97.82 191.93"/><polygon class="cls-4" points="85.16 191.93 84.16 191.93 276.16 -0.07 277.16 -0.07 85.16 191.93"/><polygon class="cls-4" points="72.49 191.93 71.49 191.93 263.49 -0.07 264.49 -0.07 72.49 191.93"/><polygon class="cls-4" points="59.82 191.93 58.82 191.93 250.82 -0.07 251.82 -0.07 59.82 191.93"/><polygon class="cls-4" points="47.15 191.93 46.15 191.93 238.15 -0.07 239.15 -0.07 47.15 191.93"/><polygon class="cls-4" points="34.48 191.93 33.48 191.93 225.48 -0.07 226.48 -0.07 34.48 191.93"/><polygon class="cls-4" points="21.81 191.93 20.81 191.93 212.81 -0.07 213.81 -0.07 21.81 191.93"/><polygon class="cls-4" points="107.33 191.93 106.33 191.93 298.33 -0.07 299.33 -0.07 107.33 191.93"/><polygon class="cls-4" points="94.66 191.93 93.66 191.93 285.66 -0.07 286.66 -0.07 94.66 191.93"/><polygon class="cls-4" points="81.99 191.93 80.99 191.93 272.99 -0.07 273.99 -0.07 81.99 191.93"/><polygon class="cls-4" points="69.32 191.93 68.32 191.93 260.32 -0.07 261.32 -0.07 69.32 191.93"/><polygon class="cls-4" points="56.65 191.93 55.65 191.93 247.65 -0.07 248.65 -0.07 56.65 191.93"/><polygon class="cls-4" points="43.98 191.93 42.98 191.93 234.98 -0.07 235.98 -0.07 43.98 191.93"/><polygon class="cls-4" points="31.31 191.93 30.31 191.93 222.31 -0.07 223.31 -0.07 31.31 191.93"/><polygon class="cls-4" points="18.65 191.93 17.65 191.93 209.65 -0.07 210.65 -0.07 18.65 191.93"/></g><rect class="cls-5" y="32.99" width="112" height="29.94"/><rect class="cls-5" y="65.02" width="112" height="29.94"/><rect class="cls-5" y="97.04" width="112" height="29.94"/><rect class="cls-5" y="129.07" width="112" height="29.94"/><rect class="cls-5" y="0.97" width="112" height="29.94"/><rect class="cls-5" y="161.1" width="112" height="29.94"/></svg>