<svg id="Camada_2" data-name="Camada 2" xmlns="http://www.w3.org/2000/svg" viewBox="0 0 24 24"><defs><style>.cls-1{fill:none;}.cls-2{fill:#708090;}.cls-3{fill:#f8d038;}.cls-4{fill:#fff;}.cls-5{fill:#e9eff4;}.cls-6{fill:#dee4e9;}.cls-7{fill:#bbc7d1;}.cls-8{opacity:0.2;}</style></defs><rect class="cls-1" x="0.04" y="0.04" width="23.91" height="23.91"/><path class="cls-2" d="M18.61,3.46,22.8,12A1.7,1.7,0,0,1,22,14.31l-14.34,7a1.7,1.7,0,0,1-2.28-.78L1.2,12A1.7,1.7,0,0,1,2,9.69l14.34-7A1.7,1.7,0,0,1,18.61,3.46Z"/><rect class="cls-3" x="1.25" y="8.6" width="19.38" height="2.46" transform="translate(-3.21 5.8) rotate(-26.04)"/><rect class="cls-4" x="6.08" y="15.61" width="5.99" height="0.61" transform="translate(-6.06 5.6) rotate(-26.04)"/><rect class="cls-4" x="6.72" y="16.92" width="5.99" height="0.61" transform="translate(-6.57 6.02) rotate(-26.04)"/><path class="cls-5" d="M17,14l-.89-1.82a.43.43,0,0,1,.19-.58l2.43-1.19a.44.44,0,0,1,.58.2l.89,1.83A.43.43,0,0,1,20,13l-2.42,1.19A.43.43,0,0,1,17,14Z"/><path class="cls-6" d="M17,14l-.89-1.82a.43.43,0,0,1,.19-.58l2.43-1.19a.43.43,0,0,1,.54.14c-1.62.92-2.49,2.42-2,3.47a1,1,0,0,0,.14.21A.41.41,0,0,1,17,14Z"/><path class="cls-7" d="M16.66,13.42l.11.22,1.11-.54a.55.55,0,0,0,.56.2l.19.37.22-.11-.18-.37a.56.56,0,0,0,.19-.57L20,12.08l-.11-.22-1.09.53-.31-.65,1.08-.53-.1-.22-1.11.54a.57.57,0,0,0-.57-.2L17.58,11l-.23.11.19.37a.56.56,0,0,0-.19.57l-1.12.54.11.22,1.09-.53.32.65ZM17.6,12a.32.32,0,0,1,.15-.43h0a.32.32,0,0,1,.43.15l.42.87a.32.32,0,0,1-.14.43.32.32,0,0,1-.43-.15Z"/><g class="cls-8"><path class="cls-4" d="M18,13.71c-.36-.74.33-1.83,1.55-2.43l.57,1.17A.43.43,0,0,1,20,13l-1.79.88A.8.8,0,0,1,18,13.71Z"/></g></svg>