<svg id="Camada_2" data-name="Camada 2" xmlns="http://www.w3.org/2000/svg" xmlns:xlink="http://www.w3.org/1999/xlink" viewBox="0 0 128 49"><defs><style>.cls-1,.cls-7{fill:none;}.cls-2{fill:#c70039;}.cls-3{clip-path:url(#clip-path);}.cls-4{fill:#900c3f;}.cls-5{clip-path:url(#clip-path-2);}.cls-6{fill:#ff5733;}.cls-7{stroke:#581845;stroke-miterlimit:10;stroke-width:1.5px;}</style><clipPath id="clip-path"><rect id="SVGID" class="cls-1" y="29.64" width="128" height="19.36"/></clipPath><clipPath id="clip-path-2"><rect id="SVGID-2" data-name="SVGID" class="cls-1" width="128" height="25.94"/></clipPath></defs><path class="cls-2" d="M23.36,3.89H126.64a0,0,0,0,1,0,0V47.64a0,0,0,0,1,0,0H23.11A21.74,21.74,0,0,1,1.36,25.89v0a22,22,0,0,1,22-22Z"/><g class="cls-3"><path class="cls-4" d="M23.36,3.89H126.64a0,0,0,0,1,0,0V47.64a0,0,0,0,1,0,0H23.11A21.74,21.74,0,0,1,1.36,25.89v0a22,22,0,0,1,22-22Z"/></g><g class="cls-5"><path class="cls-6" d="M23.36,3.89H126.64a0,0,0,0,1,0,0V47.64a0,0,0,0,1,0,0H23.11A21.74,21.74,0,0,1,1.36,25.89v0a22,22,0,0,1,22-22Z"/></g><path class="cls-7" d="M23.36,3.89H126.64a0,0,0,0,1,0,0V47.64a0,0,0,0,1,0,0H23.11A21.74,21.74,0,0,1,1.36,25.89v0a22,22,0,0,1,22-22Z"/></svg>