<svg id="Camada_2" data-name="Camada 2" xmlns="http://www.w3.org/2000/svg" xmlns:xlink="http://www.w3.org/1999/xlink" viewBox="0 0 128 49"><defs><style>.cls-1,.cls-5{fill:none;}.cls-2{fill:#ff5733;}.cls-3{clip-path:url(#clip-path);}.cls-4{fill:#c70039;}.cls-5{stroke:#900c3f;stroke-miterlimit:10;stroke-width:1.5px;}</style><clipPath id="clip-path"><rect id="SVGID" class="cls-1" x="-0.47" y="-0.19" width="129.08" height="26.15"/></clipPath></defs><path class="cls-2" d="M22.91,3.74H127.23a0,0,0,0,1,0,0V47.85a0,0,0,0,1,0,0H22.65A21.74,21.74,0,0,1,.91,26.1v-.36a22,22,0,0,1,22-22Z"/><g class="cls-3"><path class="cls-4" d="M22.91,3.74H127.23a0,0,0,0,1,0,0V47.85a0,0,0,0,1,0,0H22.65A21.74,21.74,0,0,1,.91,26.1v-.36a22,22,0,0,1,22-22Z"/></g><path class="cls-5" d="M22.91,3.74H127.23a0,0,0,0,1,0,0V47.85a0,0,0,0,1,0,0H22.65A21.74,21.74,0,0,1,.91,26.1v-.36a22,22,0,0,1,22-22Z"/></svg>