# Blender v2.91.2 OBJ File: ''
# www.blender.org
mtllib tableglass.mtl
o Cube_Cube.001
v -2.009496 -1.300234 -0.997395
v 2.014808 -1.300234 1.002125
v 2.014808 -1.300234 -0.997395
v 1.600281 -1.300234 1.002125
v 2.014808 -0.498776 1.002125
v 1.600281 -0.498776 1.002125
v 1.600281 0.396838 0.597614
v 1.600281 -1.098387 0.597614
v -2.009496 -1.300234 -0.799301
v -2.009496 -1.098387 0.597614
v -2.009496 -1.098387 0.798049
v -1.799851 -1.098387 1.002125
v 2.014808 -0.498776 -0.997395
v 1.600281 -0.498776 -0.997395
v -2.009496 -1.300234 0.798049
v -2.009496 -1.098387 1.002125
v 2.014808 -1.098387 -0.997395
v -1.602704 -1.098387 1.002125
v 1.600281 -1.300234 -0.997395
v 2.014808 -1.300234 -0.599421
v 2.014808 -0.498776 -0.599421
v -2.009496 -0.498776 0.597614
v -2.009496 0.396838 -0.799301
v -1.799851 -1.300234 -0.997395
v 2.014808 -1.300234 0.597614
v 2.014808 0.396838 0.798049
v 2.014808 -1.098387 0.597614
v -1.799851 -1.300234 1.002125
v -2.009496 -1.300234 -0.599421
v 2.014808 -1.098387 -0.897597
v -2.009496 -1.098387 -0.897597
v 2.014808 -1.300234 -0.897597
v 1.600281 -0.802869 1.002125
v 2.014808 -0.802869 0.597614
v 2.014808 -0.802869 1.002125
v -2.009496 -0.802869 0.597614
v -2.009496 -0.802869 -0.897597
v 2.014808 -0.802869 -0.897597
v -1.799851 -0.802869 -0.997395
v -1.602704 -0.802869 -0.997395
v 2.014808 -0.802869 -0.799301
v 2.014808 -0.498776 -0.897597
v -2.009496 -0.498776 -0.799301
v 2.014808 -0.498776 -0.799301
v 1.600281 -1.098387 1.002125
v 1.600281 0.396838 1.002125
v -2.009496 -1.300234 -0.897597
v -2.009496 0.396838 0.597614
v -2.009496 0.396838 -0.599421
v -1.602704 -1.098387 -0.599421
v -1.602704 -1.098387 0.597614
v -1.602704 -0.498776 1.002125
v -1.799851 -0.498776 1.002125
v -1.799851 -0.802869 1.002125
v 1.600281 0.396838 -0.997395
v 1.600281 -0.802869 -0.997395
v 1.600281 -1.098387 -0.997395
v -1.602704 -1.098387 -0.997395
v -1.799851 -1.098387 -0.997395
v -1.602704 -1.300234 1.002125
v -1.799851 0.396838 1.002125
v -2.009496 -1.300234 1.002125
v -2.009496 -0.802869 1.002125
v -2.009496 -0.498776 -0.599421
v -1.602704 0.396838 1.002125
v 2.014808 -1.300234 0.798049
v 1.600281 0.396838 -0.599421
v 2.014808 0.396838 -0.599421
v 2.014808 -0.498776 0.798049
v 2.014808 -1.098387 -0.799301
v 2.014808 -1.300234 -0.799301
v -1.799851 -0.498776 -0.997395
v -1.602704 -0.498776 -0.997395
v 2.014808 0.396838 1.002125
v 2.014808 -1.098387 -0.599421
v 2.014808 -0.802869 -0.599421
v 1.600281 0.396838 0.798049
v 2.014808 0.396838 0.597614
v 2.014808 -0.498776 0.597614
v 1.600281 0.396838 -0.799301
v 2.014808 0.396838 -0.799301
v 1.600281 -1.098387 -0.599421
v 2.014808 0.396838 -0.897597
v -1.602704 -1.300234 -0.997395
v 2.014808 -1.098387 1.002125
v 2.014808 -1.098387 0.798049
v 2.014808 -0.802869 0.798049
v -1.602704 -0.802869 1.002125
v -2.009496 -0.802869 -0.997395
v 2.014808 0.396838 -0.997395
v -2.009496 -1.098387 -0.997395
v -2.009496 -0.802869 0.798049
v 1.600281 0.396838 -0.897597
v 2.014808 -0.802869 -0.997395
v -2.009496 -0.498776 -0.897597
v 1.600281 0.396838 -0.799301
v -1.799851 0.396838 1.002125
v 1.600281 0.396838 -0.599421
v 1.600281 0.396838 0.798049
v 1.600281 0.396838 0.597614
v 2.014808 0.396838 -0.897597
v 1.600281 0.396838 -0.897597
v 1.600281 0.396838 -0.799301
v 2.014808 0.396838 -0.799301
v 2.014808 0.396838 -0.997395
v 1.600281 0.396838 -0.997395
v 1.600281 0.396838 -0.897597
v 2.014808 0.396838 -0.897597
v -2.009496 -0.498776 -0.997395
v -2.009496 -0.802869 -0.799301
v -2.009496 -1.098387 -0.799301
v -2.009496 -0.498776 1.002125
v -2.009496 0.396838 1.002125
v -2.009496 -0.498776 0.798049
v -1.602704 -0.498776 1.002125
v -1.602704 0.396838 1.002125
v -1.799851 0.396838 1.002125
v -1.799851 -0.498776 1.002125
v -1.602704 -0.802869 1.002125
v -1.602704 -0.498776 1.002125
v -1.799851 -0.498776 1.002125
v -1.799851 -0.802869 1.002125
v 2.014808 -0.498776 -0.599421
v 2.014808 0.396838 -0.599421
v 2.014808 0.396838 0.597614
v 2.014808 -0.498776 0.597614
v 2.014808 -0.498776 0.597614
v 2.014808 0.396838 0.597614
v 2.014808 0.396838 0.798049
v 2.014808 -0.498776 0.798049
v 2.014808 -0.802869 0.597614
v 2.014808 -0.498776 0.597614
v 2.014808 -0.498776 0.798049
v 2.014808 -0.802869 0.798049
v 2.014808 -0.802869 -0.599421
v 2.014808 -0.498776 -0.599421
v 2.014808 -0.498776 0.597614
v 2.014808 -0.802869 0.597614
v 2.014808 -1.098387 -0.599421
v 2.014808 -0.802869 -0.599421
v 2.014808 -0.802869 0.597614
v 2.014808 -1.098387 0.597614
v 2.014808 -1.098387 0.597614
v 2.014808 -0.802869 0.597614
v 2.014808 -0.802869 0.798049
v 2.014808 -1.098387 0.798049
v 2.014808 -1.098387 0.597614
v 2.014808 -1.098387 0.798049
v 2.014808 -1.300234 0.798049
v 2.014808 -1.300234 0.597614
v 2.014808 -1.098387 -0.799301
v 2.014808 -1.098387 -0.599421
v 2.014808 -1.300234 -0.599421
v 2.014808 -1.300234 -0.799301
v 2.014808 -1.098387 0.597614
v 2.014808 -1.300234 0.597614
v 2.014808 -1.300234 0.798049
v 2.014808 -1.098387 0.798049
v -2.009496 0.396838 0.798049
v -1.799851 0.396838 0.798049
v -1.799851 0.396838 -0.599421
v -1.602704 0.396838 -0.599421
v -1.602704 0.396838 0.597614
v -1.799851 0.396838 0.597614
v -1.602704 -1.098387 1.002125
v -1.602704 -1.300234 1.002125
v -1.799851 -1.300234 1.002125
v -1.799851 -1.098387 1.002125
v -1.602704 0.396838 1.002125
v -1.799851 0.396838 1.002125
v -1.701188 0.396838 -0.947406
v -1.799851 -1.098387 -0.997395
v -1.799851 -1.300234 -0.997395
v -1.602704 -1.300234 -0.997395
v -1.602704 -1.098387 -0.997395
v -1.799851 -0.498776 -0.997395
v -1.602704 -0.498776 -0.997395
v -1.799851 -0.802869 -0.997395
v -1.602704 -0.802869 -0.997395
v -1.799851 -0.802869 1.002125
v -1.602704 -0.802869 1.002125
v -1.602704 -0.498776 1.002125
v -1.799851 -0.498776 1.002125
v -1.602704 0.396838 0.798049
v -1.602704 -0.498776 1.002125
v -1.799851 -0.498776 1.002125
v -1.799851 0.396838 1.002125
v -1.602704 0.396838 1.002125
v -1.602704 -0.802869 1.002125
v -1.799851 -0.802869 1.002125
v -1.799851 -0.498776 1.002125
v -1.602704 -0.498776 1.002125
v -1.799851 0.396838 1.002125
v -2.009496 0.396838 -0.897597
v -2.009496 0.396838 -0.997395
v -2.009496 -1.098387 -0.599421
v -2.009496 -0.802869 -0.599421
v -2.009496 -1.098387 -0.599421
v -2.009496 -0.802869 -0.599421
v -2.009496 -0.802869 -0.799301
v -2.009496 -1.098387 -0.799301
v -2.009496 -0.498776 -0.897597
v -2.009496 0.396838 -0.897597
v -2.009496 0.396838 -0.997395
v -2.009496 -0.498776 -0.997395
v -2.009496 -0.498776 1.002125
v -2.009496 0.396838 1.002125
v -2.009496 0.396838 0.798049
v -2.009496 -0.498776 0.798049
v -2.009496 0.396838 0.900153
v -1.701277 0.396838 0.697897
v -1.602932 0.396838 0.798049
v -1.903496 0.396838 0.900153
v -1.799851 0.396838 -0.898051
v -1.799851 0.396838 -0.997395
v -1.799851 0.396838 -0.897597
v -1.602704 0.396838 -0.897597
v -1.602704 0.396838 -0.997395
v -1.602704 0.396838 -0.897238
v -1.602704 0.396838 -0.599421
v -1.602704 0.396838 -0.799301
v -1.799851 0.396838 -0.799301
v -1.799851 0.396838 -0.599421
v -2.009496 -0.498776 -0.897597
v -2.009496 0.396838 -0.897597
v -2.009496 0.396838 -0.997395
v -2.009496 -0.498776 -0.997395
v -1.602704 0.396838 0.798049
v -1.799851 0.396838 0.798049
v -1.799851 0.396838 1.002125
v -1.602704 0.396838 1.002125
v -2.009496 -0.498776 -0.897597
v -2.009496 0.396838 -0.897597
v -2.009496 0.396838 -0.997395
v -2.009496 -0.498776 -0.997395
v -2.009496 -0.498776 -0.897597
v -2.009496 -0.498776 -0.997395
v -2.009496 0.396838 -0.997395
v -2.009496 0.396838 -0.897597
v -2.009496 -1.098387 -0.599421
v -2.009496 -0.802869 -0.599421
v -2.009496 -0.802869 -0.799301
v -2.009496 -1.098387 -0.799301
v -2.009496 -0.498776 1.002125
v -2.009496 0.396838 1.002125
v -2.009496 0.396838 0.798049
v -2.009496 -0.498776 0.798049
vt 0.505454 0.273425
vt 0.505454 0.485211
vt 0.533461 0.485211
vt 0.533461 0.273425
vt 0.505454 0.273425
vt 0.505454 0.485211
vt 0.533461 0.485211
vt 0.533461 0.273425
vt 0.533461 0.485211
vt 0.478074 0.485211
vt 0.478074 0.621925
vt 0.533461 0.621925
vt 0.478074 0.273425
vt 0.478074 0.485211
vt 0.533461 0.485211
vt 0.533461 0.273425
vt 0.292106 0.515086
vt 0.352812 0.515086
vt 0.352812 0.455802
vt 0.292106 0.455802
vt 0.519368 0.090906
vt 0.533461 0.090906
vt 0.533461 0.031221
vt 0.519368 0.031221
vt 0.028211 0.090906
vt -0.000014 0.090906
vt -0.000014 0.031221
vt 0.028211 0.031221
vt 0.505454 0.090906
vt 0.533461 0.090906
vt 0.533461 0.031221
vt 0.505454 0.031221
vt 0.055411 0.090906
vt 0.055411 0.031221
vt 0.055411 0.182147
vt 0.055411 0.273425
vt 0.478074 0.273425
vt 0.478074 0.182147
vt -0.000014 0.182147
vt -0.000014 0.273425
vt 0.505454 0.182147
vt 0.533461 0.182147
vt 0.028211 0.182147
vt 0.028211 0.273425
vt 0.519411 0.182147
vt 0.519411 0.273425
vt 0.533461 0.273425
vt 0.533461 0.182147
vt 0.028211 0.273425
vt 0.028211 0.485211
vt 0.055411 0.485211
vt 0.055411 0.273425
vt 0.505931 0.939128
vt 0.533131 0.939128
vt 0.533131 0.485211
vt 0.505931 0.485211
vt 0.533461 0.485211
vt 0.478074 0.485211
vt 0.478074 0.621925
vt 0.533461 0.621925
vt 0.478074 0.273425
vt 0.055411 0.273425
vt 0.055411 0.485211
vt 0.478074 0.485211
vt 0.028211 0.182147
vt 0.055411 0.182147
vt 0.478074 0.273425
vt 0.478074 0.182147
vt 0.055411 0.182147
vt 0.055411 0.273425
vt -0.000014 0.090906
vt 0.028211 0.090906
vt 0.028211 0.031221
vt -0.000014 0.031221
vt -0.000014 0.182147
vt -0.000014 0.273425
vt 0.028211 0.273425
vt 0.028211 0.182147
vt 0.055411 0.273425
vt 0.055411 0.182147
vt 0.028211 0.485211
vt 0.028211 0.273425
vt 0.055411 0.273425
vt 0.055411 0.485211
vt 0.013996 0.182147
vt 0.013996 0.273425
vt 0.013973 0.090906
vt 0.028211 0.090906
vt 0.028211 0.031221
vt 0.013973 0.031221
vt 0.045050 1.000247
vt 0.488898 1.000247
vt 0.488898 0.939128
vt 0.045050 0.939128
vt 0.045050 0.968644
vt 0.013996 0.485211
vt 0.055411 0.485211
vt 0.055411 0.273425
vt 0.028211 0.273425
vt 0.028211 0.485211
vt 0.478074 0.090906
vt 0.505454 0.090906
vt 0.505454 0.031221
vt 0.478074 0.031221
vt 0.478074 0.182147
vt 0.478074 0.273425
vt 0.505454 0.273425
vt 0.505454 0.182147
vt 0.027186 0.591075
vt -0.000014 0.591075
vt -0.000014 0.740955
vt 0.027186 0.740955
vt 0.478074 0.090906
vt 0.478074 0.031221
vt -0.000014 0.743446
vt 0.028211 0.743446
vt 0.028211 0.591075
vt -0.000014 0.591075
vt 0.505931 0.968547
vt 0.505931 1.000247
vt 0.533131 1.000247
vt 0.533131 0.968547
vt 0.505931 0.698564
vt 0.505931 0.939128
vt 0.533131 0.939128
vt 0.533131 0.698564
vt 0.533461 0.485211
vt 0.533461 0.273425
vt 0.478074 0.273425
vt 0.478074 0.485211
vt 0.028211 0.090906
vt 0.055411 0.090906
vt 0.055411 0.031221
vt 0.028211 0.031221
vt 0.028211 0.273425
vt 0.028211 0.485211
vt 0.055411 0.485211
vt 0.055411 0.273425
vt 0.055411 0.090906
vt -0.000014 0.090906
vt -0.000014 0.031221
vt 0.055411 0.031221
vt 0.055411 0.182147
vt 0.478074 0.273425
vt 0.478074 0.182147
vt 0.028211 0.182147
vt 0.055411 0.182147
vt 0.055411 0.273425
vt -0.000014 0.273425
vt -0.000014 0.182147
vt -0.000014 0.182147
vt -0.000014 0.273425
vt -0.000014 0.485211
vt -0.000014 0.090906
vt -0.000014 0.031221
vt 0.533461 0.485211
vt 0.478074 0.485211
vt 0.478074 0.939128
vt 0.533461 0.939128
vt 0.478074 0.273425
vt 0.478074 0.485211
vt 0.055411 0.031221
vt 0.055411 0.090906
vt 0.055411 0.182147
vt 0.055411 0.273425
vt -0.000014 0.485211
vt -0.000014 0.273425
vt 0.055411 0.090906
vt 0.055411 0.031221
vt 0.478074 0.182147
vt 0.478074 0.273425
vt -0.000014 0.485211
vt 0.013996 0.273425
vt 0.013996 0.485211
vt 0.014262 0.182147
vt 0.014262 0.090906
vt 0.478074 0.090906
vt 0.478074 0.090906
vt 0.055411 0.090906
vt 0.028211 0.182147
vt 0.028211 0.090906
vt -0.000014 0.090906
vt -0.000014 0.182147
vt -0.000014 0.485211
vt -0.000014 0.273425
vt 0.533461 0.970017
vt 0.533461 0.939128
vt 0.478074 0.939128
vt 0.478074 0.970017
vt 0.478074 0.485211
vt 0.533461 0.969652
vt 0.478074 0.969652
vt 0.478074 0.884246
vt 0.533461 0.884246
vt 0.533461 1.000247
vt 0.478074 1.000247
vt 0.533461 0.970017
vt 0.478074 0.970017
vt 0.478074 0.939128
vt 0.533461 0.939128
vt 0.533461 1.000247
vt 0.478074 1.000247
vt 0.478074 0.970017
vt 0.533461 0.970017
vt 0.478074 0.273425
vt 0.478074 0.485211
vt 0.505454 0.485211
vt 0.505454 0.273425
vt 0.478074 0.182147
vt 0.478074 0.273425
vt 0.505454 0.273425
vt 0.505454 0.182147
vt 0.478074 0.273425
vt 0.478074 0.485211
vt 0.505454 0.485211
vt 0.505454 0.273425
vt 0.055411 0.182147
vt 0.055411 0.273425
vt 0.028211 0.273425
vt 0.028211 0.182147
vt 0.478074 0.182147
vt 0.478074 0.273425
vt 0.055411 0.273425
vt 0.055411 0.182147
vt 0.478074 0.090906
vt 0.478074 0.182147
vt 0.055411 0.182147
vt 0.055411 0.090906
vt 0.055411 0.090906
vt 0.055411 0.182147
vt 0.028211 0.182147
vt 0.028211 0.090906
vt 0.055411 0.090906
vt 0.028211 0.090906
vt 0.028211 0.031221
vt 0.055411 0.031221
vt 0.028211 0.090906
vt 0.055411 0.090906
vt 0.055411 0.031221
vt 0.028211 0.031221
vt 0.055411 0.090906
vt 0.055411 0.031221
vt 0.028211 0.031221
vt 0.028211 0.090906
vt 0.885363 0.547457
vt 0.885363 0.567181
vt 0.865638 0.567181
vt 0.478074 0.090906
vt 0.478074 0.031221
vt 0.505454 0.031221
vt 0.505454 0.090906
vt 0.055411 0.740955
vt 0.055411 0.893327
vt 0.027186 0.893327
vt 0.028211 0.090906
vt 0.028211 0.031221
vt 0.055411 0.031221
vt 0.055411 0.090906
vt 0.028211 0.273425
vt 0.055411 0.273425
vt 0.028211 0.182147
vt 0.055411 0.182147
vt 0.505454 0.182147
vt 0.478074 0.182147
vt 0.478074 0.273425
vt 0.505454 0.273425
vt 0.478074 0.485211
vt 0.505454 0.485211
vt 0.478074 0.273425
vt 0.505454 0.273425
vt 0.505454 0.485211
vt 0.478074 0.485211
vt 0.478074 0.182147
vt 0.505454 0.182147
vt 0.505454 0.273425
vt 0.478074 0.273425
vt 0.505454 0.485211
vt 0.505454 0.485211
vt 0.478074 0.090906
vt 0.478074 0.182147
vt 0.505454 0.182147
vt 0.505454 0.090906
vt -0.000014 0.485211
vt -0.000014 0.273425
vt 0.014099 0.379318
vt 0.028211 0.273425
vt 0.028211 0.485211
vt 0.000000 0.000000
vt 0.000000 0.000000
vt 0.000000 0.000000
vt 0.055411 0.591075
vt 0.041299 0.666015
vt 0.013586 0.817141
vt -0.000014 0.893327
vt 0.027186 0.893327
vt 0.505269 0.947850
vt 0.478337 0.487756
vt 0.505269 0.487756
vt 0.478337 0.947850
vt 0.037189 0.968637
vt 0.049220 0.968637
vt 0.043217 0.981425
vt 0.026601 0.991138
vt 0.026601 0.968895
vt 0.030679 0.979800
vt 0.026629 0.925720
vt 0.055515 0.968065
vt 0.026629 0.968219
vt 0.049220 0.968637
vt 0.049220 0.995459
vt 0.037189 0.995459
vt 0.055515 0.925720
vt 0.055499 0.939128
vt 0.055499 0.698564
vt 0.027274 0.698564
vt 0.027274 0.939128
vt 0.013996 0.485211
vt 0.013996 0.273425
vt -0.000014 0.273425
vt -0.000014 0.485211
vt 0.055411 0.968547
vt 0.055411 1.000247
vt 0.055411 1.000247
vt 0.055411 0.968547
vt 0.055411 0.740955
vt 0.027186 0.740955
vt 0.027186 0.893327
vt 0.055411 0.893327
vt 0.028211 0.743446
vt -0.000014 0.743446
vt 0.013996 0.485211
vt 0.013996 0.273425
vt -0.000014 0.273425
vt -0.000014 0.485211
vt 0.013996 0.485211
vt -0.000014 0.485211
vt -0.000014 0.273425
vt 0.013996 0.273425
vt 0.055411 0.968547
vt 0.055411 0.968547
vt 0.055411 1.000247
vt 0.055411 1.000247
vt -0.000014 0.273425
vt -0.000014 0.485211
vt 0.519411 0.273425
vt 0.533461 0.273425
vt 0.478074 0.090906
vt 0.478074 0.182147
vt 0.505454 0.182147
vt 0.505454 0.090906
vt -0.000014 0.485211
vt -0.000014 0.273425
vt 0.028211 0.273425
vt 0.028211 0.485211
vt -0.000014 0.273425
vt 0.028211 0.273425
vt 0.533461 0.485211
vt 0.533461 0.273425
vt 0.569112 0.174789
vt 0.569112 0.205573
vt 0.630736 0.205573
vt 0.630736 0.174789
vt 0.629235 0.212752
vt 0.569529 0.212752
vt 0.569529 0.219971
vt 0.629235 0.219971
vt 0.584586 0.174602
vt 0.584586 0.204321
vt 0.618032 0.204321
vt 0.618032 0.174602
vt 0.569122 0.174556
vt 0.569122 0.205733
vt 0.630735 0.205733
vt 0.630735 0.174556
vt 0.629235 0.263464
vt 0.569529 0.263464
vt 0.629235 0.270717
vt 0.569529 0.270717
vt 0.584586 0.204321
vt 0.618032 0.204321
vt 0.618032 0.174602
vt 0.584586 0.174602
vt 0.629235 0.270717
vt 0.629235 0.263464
vt 0.629235 0.212752
vt 0.629235 0.219971
vt 0.584586 0.204321
vt 0.584586 0.174602
vt 0.618032 0.174602
vt 0.618032 0.204321
vn 1.0000 0.0000 0.0000
vn 0.0000 0.0000 1.0000
vn 0.0000 1.0000 0.0000
vn -1.0000 0.0000 0.0000
vn 0.0000 -1.0000 0.0000
vn 0.0000 0.0000 -1.0000
usemtl table
s off
f 69/1/1 26/2/1 74/3/1 5/4/1
f 53/5/2 61/6/2 113/7/2 112/8/2
f 26/9/3 77/10/3 46/11/3 74/12/3
f 5/13/2 74/14/2 46/15/2 6/16/2
f 77/17/3 184/18/3 65/19/3 46/20/3
f 31/21/4 91/22/4 1/23/4 47/24/4
f 86/25/1 85/26/1 2/27/1 66/28/1
f 12/29/2 16/30/2 62/31/2 28/32/2
f 85/26/2 45/33/2 4/34/2 2/27/2
f 33/35/2 6/36/2 52/37/2 88/38/2
f 35/39/2 5/40/2 6/36/2 33/35/2
f 54/41/2 53/5/2 112/8/2 63/42/2
f 87/43/1 69/44/1 5/40/1 35/39/1
f 37/45/4 95/46/4 109/47/4 89/48/4
f 44/49/1 81/50/1 68/51/1 21/52/1
f 161/53/3 49/54/3 48/55/3 164/56/3
f 78/57/3 7/58/3 77/59/3 26/60/3
f 50/61/5 82/62/5 8/63/5 51/64/5
f 41/65/1 44/49/1 21/52/1 76/66/1
f 36/67/4 22/68/4 64/69/4 197/70/4
f 16/71/4 11/72/4 15/73/4 62/74/4
f 63/75/4 112/76/4 114/77/4 92/78/4
f 92/78/4 114/77/4 22/79/4 36/80/4
f 114/81/4 159/82/4 48/83/4 22/84/4
f 38/85/1 42/86/1 44/49/1 41/65/1
f 30/87/1 70/88/1 71/89/1 32/90/1
f 55/91/3 218/92/3 221/93/3 80/94/3 93/95/3
f 42/86/1 83/96/1 81/50/1 44/49/1
f 64/97/4 49/98/4 23/99/4 43/100/4
f 196/101/4 111/102/4 9/103/4 29/104/4
f 197/105/4 64/106/4 43/107/4 110/108/4
f 164/109/3 48/110/3 159/111/3 160/112/3
f 18/113/2 12/29/2 28/32/2 60/114/2
f 184/115/3 160/116/3 61/117/3 65/118/3
f 216/119/3 215/120/3 195/121/3 194/122/3
f 161/123/3 222/124/3 23/125/3 49/126/3
f 14/127/6 55/128/6 90/129/6 13/130/6
f 59/131/6 58/132/6 84/133/6 24/134/6
f 72/135/6 215/136/6 218/137/6 73/138/6
f 57/139/6 17/140/6 3/141/6 19/142/6
f 40/143/6 73/138/6 14/144/6 56/145/6
f 39/146/6 72/135/6 73/138/6 40/143/6
f 56/147/6 14/148/6 13/149/6 94/150/6
f 89/151/6 109/152/6 72/135/6 39/146/6
f 109/152/6 195/153/6 215/136/6 72/135/6
f 91/154/6 59/131/6 24/134/6 1/155/6
f 68/156/3 67/157/3 7/158/3 78/159/3
f 79/160/4 69/1/4 26/2/4 78/161/4
f 70/88/4 71/89/4 20/162/4 75/163/4
f 34/164/4 87/43/4 69/44/4 79/165/4
f 112/166/1 114/81/1 159/82/1 113/167/1
f 27/168/4 25/169/4 66/28/4 86/25/4
f 76/170/4 34/164/4 79/165/4 21/171/4
f 222/124/3 216/119/3 194/122/3 23/125/3
f 13/149/1 90/172/1 83/96/1 42/86/1
f 17/140/1 30/87/1 32/90/1 3/141/1
f 94/150/1 13/149/1 42/86/1 38/85/1
f 110/108/4 43/107/4 95/46/4 37/45/4
f 111/102/4 31/21/4 47/24/4 9/103/4
f 43/100/4 23/99/4 194/173/4 95/174/4
f 111/102/4 110/108/4 37/45/4 31/21/4
f 17/140/1 94/150/1 38/175/1 30/176/1
f 75/177/4 27/168/4 34/164/4 76/170/4
f 27/168/4 86/25/4 87/43/4 34/164/4
f 91/154/6 89/151/6 39/146/6 59/131/6
f 57/139/6 56/147/6 94/150/6 17/140/6
f 59/131/6 39/146/6 40/143/6 58/132/6
f 58/132/6 40/143/6 56/145/6 57/178/6
f 18/113/2 88/38/2 54/41/2 12/29/2
f 30/176/1 38/175/1 41/65/1 70/88/1
f 11/72/4 92/78/4 36/80/4 10/179/4
f 16/71/4 63/75/4 92/78/4 11/72/4
f 10/179/4 36/80/4 197/105/4 196/101/4
f 70/88/1 41/65/1 76/66/1 75/163/1
f 31/21/4 37/45/4 89/48/4 91/22/4
f 86/180/1 87/181/1 35/182/1 85/183/1
f 12/29/2 54/41/2 63/42/2 16/30/2
f 85/26/2 35/39/2 33/35/2 45/33/2
f 45/33/2 33/35/2 88/38/2 18/113/2
f 95/174/1 109/184/1 195/185/1 194/173/1
f 83/186/5 81/187/5 80/188/5 93/189/5
f 88/38/6 54/41/6 53/5/6 52/37/6
f 52/37/6 53/5/6 61/6/6 65/190/6
f 81/191/3 80/192/3 67/193/3 68/194/3
f 90/195/5 83/186/5 93/189/5 55/196/5
f 196/101/1 111/102/1 110/108/1 197/105/1
f 101/197/3 102/198/3 103/199/3 104/200/3
f 105/201/3 106/202/3 107/203/3 108/204/3
f 115/205/2 116/206/2 117/207/2 118/208/2
f 119/209/2 120/210/2 121/211/2 122/212/2
f 127/213/1 128/214/1 129/215/1 130/216/1
f 131/217/1 132/218/1 133/219/1 134/220/1
f 135/221/1 136/222/1 137/223/1 138/224/1
f 139/225/1 140/226/1 141/227/1 142/228/1
f 143/229/1 144/230/1 145/231/1 146/232/1
f 147/233/1 148/234/1 149/235/1 150/236/1
f 151/237/1 152/238/1 153/239/1 154/240/1
f 155/241/4 156/242/4 157/243/4 158/244/4
f 218/245/2 221/246/2 162/247/2
f 165/248/6 166/249/6 167/250/6 168/251/6
f 184/252/5 169/253/5 170/254/5 160/112/5
f 172/255/2 173/256/2 174/257/2 175/258/2
f 176/259/2 177/260/2 218/137/2 215/136/2
f 178/261/2 179/262/2 177/260/2 176/259/2
f 172/255/2 175/258/2 179/262/2 178/261/2
f 165/248/6 168/251/6 180/263/6 181/264/6
f 181/264/2 182/265/2 183/266/2 180/263/2
f 182/265/2 169/267/2 170/268/2 183/266/2
f 185/269/6 186/270/6 187/271/6 188/272/6
f 189/273/6 190/274/6 191/275/6 192/276/6
f 24/134/2 84/133/2 174/257/2 173/256/2
f 61/6/2 97/277/2 193/278/2 170/268/2
f 198/279/4 199/280/4 200/281/4 201/282/4
f 206/283/4 207/284/4 210/285/4
f 207/284/3 208/286/3 210/285/3
f 208/286/4 209/287/4 210/285/4
f 209/287/4 206/283/4 210/285/4
f 61/288/2 170/289/2 97/290/2
f 163/291/3 164/109/3 211/292/3
f 164/109/3 160/112/3 211/292/3
f 160/112/3 184/252/3 211/292/3
f 184/252/3 163/291/3 211/292/3
f 160/112/3 159/111/3 213/293/3
f 159/111/3 113/294/3 213/293/3
f 113/294/3 97/295/3 213/293/3
f 97/295/3 160/112/3 213/293/3
f 164/296/3 162/297/3 161/298/3
f 164/296/3 163/299/3 162/297/3
f 216/300/3 219/301/3 171/302/3
f 215/303/3 214/304/3 171/305/3
f 222/306/3 219/307/3 216/308/3
f 217/309/3 218/310/3 171/302/3
f 218/310/3 215/311/3 171/302/3
f 222/306/3 221/312/3 219/307/3
f 220/313/3 221/314/3 222/315/3 223/316/3
f 224/317/4 225/318/4 226/319/4 227/320/4
f 194/321/2 195/322/2 226/323/2 225/324/2
f 228/325/3 229/326/3 230/327/3 231/328/3
f 170/254/2 169/253/2 231/328/2 230/327/2
f 160/112/2 170/254/2 230/327/2 229/326/2
f 184/115/2 160/116/2 229/329/2 228/330/2
f 169/253/2 184/252/2 228/325/2 231/328/2
f 232/331/4 233/332/4 234/333/4 235/334/4
f 236/335/1 237/336/1 238/337/1 239/338/1
f 233/339/2 239/340/2 238/341/2 234/342/2
f 225/318/2 224/317/2 236/335/2 239/338/2
f 195/153/2 109/152/2 235/343/2 234/344/2
f 109/47/2 95/46/2 232/345/2 235/346/2
f 226/323/2 195/322/2 234/342/2 238/341/2
f 224/317/2 227/320/2 237/336/2 236/335/2
f 95/174/2 194/173/2 233/332/2 232/331/2
f 194/321/2 225/324/2 239/340/2 233/339/2
f 227/320/2 226/319/2 238/337/2 237/336/2
f 240/347/4 241/348/4 242/349/4 243/350/4
f 110/108/2 111/102/2 243/350/2 242/349/2
f 111/102/2 196/101/2 240/347/2 243/350/2
f 196/101/2 197/105/2 241/348/2 240/347/2
f 197/105/2 110/108/2 242/349/2 241/348/2
f 244/351/4 245/352/4 246/353/4 247/354/4
f 114/77/2 112/76/2 244/355/2 247/356/2
f 159/82/2 114/81/2 247/354/2 246/353/2
f 113/167/2 159/82/2 246/353/2 245/352/2
f 112/8/2 113/7/2 245/357/2 244/358/2
usemtl gglass
f 6/359/2 46/360/2 65/361/2 52/362/2
f 77/363/5 184/364/5 163/365/5 7/366/5
f 22/367/4 48/368/4 49/369/4 64/370/4
f 73/371/6 218/372/6 55/373/6 14/374/6
f 67/375/3 162/376/3 163/365/3 7/366/3
f 80/377/5 67/375/5 162/376/5 221/378/5
f 21/379/4 79/380/4 78/381/4 68/382/4
f 96/383/3 221/378/3 162/376/3 98/384/3
f 99/385/3 100/386/3 163/365/3 184/364/3
f 123/387/1 124/388/1 125/389/1 126/390/1
l 202 203
l 204 205
l 202 205
l 184 212
l 93 217
o Plane
v -1.000000 -0.500000 -0.000000
v 1.000000 -0.500000 -0.000000
v -1.000000 0.300000 0.000000
v 1.000000 0.300000 0.000000
vt 0.677593 0.511095
vt 0.844208 0.511095
vt 0.844208 0.941374
vt 0.677593 0.941374
vn 0.0000 -0.0000 1.0000
usemtl Material
s off
f 248/391/7 249/392/7 251/393/7 250/394/7
