# Blender v2.91.2 OBJ File: ''
# www.blender.org
mtllib train2.mtl
o poly.002_Mesh
v 0.096079 -0.012070 -0.007272
v 0.096079 0.012079 -0.007272
v 0.096079 0.012079 0.017498
v 0.096079 -0.012070 0.017498
v 0.096079 0.007604 0.010084
v 0.096079 0.007605 0.000155
v 0.096079 -0.007822 0.010084
v 0.096079 -0.007816 0.000155
v 0.099064 0.007605 0.000155
v 0.099064 -0.007816 0.000155
v 0.099064 0.007604 0.010084
v 0.099064 -0.007822 0.010084
v 0.096079 0.017746 -0.005753
v 0.096079 0.017746 0.015980
v 0.004450 -0.012079 -0.005770
v 0.004450 -0.012079 -0.007272
v 0.096079 -0.012079 -0.005770
v 0.004450 -0.016582 -0.005770
v 0.096079 -0.016582 -0.005770
v 0.004450 -0.012061 0.017498
v 0.004450 -0.012079 0.015996
v 0.096079 -0.012079 0.015996
v 0.004450 -0.016582 0.015996
v 0.096079 -0.016582 0.015996
v 0.004450 0.012079 -0.007272
v 0.004450 0.017746 -0.005753
v 0.004450 0.012079 0.017498
v 0.004450 0.017746 0.015980
v 0.069406 -0.016582 0.015996
v 0.069406 -0.012079 0.015996
v 0.069406 -0.012079 0.017498
v 0.069406 0.012079 0.017498
v 0.069406 0.017746 0.015980
v 0.069406 0.017746 -0.005753
v 0.069406 0.012079 -0.007272
v 0.069406 -0.012079 -0.007272
v 0.069406 -0.012079 -0.005770
v 0.069406 -0.016582 -0.005770
v 0.031465 -0.016582 0.015996
v 0.031465 -0.012079 0.015996
v 0.031465 -0.012079 0.017498
v 0.031465 0.012079 0.017498
v 0.031465 0.017746 0.015980
v 0.031465 0.017746 -0.005753
v 0.031465 0.012079 -0.007272
v 0.031465 -0.012079 -0.007272
v 0.031465 -0.012079 -0.005770
v 0.031465 -0.016582 -0.005770
v 0.069406 0.017746 0.013111
v 0.031465 0.017746 0.013111
v 0.069406 0.017746 -0.002755
v 0.031465 0.017746 -0.002755
v 0.033898 0.020923 0.012093
v 0.033898 0.020923 -0.001737
v 0.066973 0.020923 0.012093
v 0.066973 0.020923 -0.001737
v 0.004450 0.007604 0.000143
v 0.004450 0.007605 0.010071
v 0.004450 -0.007822 0.000143
v 0.004450 -0.007816 0.010071
v 0.001466 0.007605 0.010071
v 0.001466 -0.007816 0.010071
v 0.001466 0.007604 0.000143
v 0.001466 -0.007822 0.000143
vt 0.938256 0.650573
vt 0.938256 0.715293
vt 0.972440 0.650573
vt 0.972440 0.715293
vt 0.997969 0.632738
vt 0.912685 0.632738
vt 0.972440 0.650573
vt 0.938256 0.650573
vt 0.997969 0.734068
vt 0.972440 0.715293
vt 0.912685 0.734068
vt 0.938256 0.715293
vt 0.912526 0.735517
vt 0.997349 0.735517
vt 0.912526 0.758823
vt 0.997349 0.758823
vt 0.000000 0.780002
vt 0.113481 0.780002
vt 0.000000 0.798918
vt 0.113481 0.798918
vt 0.200407 0.038848
vt 0.200407 0.067024
vt 0.313888 0.038848
vt 0.313888 0.067024
vt 0.000000 0.780002
vt 0.113481 0.780002
vt 0.000000 0.798918
vt 0.113481 0.798918
vt 0.200407 0.038848
vt 0.313888 0.038848
vt 0.200407 0.067024
vt 0.313888 0.067024
vt 0.209873 0.232308
vt 0.209873 0.256956
vt 0.323354 0.232308
vt 0.323354 0.256956
vt 0.200176 0.065933
vt 0.200176 0.233166
vt 0.313313 0.065933
vt 0.313313 0.233166
vt 0.209873 0.232308
vt 0.323354 0.232308
vt 0.209873 0.256956
vt 0.323354 0.256956
vt 0.200176 0.066969
vt 0.313531 0.066969
vt 0.200176 0.233260
vt 0.313531 0.233260
vt 0.232270 0.276396
vt 0.024982 0.266633
vt 0.232270 0.266633
vt 0.687950 0.038848
vt 0.799999 0.038848
vt 0.687950 0.067024
vt 0.799999 0.067024
vt 0.272866 0.798918
vt 0.272866 0.780002
vt 0.384915 0.798918
vt 0.384915 0.780002
vt 0.275203 0.973467
vt 0.275203 0.806900
vt 0.412292 0.973467
vt 0.412292 0.806900
vt 0.482739 0.256956
vt 0.482739 0.232308
vt 0.594788 0.256956
vt 0.594788 0.232308
vt 0.767886 0.350308
vt 0.975315 0.360509
vt 0.767886 0.360509
vt 0.482739 0.232308
vt 0.482739 0.256956
vt 0.594788 0.232308
vt 0.594788 0.256956
vt 0.275203 0.806900
vt 0.275203 0.973467
vt 0.412292 0.806900
vt 0.412292 0.973467
vt 0.272866 0.798918
vt 0.272866 0.780002
vt 0.384915 0.798918
vt 0.384915 0.780002
vt 0.687950 0.038848
vt 0.687950 0.067024
vt 0.799999 0.038848
vt 0.799999 0.067024
vt 0.473273 0.038848
vt 0.473273 0.067024
vt 0.313313 0.233166
vt 0.313313 0.065933
vt 0.486813 0.233166
vt 0.486813 0.065933
vt 0.231469 0.623950
vt 0.231469 0.594014
vt 0.399688 0.623950
vt 0.399688 0.594014
vt 0.486813 0.065933
vt 0.486813 0.233166
vt 0.473273 0.038848
vt 0.473273 0.067024
vt 0.232338 0.573723
vt 0.232338 0.493384
vt 0.399673 0.573723
vt 0.399673 0.493384
vt 0.231469 0.623950
vt 0.231469 0.594014
vt 0.399688 0.623950
vt 0.399688 0.594014
vt 0.199924 0.473092
vt 0.200134 0.573069
vt 0.231423 0.473092
vt 0.231423 0.573069
vt 0.231525 0.474164
vt 0.399123 0.474164
vt 0.231525 0.493907
vt 0.399123 0.493458
vt 0.424244 0.573533
vt 0.424948 0.473757
vt 0.400129 0.573533
vt 0.400129 0.473757
vt 0.232197 0.593104
vt 0.400836 0.592207
vt 0.232197 0.573362
vt 0.400836 0.573362
vt 0.024982 0.359943
vt 0.232270 0.349742
vt 0.232270 0.359943
vt 0.975315 0.267356
vt 0.767886 0.277119
vt 0.767886 0.267356
vt 0.912685 0.614130
vt 0.912685 0.632738
vt 0.997969 0.614130
vt 0.997969 0.632738
vt 0.912685 0.614130
vt 0.997969 0.614130
vt 0.912685 0.632738
vt 0.997969 0.632738
vt 0.912526 0.735517
vt 0.912526 0.758823
vt 0.997349 0.735517
vt 0.997349 0.758823
vt 0.938256 0.650573
vt 0.938256 0.715293
vt 0.972440 0.650573
vt 0.972440 0.715293
vt 0.997969 0.632738
vt 0.912685 0.632738
vt 0.972440 0.650573
vt 0.938256 0.650573
vt 0.997969 0.734068
vt 0.972440 0.715293
vt 0.912685 0.734068
vt 0.938256 0.715293
vn 1.0000 0.0000 0.0000
vn 0.0000 0.0000 -1.0000
vn -0.0000 1.0000 0.0001
vn 0.0000 -0.0000 1.0000
vn 0.0000 -1.0000 -0.0006
vn 0.0000 -1.0000 0.0000
vn 0.0000 -0.9999 0.0120
vn -0.0003 -1.0000 0.0002
vn -0.0000 -0.9999 0.0116
vn -0.0003 -1.0000 0.0000
vn -0.0000 0.2588 -0.9659
vn -0.0000 0.2588 0.9659
vn 0.0000 1.0000 0.0000
vn 0.0002 -1.0000 0.0000
vn 0.0000 -1.0000 0.0058
vn 0.0000 -1.0000 0.0060
vn 0.0001 -1.0000 0.0001
vn 0.0003 -1.0000 -0.0058
vn 0.0003 -1.0000 -0.0060
vn 0.0000 -1.0000 -0.0001
vn -0.7938 0.6081 0.0000
vn -0.0000 0.3051 0.9523
vn 0.7938 0.6081 0.0000
vn 0.0000 0.3051 -0.9523
vn -1.0000 0.0000 0.0000
vn 0.0000 1.0000 -0.0001
vn -0.0000 -1.0000 0.0006
usemtl lambert2
s 1
f 10/1/1 9/2/1 12/3/1
f 12/3/1 9/2/1 11/4/1
f 4/5/1 1/6/1 7/7/1
f 7/7/1 1/6/1 8/8/1
f 4/5/1 7/7/1 3/9/1
f 7/7/1 5/10/1 3/9/1
f 3/9/1 5/10/1 2/11/1
f 5/10/1 6/12/1 2/11/1
f 2/11/1 6/12/1 1/6/1
f 6/12/1 8/8/1 1/6/1
f 8/8/2 6/12/2 10/1/2
f 10/1/2 6/12/2 9/2/2
f 6/12/3 5/10/3 9/2/3
f 9/2/3 5/10/3 11/4/3
f 5/10/4 7/7/4 11/4/4
f 11/4/4 7/7/4 12/3/4
f 7/7/5 8/8/5 12/3/5
f 12/3/5 8/8/5 10/1/5
f 3/13/1 2/14/1 14/15/1
f 14/15/1 2/14/1 13/16/1
f 16/17/6 46/18/6 15/19/6
f 15/19/6 46/18/6 47/20/6
f 18/21/2 15/22/2 48/23/2
f 48/23/2 15/22/2 47/24/2
f 21/25/7 40/26/8 20/27/9
f 20/27/9 40/26/8 41/28/10
f 23/29/4 39/30/4 21/31/4
f 21/31/4 39/30/4 40/32/4
f 25/33/11 26/34/11 45/35/11
f 45/35/11 26/34/11 44/36/11
f 16/37/2 25/38/2 46/39/2
f 46/39/2 25/38/2 45/40/2
f 27/41/12 42/42/12 28/43/12
f 28/43/12 42/42/12 43/44/12
f 20/45/4 41/46/4 27/47/4
f 27/47/4 41/46/4 42/48/4
f 50/49/13 28/50/13 43/51/13
f 29/52/4 24/53/4 30/54/4
f 30/54/4 24/53/4 22/55/4
f 31/56/14 30/57/14 4/58/15
f 4/58/16 30/57/17 22/59/16
f 32/60/4 31/61/4 3/62/4
f 3/62/4 31/61/4 4/63/4
f 33/64/12 32/65/12 14/66/12
f 14/66/12 32/65/12 3/67/12
f 51/68/13 13/69/13 34/70/13
f 35/71/11 34/72/11 2/73/11
f 2/73/11 34/72/11 13/74/11
f 36/75/2 35/76/2 1/77/2
f 1/77/2 35/76/2 2/78/2
f 37/79/6 36/80/6 17/81/18
f 17/81/19 36/80/20 1/82/19
f 38/83/2 37/84/2 19/85/2
f 19/85/2 37/84/2 17/86/2
f 39/30/4 29/87/4 40/32/4
f 40/32/4 29/87/4 30/88/4
f 41/28/10 40/26/8 31/56/14
f 31/56/14 40/26/8 30/57/14
f 42/89/4 41/90/4 32/91/4
f 32/91/4 41/90/4 31/92/4
f 43/44/12 42/42/12 33/64/12
f 33/64/12 42/42/12 32/65/12
f 50/93/13 43/94/13 49/95/13
f 49/95/13 43/94/13 33/96/13
f 45/35/11 44/36/11 35/71/11
f 35/71/11 44/36/11 34/72/11
f 46/39/2 45/40/2 36/97/2
f 36/97/2 45/40/2 35/98/2
f 47/20/6 46/18/6 37/79/6
f 37/79/6 46/18/6 36/80/6
f 48/23/2 47/24/2 38/99/2
f 38/99/2 47/24/2 37/100/2
f 54/101/13 53/102/13 56/103/13
f 56/103/13 53/102/13 55/104/13
f 44/105/13 52/106/13 34/107/13
f 34/107/13 52/106/13 51/108/13
f 52/109/21 50/110/21 54/111/21
f 54/111/21 50/110/21 53/112/21
f 50/113/22 49/114/22 53/115/22
f 53/115/22 49/114/22 55/116/22
f 49/117/23 51/118/23 55/119/23
f 55/119/23 51/118/23 56/120/23
f 51/121/24 52/122/24 56/123/24
f 56/123/24 52/122/24 54/124/24
f 26/125/13 52/126/13 44/127/13
f 26/125/13 28/50/13 52/126/13
f 52/126/13 28/50/13 50/49/13
f 14/128/13 49/129/13 33/130/13
f 49/129/13 14/128/13 51/68/13
f 51/68/13 14/128/13 13/69/13
f 23/131/25 21/132/25 18/133/25
f 18/133/25 21/132/25 15/134/25
f 24/135/1 19/136/1 22/137/1
f 22/137/1 19/136/1 17/138/1
f 27/139/25 28/140/25 25/141/25
f 25/141/25 28/140/25 26/142/25
f 62/143/25 61/144/25 64/145/25
f 64/145/25 61/144/25 63/146/25
f 16/147/25 20/148/25 59/149/25
f 59/149/25 20/148/25 60/150/25
f 16/147/25 59/149/25 25/151/25
f 59/149/25 57/152/25 25/151/25
f 25/151/25 57/152/25 27/153/25
f 57/152/25 58/154/25 27/153/25
f 27/153/25 58/154/25 20/148/25
f 58/154/25 60/150/25 20/148/25
f 60/150/4 58/154/4 62/143/4
f 62/143/4 58/154/4 61/144/4
f 58/154/26 57/152/26 61/144/26
f 61/144/26 57/152/26 63/146/26
f 57/152/2 59/149/2 63/146/2
f 63/146/2 59/149/2 64/145/2
f 59/149/27 60/150/27 64/145/27
f 64/145/27 60/150/27 62/143/27
