# Blender v2.91.2 OBJ File: ''
# www.blender.org
mtllib train1.mtl
o poly_Mesh.004
v -0.093678 0.012079 0.016847
v -0.093678 -0.012070 0.016847
v -0.093678 -0.012079 0.015344
v -0.101448 -0.011252 0.015339
v -0.093678 0.017746 0.015328
v -0.093678 0.012079 -0.007923
v -0.093678 -0.012070 -0.007923
v -0.093678 -0.012079 -0.006421
v -0.101448 -0.011252 -0.006405
v -0.093678 0.017746 -0.006405
v -0.002049 -0.012079 0.015344
v -0.002049 -0.012079 0.016847
v -0.002049 -0.016582 0.015344
v -0.093678 -0.016582 0.015344
v -0.002049 -0.012061 -0.007923
v -0.002049 -0.012079 -0.006421
v -0.002049 -0.016582 -0.006421
v -0.093678 -0.016582 -0.006421
v -0.002049 0.012079 0.016847
v -0.002049 0.017746 0.015328
v -0.002049 0.012079 -0.007923
v -0.002049 0.017746 -0.006405
v -0.067005 -0.016582 -0.006421
v -0.067005 -0.012079 -0.006421
v -0.067005 -0.012079 -0.007923
v -0.067005 0.012079 -0.007923
v -0.067005 0.017746 -0.006405
v -0.067005 0.017746 0.015328
v -0.067005 0.012079 0.016847
v -0.067005 -0.012079 0.016847
v -0.067005 -0.012079 0.015344
v -0.067005 -0.016582 0.015344
v -0.029063 -0.016582 -0.006421
v -0.029063 -0.012079 -0.006421
v -0.029063 -0.012079 -0.007923
v -0.029063 0.012079 -0.007923
v -0.029063 0.017746 -0.006405
v -0.029063 0.017746 0.015328
v -0.029063 0.012079 0.016847
v -0.029063 -0.012079 0.016847
v -0.029063 -0.012079 0.015344
v -0.029063 -0.016582 0.015344
v -0.067005 0.017746 -0.003536
v -0.029063 0.017746 -0.003536
v -0.067005 0.017746 0.012330
v -0.029063 0.017746 0.012330
v -0.031497 0.020923 -0.002518
v -0.031497 0.020923 0.011312
v -0.064571 0.020923 -0.002518
v -0.064571 0.020923 0.011312
v -0.002049 0.007604 0.009432
v -0.002049 0.007605 -0.000497
v -0.002049 -0.007822 0.009432
v -0.002049 -0.007816 -0.000497
v 0.000936 0.007605 -0.000497
v 0.000936 -0.007816 -0.000497
v 0.000936 0.007604 0.009432
v 0.000936 -0.007822 0.009432
vt 0.862689 0.940516
vt 0.863023 0.997643
vt 0.912453 0.940516
vt 0.912453 0.940516
vt 0.862689 0.940516
vt 0.912572 1.000121
vt 0.912572 0.997428
vt 0.862689 0.940516
vt 0.912453 0.940516
vt 0.863023 1.000335
vt 0.912453 0.940516
vt 0.912572 1.000121
vt 0.862689 0.940516
vt 0.603181 0.045676
vt 0.716662 0.045676
vt 0.603181 0.067783
vt 0.716662 0.067783
vt 0.603181 0.041620
vt 0.716662 0.041620
vt 0.603181 0.045676
vt 0.716662 0.045676
vt 0.603181 0.067783
vt 0.716662 0.067783
vt 0.603181 0.045676
vt 0.716662 0.045676
vt 0.603181 0.067783
vt 0.716662 0.067783
vt 0.603181 0.235322
vt 0.603181 0.259285
vt 0.716662 0.235322
vt 0.716662 0.259285
vt 0.603181 0.067783
vt 0.603181 0.234481
vt 0.716662 0.067783
vt 0.603181 0.234281
vt 0.716662 0.234281
vt 0.603181 0.235098
vt 0.716662 0.235098
vt 0.603181 0.259285
vt 0.716662 0.259285
vt 0.603181 0.233947
vt 0.603181 0.233168
vt 0.716662 0.233168
vt 0.230020 0.292724
vt 0.025107 0.259574
vt 0.230020 0.259573
vt 0.876047 0.045676
vt 0.999447 0.045676
vt 0.876047 0.067783
vt 0.999447 0.067783
vt 0.876047 0.067783
vt 0.876047 0.045676
vt 0.988096 0.067783
vt 0.988096 0.045676
vt 0.876047 0.233603
vt 0.999753 0.233774
vt 1.000059 0.067783
vt 0.876047 0.259285
vt 0.876047 0.235098
vt 0.999447 0.259285
vt 0.999447 0.235098
vt 0.768654 0.346832
vt 0.974922 0.359919
vt 0.768718 0.359977
vt 0.876047 0.235322
vt 0.876047 0.259285
vt 0.999756 0.235322
vt 0.999756 0.259285
vt 0.876047 0.067783
vt 0.876047 0.233603
vt 1.000059 0.067783
vt 0.999753 0.233774
vt 0.876047 0.067783
vt 0.876047 0.045676
vt 0.988096 0.067783
vt 0.988096 0.045676
vt 0.876047 0.041620
vt 1.000295 0.041620
vt 1.000295 0.067783
vt 0.716662 0.233614
vt 0.231914 0.620898
vt 0.231914 0.594086
vt 0.399938 0.620898
vt 0.399938 0.594086
vt 0.876047 0.234281
vt 0.237747 0.573511
vt 0.237747 0.493337
vt 0.394355 0.573511
vt 0.237836 0.493337
vt 0.394355 0.493337
vt 0.231914 0.620898
vt 0.399938 0.620898
vt 0.231914 0.594086
vt 0.399938 0.594086
vt 0.200182 0.573511
vt 0.199010 0.472503
vt 0.237617 0.573511
vt 0.198253 0.472503
vt 0.237726 0.472338
vt 0.231162 0.473215
vt 0.400140 0.473378
vt 0.231313 0.493337
vt 0.231398 0.493337
vt 0.400035 0.473378
vt 0.400040 0.493337
vt 0.424679 0.472705
vt 0.424858 0.573511
vt 0.393957 0.472985
vt 0.393957 0.493337
vt 0.393957 0.573511
vt 0.400039 0.573687
vt 0.231114 0.573531
vt 0.399796 0.593347
vt 0.231215 0.593035
vt 0.025107 0.359796
vt 0.230020 0.348097
vt 0.230020 0.359796
vt 0.025107 0.266528
vt 0.230020 0.347385
vt 0.230020 0.346427
vt 0.025107 0.267408
vt 0.230020 0.279191
vt 0.975085 0.267196
vt 0.768902 0.279947
vt 0.768817 0.266815
vt 0.912127 0.572957
vt 0.912127 0.594596
vt 1.000855 0.572957
vt 1.000855 0.594596
vt 0.911968 0.748686
vt 0.911968 0.786030
vt 1.000236 0.748686
vt 1.000236 0.786030
vt 0.941143 0.621674
vt 0.941143 0.719938
vt 0.975326 0.621674
vt 0.975326 0.719938
vt 1.000855 0.594596
vt 0.912127 0.594596
vt 0.975326 0.621674
vt 0.941143 0.621674
vt 1.000855 0.748444
vt 0.975326 0.719938
vt 0.912127 0.748444
vt 0.941143 0.719938
vt 0.921779 0.593095
vt 0.921779 0.691358
vt 0.921779 0.593095
vt 0.921779 0.691358
vt 0.955962 0.691358
vt 0.955962 0.691358
vt 0.955962 0.593095
vt 0.955962 0.593095
vt 0.912487 0.786643
vt 0.999959 0.786643
vt 0.912487 0.819965
vt 0.999959 0.819965
vt 0.912572 1.000121
vt 0.999959 0.999906
vt 0.118621 0.046875
vt 0.193147 0.046875
vt 0.118621 0.073360
vt 0.193147 0.073360
vn -0.6942 0.1863 0.6952
vn -1.0000 0.0000 0.0000
vn -0.0073 -0.0621 0.9980
vn -0.6947 0.1862 -0.6948
vn -0.0087 -0.0621 -0.9980
vn 0.0000 -1.0000 0.0000
vn 0.0000 0.0000 1.0000
vn -0.0000 -0.9999 -0.0120
vn 0.0003 -1.0000 -0.0002
vn 0.0000 -0.9999 -0.0116
vn 0.0003 -1.0000 0.0000
vn -0.0000 -0.0000 -1.0000
vn 0.0000 0.2588 0.9659
vn -0.0000 0.2588 -0.9659
vn 0.0000 1.0000 -0.0000
vn -0.0002 -1.0000 0.0000
vn -0.0002 -1.0000 -0.0001
vn -0.0000 -1.0000 -0.0058
vn -0.0000 -1.0000 -0.0060
vn -0.0000 -1.0000 0.0001
vn -0.0003 -1.0000 0.0058
vn -0.0003 -1.0000 0.0060
vn 0.7938 0.6081 -0.0000
vn 0.0000 0.3051 -0.9523
vn -0.7938 0.6081 0.0000
vn -0.0000 0.3051 0.9523
vn 1.0000 0.0000 -0.0000
vn -0.0000 1.0000 0.0001
vn 0.0000 -1.0000 -0.0006
vn -0.1058 -0.9944 0.0000
vn -0.9659 0.2588 -0.0000
usemtl lambert2.001
s 1
f 5/1/1 4/2/1 1/3/1
f 2/4/2 1/5/2 3/6/2
f 1/3/3 4/2/3 3/7/3
f 10/8/4 6/9/4 9/10/4
f 7/11/2 8/12/2 6/13/2
f 6/9/5 8/12/5 9/10/5
f 12/14/6 40/15/6 11/16/6
f 11/16/6 40/15/6 41/17/6
f 13/18/7 11/16/7 42/19/7
f 42/19/7 11/16/7 41/17/7
f 16/20/8 34/21/9 15/22/10
f 15/22/10 34/21/9 35/23/11
f 17/24/12 33/25/12 16/26/12
f 16/26/12 33/25/12 34/27/12
f 19/28/13 20/29/13 39/30/13
f 39/30/13 20/29/13 38/31/13
f 12/32/7 19/33/7 40/34/7
f 40/34/7 19/35/7 39/36/7
f 21/37/14 36/38/14 22/39/14
f 22/39/14 36/38/14 37/40/14
f 15/22/12 35/23/12 21/41/12
f 21/42/12 35/23/12 36/43/12
f 44/44/15 22/45/15 37/46/15
f 23/47/12 18/48/12 24/49/12
f 24/49/12 18/48/12 8/50/12
f 25/51/16 24/52/17 7/53/18
f 7/53/18 24/52/17 8/54/19
f 26/55/12 25/51/12 6/56/12
f 6/56/12 25/51/12 7/57/12
f 27/58/14 26/59/14 10/60/14
f 10/60/14 26/59/14 6/61/14
f 45/62/15 5/63/15 28/64/15
f 29/65/13 28/66/13 1/67/13
f 1/67/13 28/66/13 5/68/13
f 30/69/7 29/70/7 2/71/7
f 2/71/7 29/70/7 1/72/7
f 31/73/6 30/74/20 3/75/21
f 3/75/21 30/74/20 2/76/22
f 32/77/7 31/73/7 14/78/7
f 14/78/7 31/73/7 3/79/7
f 33/25/12 23/47/12 34/27/12
f 34/27/12 23/47/12 24/49/12
f 35/23/11 34/21/9 25/51/16
f 25/51/16 34/21/9 24/52/17
f 36/80/12 35/23/12 26/55/12
f 26/55/12 35/23/12 25/51/12
f 37/40/14 36/38/14 27/58/14
f 27/58/14 36/38/14 26/59/14
f 44/81/15 37/82/15 43/83/15
f 43/83/15 37/82/15 27/84/15
f 39/30/13 38/31/13 29/65/13
f 29/65/13 38/31/13 28/66/13
f 40/34/7 39/36/7 30/69/7
f 30/69/7 39/36/7 29/85/7
f 41/17/6 40/15/6 31/73/6
f 31/73/6 40/15/6 30/74/20
f 42/19/7 41/17/7 32/77/7
f 32/77/7 41/17/7 31/73/7
f 48/86/15 47/87/15 50/88/15
f 50/88/15 47/89/15 49/90/15
f 38/91/15 46/92/15 28/93/15
f 28/93/15 46/92/15 45/94/15
f 46/95/23 44/96/23 48/97/23
f 48/86/23 44/98/23 47/99/23
f 44/100/24 43/101/24 47/102/24
f 47/103/24 43/104/24 49/105/24
f 43/106/25 45/107/25 49/108/25
f 49/109/25 45/107/25 50/110/25
f 45/111/26 46/112/26 50/113/26
f 50/113/26 46/112/26 48/114/26
f 20/115/15 46/116/15 38/117/15
f 20/115/15 22/118/15 46/119/15
f 46/120/15 22/121/15 44/122/15
f 10/123/15 43/124/15 27/125/15
f 43/124/15 10/123/15 45/62/15
f 45/62/15 10/123/15 5/63/15
f 17/126/27 16/127/27 13/128/27
f 13/128/27 16/127/27 11/129/27
f 21/130/27 22/131/27 19/132/27
f 19/132/27 22/131/27 20/133/27
f 56/134/27 55/135/27 58/136/27
f 58/136/27 55/135/27 57/137/27
f 12/138/27 15/139/27 53/140/27
f 53/140/27 15/139/27 54/141/27
f 12/138/27 53/140/27 19/142/27
f 53/140/27 51/143/27 19/142/27
f 19/142/27 51/143/27 21/144/27
f 51/143/27 52/145/27 21/144/27
f 21/144/27 52/145/27 15/139/27
f 52/145/27 54/141/27 15/139/27
f 54/146/12 52/147/12 56/148/12
f 56/148/12 52/147/12 55/149/12
f 52/147/28 51/150/28 55/149/28
f 55/149/28 51/150/28 57/151/28
f 51/150/7 53/152/7 57/151/7
f 57/151/7 53/152/7 58/153/7
f 53/152/29 54/146/29 58/153/29
f 58/153/29 54/146/29 56/148/29
f 8/154/30 3/155/30 9/156/30
f 9/156/30 3/155/30 4/157/30
f 9/156/31 4/157/31 10/158/31
f 10/158/31 4/157/31 5/159/31
f 18/160/2 14/161/2 8/162/2
f 8/162/2 14/161/2 3/163/2
