<svg id="Camada_2" data-name="Camada 2" xmlns="http://www.w3.org/2000/svg" viewBox="0 0 48 24"><defs><style>.cls-1{fill:#484040;}.cls-2{fill:#606068;stroke:#fc6;}.cls-2,.cls-3{stroke-miterlimit:10;}.cls-3{fill:none;stroke:#f8f8f8;}</style></defs><path class="cls-1" d="M43,1H5A3,3,0,0,0,2,4V21a3,3,0,0,0,3,3H43a3,3,0,0,0,3-3V4A3,3,0,0,0,43,1ZM27,18a1,1,0,0,1-1,1H11a1,1,0,0,1-1-1V7a1,1,0,0,1,1-1H26a1,1,0,0,1,1,1Z"/><path class="cls-2" d="M41.79,3H6.17a2,2,0,0,0-2,2V19.87a2,2,0,0,0,2,2H41.79a2,2,0,0,0,2-2V5A2,2,0,0,0,41.79,3ZM27,18a1,1,0,0,1-1,1H11a1,1,0,0,1-1-1V7a1,1,0,0,1,1-1H26a1,1,0,0,1,1,1Z"/><rect class="cls-3" x="10" y="6.03" width="17.01" height="12.96" rx="1"/></svg>