mtllib testa_02_00.mtl
o map
v -8.0 12.210937 2.098633
v -8.0 12.669921 2.997071
v -16.0 12.669921 2.997071
v -16.0 12.210937 2.098633
v -8.0 12.999999 3.0
v -16.0 12.999999 3.0
v -8.0 12.210937 2.098633
v -16.0 12.210937 2.098633
v -16.0 11.999999 2.0
v -8.0 11.999999 2.0
v -6.0 12.210937 2.098633
v -6.0 12.669921 2.997071
v -8.0 12.669921 2.997071
v -8.0 12.210937 2.098633
v -6.0 12.999999 3.0
v -8.0 12.999999 3.0
v -6.0 12.210937 2.098633
v -8.0 12.210937 2.098633
v -8.0 11.999999 2.0
v -6.0 11.999999 2.0
v -5.999999 12.0 2.0
v -4.999999 12.0 2.0
v -5.374999 12.0625 2.0
v -5.062499 12.3125 2.0
v -4.999999 13.0 2.0
v -5.999999 12.2109375 2.098633
v -5.562499 12.25 2.098633
v -5.999999 12.669922 2.997071
v -5.249999 12.5 2.098633
v -5.669921 13.0 2.997071
v -5.210937 13.0 2.098633
v -5.669921 13.0 2.997071
v -5.999999 13.0 3.0
v -5.999999 12.669922 2.997071
v -5.062499 12.3125 2.0
v -4.999999 13.0 2.0
v -5.210937 13.0 2.098633
v -5.249999 12.5 2.098633
v -5.999999 12.0 2.0
v -5.374999 12.0625 2.0
v -5.562499 12.25 2.098633
v -5.999999 12.2109375 2.098633
v 9.0 0.146483 -0.353515
v 10.0 0.146483 -0.353515
v 10.0 0.7041 0.486329
v 9.0 0.7041 0.486329
v -8.0 10.210937 1.098633
v -8.0 10.669921 1.997071
v -16.0 10.669921 1.997071
v -16.0 10.210937 1.098633
v -8.0 10.999999 2.0
v -16.0 10.999999 2.0
v -8.0 10.210937 1.098633
v -16.0 10.210937 1.098633
v -16.0 9.999999 1.0
v -8.0 9.999999 1.0
v -15.0 -4.7070312 0.042967975
v -13.0 -4.7070312 0.042967975
v -13.0 -3.292969 1.457031
v -15.0 -3.292969 1.457031
v -15.0 -1.707031 0.042967975
v -13.0 -1.707031 0.042967975
v -13.0 -0.292969 1.457031
v -15.0 -0.292969 1.457031
v -15.0 0.292969 0.042967975
v -13.0 0.292969 0.042967975
v -13.0 1.707031 1.457031
v -15.0 1.707031 1.457031
v -15.0 2.292969 0.042967975
v -13.0 2.292969 0.042967975
v -13.0 3.707031 1.457031
v -15.0 3.707031 1.457031
v -15.0 4.2929688 0.042967975
v -13.0 4.2929688 0.042967975
v -13.0 5.7070312 1.457031
v -15.0 5.7070312 1.457031
v -4.0 10.210937 1.098633
v -4.0 10.669921 1.997071
v -8.0 10.669921 1.997071
v -8.0 10.210937 1.098633
v -4.0 10.999999 2.0
v -8.0 10.999999 2.0
v -4.0 10.210937 1.098633
v -8.0 10.210937 1.098633
v -8.0 9.999999 1.0
v -4.0 9.999999 1.0
v -3.999999 10.0 1.0
v -2.999999 10.0 1.0
v -3.374999 10.0625 1.0
v -3.062499 10.3125 1.0
v -2.999999 11.0 1.0
v -3.999999 10.2109375 1.098633
v -3.562499 10.25 1.098633
v -3.999999 10.669922 1.997071
v -3.249999 10.5 1.098633
v -3.669921 11.0 1.997071
v -3.210937 11.0 1.098633
v -3.669921 11.0 1.997071
v -3.999999 11.0 2.0
v -3.999999 10.669922 1.997071
v -3.062499 10.3125 1.0
v -2.999999 11.0 1.0
v -3.210937 11.0 1.098633
v -3.249999 10.5 1.098633
v -3.999999 10.0 1.0
v -3.374999 10.0625 1.0
v -3.562499 10.25 1.098633
v -3.999999 10.2109375 1.098633
v -8.0 -8.0 0.0
v -16.0 -8.0 0.0
v -16.0 -16.0 0.0
v -8.0 -16.0 0.0
v -8.0 0.0 0.0
v -16.0 0.0 0.0
v -16.0 -8.0 0.0
v -8.0 -8.0 0.0
v -8.0 7.0 0.0
v -16.0 7.0 0.0
v -16.0 0.0 0.0
v -8.0 0.0 0.0
v -8.0 7.210937 0.09863299
v -8.0 7.669921 0.997071
v -16.0 7.669921 0.997071
v -16.0 7.210937 0.09863299
v -8.0 7.999999 1.0
v -16.0 7.999999 1.0
v -8.0 7.210937 0.09863299
v -16.0 7.210937 0.09863299
v -16.0 6.999999 0.0
v -8.0 6.999999 0.0
v -8.0 10.0 1.0
v -16.0 10.0 1.0
v -16.0 8.0 1.0
v -8.0 8.0 1.0
v -8.0 11.0 0.0
v -16.0 11.0 0.0
v -16.0 10.0 0.0
v -8.0 10.0 0.0
v -8.0 12.0 2.0
v -16.0 12.0 2.0
v -16.0 11.0 2.0
v -8.0 11.0 2.0
v -8.0 13.0 0.0
v -16.0 13.0 0.0
v -16.0 12.0 0.0
v -8.0 12.0 0.0
v -8.0 16.0 3.0
v -16.0 16.0 3.0
v -16.0 13.0 3.0
v -8.0 13.0 3.0
v 0.0 -8.0 0.0
v -8.0 -8.0 0.0
v -8.0 -16.0 0.0
v 0.0 -16.0 0.0
v 0.0 0.0 0.0
v -8.0 0.0 0.0
v -8.0 -8.0 0.0
v 0.0 -8.0 0.0
v 0.0 7.0 0.0
v -8.0 7.0 0.0
v -8.0 0.0 0.0
v 0.0 0.0 0.0
v -3.0 7.210937 0.09863299
v -3.0 7.669921 0.997071
v -8.0 7.669921 0.997071
v -8.0 7.210937 0.09863299
v -3.0 7.999999 1.0
v -8.0 7.999999 1.0
v -3.0 7.210937 0.09863299
v -8.0 7.210937 0.09863299
v -8.0 6.999999 0.0
v -3.0 6.999999 0.0
v -2.0 10.0 1.0
v -8.0 10.0 1.0
v -8.0 8.0 1.0
v -2.0 8.0 1.0
v 0.0 11.0 0.0
v -8.0 11.0 0.0
v -8.0 10.0 0.0
v 0.0 10.0 0.0
v -3.0 12.0 2.0
v -8.0 12.0 2.0
v -8.0 11.0 2.0
v -3.0 11.0 2.0
v 0.0 13.0 0.0
v -8.0 13.0 0.0
v -8.0 12.0 0.0
v 0.0 12.0 0.0
v -5.0 16.0 3.0
v -8.0 16.0 3.0
v -8.0 13.0 3.0
v -5.0 13.0 3.0
v 3.0 16.0 0.0
v -5.0 16.0 0.0
v -5.0 13.0 0.0
v 3.0 13.0 0.0
v -2.999999 7.0 0.0
v -1.999999 7.0 0.0
v -2.374999 7.0625 0.0
v -2.062499 7.3125 0.0
v -1.999999 8.0 0.0
v -2.999999 7.210938 0.09863299
v -2.562499 7.25 0.09863299
v -2.999999 7.669922 0.997071
v -2.249999 7.5 0.09863299
v -2.669921 8.0 0.997071
v -2.210937 8.0 0.09863299
v -2.669921 8.0 0.997071
v -2.999999 8.0 1.0
v -2.999999 7.669922 0.997071
v -2.062499 7.3125 0.0
v -1.999999 8.0 0.0
v -2.210937 8.0 0.09863299
v -2.249999 7.5 0.09863299
v -2.999999 7.0 0.0
v -2.374999 7.0625 0.0
v -2.562499 7.25 0.09863299
v -2.999999 7.210938 0.09863299
v 5.0 12.0 0.0
v -3.0 12.0 0.0
v -3.0 11.0 0.0
v 5.0 11.0 0.0
v 6.0 10.0 0.0
v -2.0 10.0 0.0
v -2.0 7.0 0.0
v 6.0 7.0 0.0
v 8.0 -8.0 0.0
v 0.0 -8.0 0.0
v 0.0 -16.0 0.0
v 8.0 -16.0 0.0
v 8.0 0.0 0.0
v 0.0 0.0 0.0
v 0.0 -8.0 0.0
v 8.0 -8.0 0.0
v 8.0 7.0 0.0
v 0.0 7.0 0.0
v 0.0 0.0 0.0
v 8.0 0.0 0.0
v 8.0 11.0 0.0
v 0.0 11.0 0.0
v 0.0 10.0 0.0
v 8.0 10.0 0.0
v 8.0 13.0 0.0
v 0.0 13.0 0.0
v 0.0 12.0 0.0
v 8.0 12.0 0.0
v 11.0 16.0 0.0
v 3.0 16.0 0.0
v 3.0 13.0 0.0
v 11.0 13.0 0.0
v 13.0 12.0 0.0
v 5.0 12.0 0.0
v 5.0 11.0 0.0
v 13.0 11.0 0.0
v 14.0 10.0 0.0
v 6.0 10.0 0.0
v 6.0 7.0 0.0
v 14.0 7.0 0.0
v 16.0 -8.0 0.0
v 8.0 -8.0 0.0
v 8.0 -16.0 0.0
v 16.0 -16.0 0.0
v 16.0 0.0 0.0
v 8.0 0.0 0.0
v 8.0 -8.0 0.0
v 16.0 -8.0 0.0
v 16.0 7.0 0.0
v 8.0 7.0 0.0
v 8.0 0.0 0.0
v 16.0 0.0 0.0
v 16.0 11.0 0.0
v 8.0 11.0 0.0
v 8.0 10.0 0.0
v 16.0 10.0 0.0
v 16.0 13.0 0.0
v 8.0 13.0 0.0
v 8.0 12.0 0.0
v 16.0 12.0 0.0
v 16.0 16.0 0.0
v 11.0 16.0 0.0
v 11.0 13.0 0.0
v 16.0 13.0 0.0
v 16.0 12.0 0.0
v 13.0 12.0 0.0
v 13.0 11.0 0.0
v 16.0 11.0 0.0
v 16.0 10.0 0.0
v 14.0 10.0 0.0
v 14.0 7.0 0.0
v 16.0 7.0 0.0
vt 4.0 -0.394531
vt 4.0 -0.097656
vt 0.0 -0.097656
vt 0.0 -0.394531
vt 4.0 -0.015625
vt 0.0 -0.015625
vt 4.0 -0.394531
vt 0.0 -0.394531
vt 0.0 -0.488281
vt 4.0 -0.488281
vt 1.0 -0.394531
vt 1.0 -0.097656
vt 0.0 -0.097656
vt 0.0 -0.394531
vt 1.0 -0.015625
vt 0.0 -0.015625
vt 1.0 -0.394531
vt 0.0 -0.394531
vt 0.0 -0.488281
vt 1.0 -0.488281
vt 1.0 0.5
vt 1.0 0.0
vt 1.03125 0.1875
vt 1.15625 0.03125
vt 1.5 0.0
vt -0.470703 -0.892578
vt -0.345703 -0.892578
vt -0.345703 -0.605469
vt -0.158203 -0.892578
vt -0.158203 -0.605469
vt -0.033203 -0.892578
vt -0.158203 -0.109375
vt -0.251953 -0.015625
vt -0.345703 -0.109375
vt 0.841797 -0.486328
vt 0.998047 -0.486328
vt 0.966797 -0.392578
vt 0.841797 -0.392578
vt 0.498047 -0.486328
vt 0.654297 -0.486328
vt 0.654297 -0.392578
vt 0.529297 -0.392578
vt 1.0 0.0
vt 0.0 0.0
vt 0.0 -1.0
vt 1.0 -1.0
vt 4.0 -0.394531
vt 4.0 -0.097656
vt 0.0 -0.097656
vt 0.0 -0.394531
vt 4.0 -0.015625
vt 0.0 -0.015625
vt 4.0 -0.394531
vt 0.0 -0.394531
vt 0.0 -0.488281
vt 4.0 -0.488281
vt 1.0 0.0
vt 0.0 0.0
vt 0.0 -1.0
vt 1.0 -1.0
vt 1.0 0.0
vt 0.0 0.0
vt 0.0 -1.0
vt 1.0 -1.0
vt 1.0 0.0
vt 0.0 0.0
vt 0.0 -1.0
vt 1.0 -1.0
vt 1.0 0.0
vt 0.0 0.0
vt 0.0 -1.0
vt 1.0 -1.0
vt 1.0 0.0
vt 0.0 0.0
vt 0.0 -1.0
vt 1.0 -1.0
vt 2.0 -0.394531
vt 2.0 -0.097656
vt 0.0 -0.097656
vt 0.0 -0.394531
vt 2.0 -0.015625
vt 0.0 -0.015625
vt 2.0 -0.394531
vt 0.0 -0.394531
vt 0.0 -0.488281
vt 2.0 -0.488281
vt 1.0 0.5
vt 1.0 0.0
vt 1.03125 0.1875
vt 1.15625 0.03125
vt 1.5 0.0
vt -0.470703 -0.892578
vt -0.345703 -0.892578
vt -0.345703 -0.605469
vt -0.158203 -0.892578
vt -0.158203 -0.605469
vt -0.033203 -0.892578
vt -0.158203 -0.109375
vt -0.251953 -0.015625
vt -0.345703 -0.109375
vt 0.841797 -0.486328
vt 0.998047 -0.486328
vt 0.966797 -0.392578
vt 0.841797 -0.392578
vt 0.498047 -0.486328
vt 0.654297 -0.486328
vt 0.654297 -0.392578
vt 0.529297 -0.392578
vt 4.0 4.0
vt 0.0 4.0
vt 0.0 0.0
vt 4.0 0.0
vt 4.0 8.0
vt 0.0 8.0
vt 0.0 4.0
vt 4.0 4.0
vt 0.0 8.0
vt 4.0 8.0
vt 4.0 11.5
vt 0.0 11.5
vt 4.0 -0.394531
vt 4.0 -0.097656
vt 0.0 -0.097656
vt 0.0 -0.394531
vt 4.0 -0.015625
vt 0.0 -0.015625
vt 4.0 -0.394531
vt 0.0 -0.394531
vt 0.0 -0.488281
vt 4.0 -0.488281
vt 4.0 13.0
vt 0.0 13.0
vt 0.0 12.0
vt 4.0 12.0
vt 0.0 13.0
vt 4.0 13.0
vt 4.0 13.5
vt 0.0 13.5
vt 4.0 14.0
vt 0.0 14.0
vt 0.0 13.5
vt 4.0 13.5
vt 0.0 14.0
vt 4.0 14.0
vt 4.0 14.5
vt 0.0 14.5
vt 4.0 16.0
vt 0.0 16.0
vt 0.0 14.5
vt 4.0 14.5
vt 8.0 4.0
vt 4.0 4.0
vt 4.0 0.0
vt 8.0 0.0
vt 8.0 8.0
vt 4.0 8.0
vt 4.0 4.0
vt 8.0 4.0
vt 4.0 8.0
vt 8.0 8.0
vt 8.0 11.5
vt 4.0 11.5
vt 2.5 -0.394531
vt 2.5 -0.097656
vt 0.0 -0.097656
vt 0.0 -0.394531
vt 2.5 -0.015625
vt 0.0 -0.015625
vt 2.5 -0.394531
vt 0.0 -0.394531
vt 0.0 -0.488281
vt 2.5 -0.488281
vt 7.0 13.0
vt 4.0 13.0
vt 4.0 12.0
vt 7.0 12.0
vt 4.0 13.0
vt 8.0 13.0
vt 8.0 13.5
vt 4.0 13.5
vt 6.5 14.0
vt 4.0 14.0
vt 4.0 13.5
vt 6.5 13.5
vt 4.0 14.0
vt 8.0 14.0
vt 8.0 14.5
vt 4.0 14.5
vt 5.5 16.0
vt 4.0 16.0
vt 4.0 14.5
vt 5.5 14.5
vt 5.5 16.0
vt 9.5 14.5
vt 9.5 16.0
vt 5.5 14.5
vt 1.0 0.5
vt 1.0 0.0
vt 1.03125 0.1875
vt 1.15625 0.03125
vt 1.5 0.0
vt -0.470703 -0.892578
vt -0.345703 -0.892578
vt -0.345703 -0.605469
vt -0.158203 -0.892578
vt -0.158203 -0.605469
vt -0.033203 -0.892578
vt -0.158203 -0.109375
vt -0.251953 -0.015625
vt -0.345703 -0.109375
vt 0.841797 -0.486328
vt 0.998047 -0.486328
vt 0.966797 -0.392578
vt 0.841797 -0.392578
vt 0.498047 -0.486328
vt 0.654297 -0.486328
vt 0.654297 -0.392578
vt 0.529297 -0.392578
vt 6.5 14.0
vt 10.5 13.5
vt 10.5 14.0
vt 6.5 13.5
vt 11.0 13.0
vt 7.0 13.0
vt 7.0 11.5
vt 11.0 11.5
vt 12.0 4.0
vt 8.0 4.0
vt 8.0 0.0
vt 12.0 0.0
vt 12.0 8.0
vt 8.0 8.0
vt 8.0 4.0
vt 12.0 4.0
vt 8.0 8.0
vt 12.0 8.0
vt 12.0 11.5
vt 8.0 11.5
vt 8.0 13.0
vt 12.0 13.0
vt 12.0 13.5
vt 8.0 13.5
vt 8.0 14.0
vt 12.0 14.0
vt 12.0 14.5
vt 8.0 14.5
vt 9.5 14.5
vt 13.5 14.5
vt 13.5 16.0
vt 9.5 16.0
vt 10.5 13.5
vt 14.5 13.5
vt 14.5 14.0
vt 10.5 14.0
vt 15.0 13.0
vt 11.0 13.0
vt 11.0 11.5
vt 15.0 11.5
vt 16.0 4.0
vt 12.0 4.0
vt 12.0 0.0
vt 16.0 0.0
vt 16.0 8.0
vt 12.0 8.0
vt 12.0 4.0
vt 16.0 4.0
vt 12.0 8.0
vt 16.0 8.0
vt 16.0 11.5
vt 12.0 11.5
vt 12.0 13.0
vt 16.0 13.0
vt 16.0 13.5
vt 12.0 13.5
vt 12.0 14.0
vt 16.0 14.0
vt 16.0 14.5
vt 12.0 14.5
vt 16.0 16.0
vt 13.5 14.5
vt 13.5 16.0
vt 16.0 14.5
vt 16.0 14.0
vt 14.5 13.5
vt 14.5 14.0
vt 16.0 13.5
vt 16.0 13.0
vt 15.0 13.0
vt 15.0 11.5
vt 16.0 11.5
vn 0.0 -0.7071 0.7071
vn 0.0 -0.5258 0.8506
vn -0.0 -0.0 1.0
vn 0.0 -0.426 0.9047
vn 0.0 -0.7071 0.7071
vn 0.0 -0.5258 0.8506
vn -0.0 -0.0 1.0
vn 0.0 -0.426 0.9047
vn -0.0 0.0 1.0
vn 0.0644 -0.6948 0.7163
vn 0.2303 -0.6012 0.7652
vn 0.3262 -0.6426 0.6933
vn 0.5703 -0.3477 0.7442
vn 0.5665 -0.25 0.7852
vn 0.6961 -0.0567 0.7157
vn -0.0 0.0 1.0
vn 0.3262 -0.6425 0.6933
vn 0.1651 -0.0808 0.983
vn 0.2269 -0.0178 0.9738
vn 0.6983 -0.0558 0.7136
vn 0.5641 -0.3474 0.7491
vn 0.0679 -0.1819 0.981
vn 0.0657 -0.1788 0.9817
vn 0.2295 -0.5999 0.7665
vn 0.0672 -0.6978 0.7132
vn 0.0 -0.8336 0.5524
vn 0.0 -0.8336 0.5523
vn 0.0 -0.7071 0.7071
vn 0.0 -0.5258 0.8506
vn -0.0 -0.0 1.0
vn 0.0 -0.426 0.9047
vn 0.0 -0.7071 0.7071
vn 0.0 -0.7071 0.7071
vn 0.0 -0.7071 0.7071
vn 0.0 -0.7071 0.7071
vn 0.0 -0.7071 0.7071
vn 0.0 -0.7071 0.7071
vn 0.0 -0.5258 0.8506
vn -0.0 -0.0 1.0
vn 0.0 -0.426 0.9047
vn -0.0 0.0 1.0
vn 0.0644 -0.6948 0.7163
vn 0.2303 -0.6012 0.7652
vn 0.3262 -0.6426 0.6933
vn 0.5703 -0.3477 0.7442
vn 0.5665 -0.25 0.7852
vn 0.6961 -0.0567 0.7157
vn -0.0 0.0 1.0
vn 0.3262 -0.6425 0.6933
vn 0.1651 -0.0808 0.983
vn 0.2269 -0.0178 0.9738
vn 0.6983 -0.0558 0.7136
vn 0.5641 -0.3474 0.7491
vn 0.0679 -0.1819 0.981
vn 0.0657 -0.1788 0.9817
vn 0.2295 -0.5999 0.7665
vn 0.0672 -0.6978 0.7132
vn -0.0 -0.0 1.0
vn -0.0 -0.0 1.0
vn -0.0 -0.0 1.0
vn 0.0 -0.7071 0.7071
vn 0.0 -0.5258 0.8506
vn -0.0 -0.0 1.0
vn 0.0 -0.426 0.9047
vn -0.0 -0.0 1.0
vn -0.0 -0.0 1.0
vn -0.0 -0.0 1.0
vn -0.0 -0.0 1.0
vn -0.0 -0.0 1.0
vn -0.0 -0.0 1.0
vn -0.0 -0.0 1.0
vn -0.0 -0.0 1.0
vn 0.0 -0.7071 0.7071
vn 0.0 -0.5258 0.8506
vn -0.0 -0.0 1.0
vn 0.0 -0.426 0.9047
vn -0.0 -0.0 1.0
vn -0.0 -0.0 1.0
vn -0.0 -0.0 1.0
vn -0.0 -0.0 1.0
vn -0.0 -0.0 1.0
vn -0.0 -0.0 1.0
vn -0.0 0.0 1.0
vn 0.0644 -0.6948 0.7163
vn 0.2303 -0.6012 0.7652
vn 0.3262 -0.6426 0.6933
vn 0.5703 -0.3477 0.7442
vn 0.5665 -0.25 0.7852
vn 0.6961 -0.0567 0.7157
vn -0.0 0.0 1.0
vn 0.3262 -0.6425 0.6933
vn 0.1651 -0.0808 0.983
vn 0.2269 -0.0178 0.9738
vn 0.6983 -0.0558 0.7136
vn 0.5641 -0.3474 0.7491
vn 0.0679 -0.1819 0.981
vn 0.0657 -0.1788 0.9817
vn 0.2295 -0.5999 0.7665
vn 0.0672 -0.6978 0.7132
vn -0.0 -0.0 1.0
vn -0.0 -0.0 1.0
vn -0.0 -0.0 1.0
vn -0.0 -0.0 1.0
vn -0.0 -0.0 1.0
vn -0.0 -0.0 1.0
vn -0.0 -0.0 1.0
vn -0.0 -0.0 1.0
vn -0.0 -0.0 1.0
vn -0.0 -0.0 1.0
vn -0.0 -0.0 1.0
vn -0.0 -0.0 1.0
vn -0.0 -0.0 1.0
vn -0.0 -0.0 1.0
vn -0.0 -0.0 1.0
vn -0.0 -0.0 1.0
vn -0.0 -0.0 1.0
vn -0.0 -0.0 1.0
c 1.0 1.0 1.0
c 1.0 1.0 1.0
c 1.0 1.0 1.0
c 1.0 1.0 1.0
c 1.0 1.0 1.0
c 1.0 1.0 1.0
c 1.0 1.0 1.0
c 1.0 1.0 1.0
c 1.0 1.0 1.0
c 1.0 1.0 1.0
c 1.0 1.0 1.0
c 1.0 1.0 1.0
c 1.0 1.0 1.0
c 1.0 1.0 1.0
c 1.0 1.0 1.0
c 1.0 1.0 1.0
c 1.0 1.0 1.0
c 1.0 1.0 1.0
c 1.0 1.0 1.0
c 1.0 1.0 1.0
c 1.0 1.0 1.0
c 1.0 1.0 1.0
c 1.0 1.0 1.0
c 1.0 1.0 1.0
c 1.0 1.0 1.0
c 1.0 1.0 1.0
c 1.0 1.0 1.0
c 1.0 1.0 1.0
c 1.0 1.0 1.0
c 1.0 1.0 1.0
c 1.0 1.0 1.0
c 1.0 1.0 1.0
c 1.0 1.0 1.0
c 1.0 1.0 1.0
c 1.0 1.0 1.0
c 1.0 1.0 1.0
c 1.0 1.0 1.0
c 1.0 1.0 1.0
c 1.0 1.0 1.0
c 1.0 1.0 1.0
c 1.0 1.0 1.0
c 1.0 1.0 1.0
c 1.0 1.0 1.0
c 1.0 1.0 1.0
c 1.0 1.0 1.0
c 1.0 1.0 1.0
c 1.0 1.0 1.0
c 1.0 1.0 1.0
c 1.0 1.0 1.0
c 1.0 1.0 1.0
usemtl grass01
s off
f 109/109/58/13 110/110/58/13 111/111/58/13 112/112/58/13
f 113/113/59/14 114/114/59/14 115/115/59/14 116/116/59/14
f 117/119/60/15 118/120/60/15 119/117/60/15 120/118/60/15
f 131/131/65/17 132/132/65/17 133/133/65/17 134/134/65/17
f 135/137/66/18 136/138/66/18 137/135/66/18 138/136/66/18
f 139/139/67/19 140/140/67/19 141/141/67/19 142/142/67/19
f 143/145/68/20 144/146/68/20 145/143/68/20 146/144/68/20
f 147/147/69/21 148/148/69/21 149/149/69/21 150/150/69/21
f 151/151/70/22 152/152/70/22 153/153/70/22 154/154/70/22
f 155/155/71/23 156/156/71/23 157/157/71/23 158/158/71/23
f 159/161/72/24 160/162/72/24 161/159/72/24 162/160/72/24
f 173/173/77/26 174/174/77/26 175/175/77/26 176/176/77/26
f 177/179/78/27 178/180/78/27 179/177/78/27 180/178/78/27
f 181/181/79/28 182/182/79/28 183/183/79/28 184/184/79/28
f 185/187/80/29 186/188/80/29 187/185/80/29 188/186/80/29
f 189/189/81/30 190/190/81/30 191/191/81/30 192/192/81/30
f 193/195/82/31 194/193/82/31 195/196/82/31 196/194/82/31
f 219/221/100/33 220/219/100/33 221/222/100/33 222/220/100/33
f 223/223/101/34 224/224/101/34 225/225/101/34 226/226/101/34
f 227/227/102/35 228/228/102/35 229/229/102/35 230/230/102/35
f 231/231/103/36 232/232/103/36 233/233/103/36 234/234/103/36
f 235/237/104/37 236/238/104/37 237/235/104/37 238/236/104/37
f 239/241/105/38 240/242/105/38 241/239/105/38 242/240/105/38
f 243/245/106/39 244/246/106/39 245/243/106/39 246/244/106/39
f 247/249/107/40 248/250/107/40 249/247/107/40 250/248/107/40
f 251/253/108/41 252/254/108/41 253/251/108/41 254/252/108/41
f 255/255/109/42 256/256/109/42 257/257/109/42 258/258/109/42
f 259/259/110/43 260/260/110/43 261/261/110/43 262/262/110/43
f 263/263/111/44 264/264/111/44 265/265/111/44 266/266/111/44
f 267/269/112/45 268/270/112/45 269/267/112/45 270/268/112/45
f 271/273/113/46 272/274/113/46 273/271/113/46 274/272/113/46
f 275/277/114/47 276/278/114/47 277/275/114/47 278/276/114/47
f 279/279/115/48 280/281/115/48 281/280/115/48 282/282/115/48
f 283/283/116/49 284/285/116/49 285/284/116/49 286/286/116/49
f 287/287/117/50 288/288/117/50 289/289/117/50 290/290/117/50
f 21/21/9/3 22/22/9/3 23/23/9/3
f 22/22/9/3 24/24/9/3 23/23/9/3
f 25/25/9/3 24/24/9/3 22/22/9/3
f 87/87/41/12 88/88/41/12 89/89/41/12
f 88/88/41/12 90/90/41/12 89/89/41/12
f 91/91/41/12 90/90/41/12 88/88/41/12
f 197/197/83/32 198/198/83/32 199/199/83/32
f 198/198/83/32 200/200/83/32 199/199/83/32
f 201/201/83/32 200/200/83/32 198/198/83/32
usemtl rock01
s off
f 59/57/32/6 60/58/32/6 57/59/32/6 58/60/32/6
f 63/61/33/7 64/62/33/7 61/63/33/7 62/64/33/7
f 67/65/34/8 68/66/34/8 65/67/34/8 66/68/34/8
f 71/69/35/9 72/70/35/9 69/71/35/9 70/72/35/9
f 75/73/36/10 76/74/36/10 73/75/36/10 74/76/36/10
usemtl sea_rock_m
s off
f 45/43/26/4 46/44/27/4 43/45/26/4 44/46/27/4
usemtl wallkn_g
s off
f 1/1/1/1 2/2/2/1 3/3/2/1 4/4/1/1
f 2/2/2/1 5/5/3/1 6/6/3/1 3/3/2/1
f 7/7/1/1 8/8/1/1 9/9/4/1 10/10/4/1
f 11/11/5/2 12/12/6/2 13/13/6/2 14/14/5/2
f 12/12/6/2 15/15/7/2 16/16/7/2 13/13/6/2
f 17/17/5/2 18/18/5/2 19/19/8/2 20/20/8/2
f 35/35/18/3 36/36/19/3 37/37/20/3 38/38/21/3
f 39/39/22/3 40/40/23/3 41/41/24/3 42/42/25/3
f 40/40/23/3 35/35/18/3 38/38/21/3 41/41/24/3
f 47/47/28/5 48/48/29/5 49/49/29/5 50/50/28/5
f 48/48/29/5 51/51/30/5 52/52/30/5 49/49/29/5
f 53/53/28/5 54/54/28/5 55/55/31/5 56/56/31/5
f 77/77/37/11 78/78/38/11 79/79/38/11 80/80/37/11
f 78/78/38/11 81/81/39/11 82/82/39/11 79/79/38/11
f 83/83/37/11 84/84/37/11 85/85/40/11 86/86/40/11
f 101/101/50/12 102/102/51/12 103/103/52/12 104/104/53/12
f 105/105/54/12 106/106/55/12 107/107/56/12 108/108/57/12
f 106/106/55/12 101/101/50/12 104/104/53/12 107/107/56/12
f 121/121/61/16 122/122/62/16 123/123/62/16 124/124/61/16
f 122/122/62/16 125/125/63/16 126/126/63/16 123/123/62/16
f 127/127/61/16 128/128/61/16 129/129/64/16 130/130/64/16
f 163/163/73/25 164/164/74/25 165/165/74/25 166/166/73/25
f 164/164/74/25 167/167/75/25 168/168/75/25 165/165/74/25
f 169/169/73/25 170/170/73/25 171/171/76/25 172/172/76/25
f 211/211/92/32 212/212/93/32 213/213/94/32 214/214/95/32
f 215/215/96/32 216/216/97/32 217/217/98/32 218/218/99/32
f 216/216/97/32 211/211/92/32 214/214/95/32 217/217/98/32
f 26/26/10/3 27/27/11/3 28/28/12/3
f 27/27/11/3 29/29/13/3 28/28/12/3
f 28/28/12/3 29/29/13/3 30/30/14/3
f 29/29/13/3 31/31/15/3 30/30/14/3
f 32/32/14/3 33/33/16/3 34/34/17/3
f 92/92/42/12 93/93/43/12 94/94/44/12
f 93/93/43/12 95/95/45/12 94/94/44/12
f 94/94/44/12 95/95/45/12 96/96/46/12
f 95/95/45/12 97/97/47/12 96/96/46/12
f 98/98/46/12 99/99/48/12 100/100/49/12
f 202/202/84/32 203/203/85/32 204/204/86/32
f 203/203/85/32 205/205/87/32 204/204/86/32
f 204/204/86/32 205/205/87/32 206/206/88/32
f 205/205/87/32 207/207/89/32 206/206/88/32
f 208/208/88/32 209/209/90/32 210/210/91/32
