<svg id="Camada_2" data-name="Camada 2" xmlns="http://www.w3.org/2000/svg" viewBox="0 0 342 192"><defs><style>.cls-1{fill:#c8d0c0;}.cls-10,.cls-2{fill:#f06058;}.cls-3,.cls-6,.cls-7{fill:#e0e8e8;}.cls-10,.cls-11,.cls-13,.cls-3,.cls-4,.cls-5{stroke:#606060;}.cls-10,.cls-11,.cls-13,.cls-3,.cls-4,.cls-5,.cls-7,.cls-8,.cls-9{stroke-miterlimit:10;}.cls-4{fill:#5898f8;}.cls-5{fill:#8898a8;}.cls-7{stroke:#000;}.cls-8,.cls-9{fill:none;}.cls-8{stroke:#9d9d9c;}.cls-9{stroke:#f6f6f6;}.cls-11{fill:#a8b8c0;}.cls-12,.cls-13{fill:#c8d0d8;}.cls-14{fill:#788898;}.cls-15{font-size:12px;fill:#fff;font-family:SquadaOne-Regular, Squada One;}</style></defs><rect class="cls-1" x="-6.3" y="6.73" width="354.6" height="191.51"/><rect class="cls-2" x="-6.3" y="6.73" width="354.6" height="16.67"/><rect class="cls-3" x="-6.3" y="23.4" width="354.45" height="174.84"/><path class="cls-4" d="M348.3,28.76V198.24H126.41a7.61,7.61,0,0,1-.66-3.11V37.44c0-4.79,4.43-8.68,9.89-8.68Z"/><rect class="cls-3" x="-6.3" y="-6.24" width="354.6" height="12.97"/><path class="cls-5" d="M99.88,29.17V58a1.69,1.69,0,0,1-1.69,1.69H-6.3V27.49H98.19A1.69,1.69,0,0,1,99.88,29.17Z"/><path class="cls-5" d="M112.27,157v40.87a1.84,1.84,0,0,1,0,.33H-6.3V155.39a2.07,2.07,0,0,1,.35,0H110.53A1.71,1.71,0,0,1,112.27,157Z"/><path class="cls-6" d="M99.37,45.23V57.92a1.24,1.24,0,0,1-1.24,1.22H-6.3V45.23Z"/><rect class="cls-6" x="-6.3" y="174.29" width="118.01" height="23.95"/><rect class="cls-7" x="130.31" y="10.38" width="219.85" height="167.7"/><rect class="cls-8" x="147.18" y="14.68" width="87.49" height="32.69"/><rect class="cls-9" x="147.18" y="14.68" width="87.49" height="16.35"/><rect class="cls-9" x="147.18" y="63.72" width="87.49" height="16.35"/><rect class="cls-8" x="147.18" y="47.37" width="87.49" height="32.69"/><rect class="cls-9" x="234.67" y="14.68" width="87.49" height="16.35"/><rect class="cls-8" x="234.67" y="14.68" width="87.49" height="32.69"/><rect class="cls-9" x="234.67" y="63.72" width="87.49" height="16.35"/><rect class="cls-8" x="234.67" y="47.37" width="87.49" height="32.69"/><path class="cls-10" d="M350.67,6H133.91A9.89,9.89,0,0,0,124,15.88V195.55a9.89,9.89,0,0,0,9.89,9.89H350.67a9.89,9.89,0,0,0,9.89-9.89V15.88A9.89,9.89,0,0,0,350.67,6ZM322.16,78.38a1.69,1.69,0,0,1-1.68,1.69H148.87a1.69,1.69,0,0,1-1.69-1.69v-62a1.69,1.69,0,0,1,1.69-1.68H320.48a1.68,1.68,0,0,1,1.68,1.68Z"/><path class="cls-11" d="M189.07,80.07v31.11a1.64,1.64,0,0,0,1.68,1.58h87.84a1.63,1.63,0,0,0,1.68-1.58V80.07Z"/><rect class="cls-3" x="133.14" y="135.58" width="204.47" height="53.25" rx="5.07"/><rect class="cls-12" x="133.78" y="154.11" width="203.23" height="15.83"/><rect class="cls-13" x="135.87" y="116.17" width="198.81" height="16.91" rx="4.46"/><rect class="cls-14" x="244.99" y="116.83" width="52.79" height="15.6" rx="4.46"/><rect class="cls-12" x="207.07" y="116.83" width="43.85" height="15.6" rx="4.46"/><rect class="cls-14" x="172.11" y="116.83" width="43.75" height="15.6" rx="4.46"/><rect class="cls-12" x="136.46" y="116.83" width="42.4" height="15.6" rx="4.46"/><text class="cls-15" transform="translate(181.13 128.39)">POWER</text><text class="cls-15" transform="translate(251.88 128.39)">ACCURACY</text></svg>