<svg id="Camada_2" data-name="Camada 2" xmlns="http://www.w3.org/2000/svg" xmlns:xlink="http://www.w3.org/1999/xlink" viewBox="0 0 342 192"><defs><style>.cls-1{fill:none;}.cls-2{fill:#5898f8;}.cls-2,.cls-3,.cls-4{stroke:#606060;}.cls-2,.cls-3,.cls-4,.cls-7{stroke-miterlimit:10;}.cls-3,.cls-5{fill:#e0e8e8;}.cls-4,.cls-9{fill:#8898a8;}.cls-6{fill:#606060;}.cls-7{fill:#607888;stroke:#404040;}.cls-8{fill:#788898;}.cls-10{fill:#c8d0d8;}.cls-11{fill:#484848;}.cls-12,.cls-15{fill:#f0f8f8;}.cls-13,.cls-15,.cls-17{font-size:8.01px;font-family:SquadaOne-Regular, Squada One;}.cls-13{fill:#c8d0c0;}.cls-14{clip-path:url(#clip-path);}.cls-16{clip-path:url(#clip-path-2);}.cls-17{fill:#a8b8c0;}</style><clipPath id="clip-path"><rect class="cls-1" x="217.89" y="184.43" width="18.26" height="2.73"/></clipPath><clipPath id="clip-path-2"><rect class="cls-1" x="216.9" y="188.17" width="19.44" height="2.62"/></clipPath></defs><rect class="cls-2" x="-1.51" y="-3.96" width="358.48" height="135.64" rx="9.89"/><rect class="cls-3" x="-2.17" y="22.66" width="354.04" height="167.7"/><path class="cls-2" d="M362.27,37.43v157.7c0,4.79-4.43,8.68-9.89,8.68H135.62c-5.46,0-9.89-3.89-9.89-8.68V37.43c0-4.79,4.43-8.68,9.89-8.68H352.38C357.84,28.75,362.27,32.64,362.27,37.43Z"/><rect class="cls-3" x="-1.51" y="-8.81" width="350.05" height="15.53"/><rect class="cls-4" x="-16.85" y="27.48" width="116.7" height="32.14" rx="1.68"/><rect class="cls-4" x="-4.46" y="155.35" width="116.7" height="44.23" rx="1.68"/><rect class="cls-4" x="162.45" y="4.45" width="25.02" height="22.55" rx="3.53"/><rect class="cls-4" x="190.5" y="4.45" width="25.02" height="22.55" rx="3.53"/><rect class="cls-4" x="218.55" y="4.45" width="25.02" height="22.55" rx="3.53"/><rect class="cls-4" x="246.59" y="4.45" width="25.02" height="22.55" rx="3.53"/><rect class="cls-4" x="274.64" y="4.45" width="25.02" height="22.55" rx="3.53"/><path class="cls-2" d="M155.9,26.77h-4.06l-5.11,4.76L142,26.77h-4.07a3.53,3.53,0,0,1-3.53-3.54V6.29a3.53,3.53,0,0,1,3.53-3.53h18a3.53,3.53,0,0,1,3.53,3.53V23.23A3.53,3.53,0,0,1,155.9,26.77Z"/><path class="cls-5" d="M-16.57,45.22H99.35a0,0,0,0,1,0,0V57.91a1.22,1.22,0,0,1-1.22,1.22H-16.57a0,0,0,0,1,0,0V45.22A0,0,0,0,1-16.57,45.22Z"/><rect class="cls-5" x="-4.46" y="174.29" width="116.15" height="25.3"/><path class="cls-6" d="M289.33,22.46,287,18h0l-2.35,4.46h-4.3l4.27-6.83-4.18-6.87h4.65L287.22,13h0l2.21-4.23h4.23l-4.18,6.46L294,22.46Z"/><rect class="cls-7" x="140.96" y="36.94" width="169.28" height="147.91" rx="3"/><rect class="cls-8" x="144.11" y="40.02" width="163.15" height="14.96" rx="2"/><rect class="cls-9" x="144.11" y="120.04" width="163.15" height="14.98" rx="2"/><rect class="cls-9" x="144.11" y="56.17" width="163.15" height="14.96" rx="2"/><rect class="cls-8" x="144.11" y="72.33" width="163.15" height="14.96" rx="2"/><rect class="cls-9" x="144.11" y="88.48" width="163.15" height="14.96" rx="2"/><rect class="cls-8" x="144.11" y="104.63" width="163.15" height="14.96" rx="2"/><path class="cls-10" d="M210.83,40h94.43a2,2,0,0,1,2,2V53a2,2,0,0,1-2,2H210.83a0,0,0,0,1,0,0V40A0,0,0,0,1,210.83,40Z"/><path class="cls-5" d="M210.83,56.17h94.43a2,2,0,0,1,2,2v11a2,2,0,0,1-2,2H210.83a0,0,0,0,1,0,0v-15A0,0,0,0,1,210.83,56.17Z"/><path class="cls-10" d="M210.83,72.33h94.43a2,2,0,0,1,2,2v11a2,2,0,0,1-2,2H210.83a0,0,0,0,1,0,0v-15A0,0,0,0,1,210.83,72.33Z"/><path class="cls-5" d="M210.83,88.48h94.43a2,2,0,0,1,2,2v11a2,2,0,0,1-2,2H210.83a0,0,0,0,1,0,0v-15A0,0,0,0,1,210.83,88.48Z"/><path class="cls-10" d="M210.83,104.63h94.43a2,2,0,0,1,2,2v11a2,2,0,0,1-2,2H210.83a0,0,0,0,1,0,0v-15A0,0,0,0,1,210.83,104.63Z"/><rect class="cls-9" x="144.11" y="152.13" width="163.15" height="14.96" rx="2"/><rect class="cls-5" x="233.6" y="135.97" width="73.66" height="14.96" rx="2"/><rect class="cls-5" x="233.6" y="168.28" width="73.66" height="14.96" rx="2"/><rect class="cls-11" x="215.39" y="184.43" width="88.93" height="6.47" rx="3"/><rect class="cls-12" x="236.65" y="186.22" width="65.2" height="2.89"/><text class="cls-13" transform="translate(217.47 190.22) scale(1.81 1)">EXP</text><g class="cls-14"><text class="cls-15" transform="translate(217.47 190.22) scale(1.81 1)">EXP</text></g><g class="cls-16"><text class="cls-17" transform="translate(217.47 190.22) scale(1.81 1)">EXP</text></g></svg>